<svg width="63" height="43" viewBox="0 0 63 43" fill="none" xmlns="http://www.w3.org/2000/svg">
<g clip-path="url(#clip0)">
<path d="M62.5087 19.3136C62.3864 18.3418 60.0621 16.1554 59.3281 15.4266C58.8388 14.9407 57.2485 13.6045 56.7592 13.2401C56.3922 12.9972 56.3922 12.9972 56.2699 12.8757C56.2699 12.7542 56.2699 12.7542 56.1475 12.6328C56.1475 12.7542 56.2699 12.8757 56.2699 12.8757C56.5145 12.7542 56.8815 12.6328 57.1262 12.7542C57.3708 12.8757 57.3708 13.1186 57.7378 13.1186C58.1048 13.2401 58.5941 12.9972 58.9611 12.9972C59.6951 12.8757 60.4291 12.7542 61.1631 12.6328C62.3864 12.3898 62.7534 11.2966 62.631 10.2034C62.5087 9.23164 61.5301 8.86723 60.6737 8.74576C59.8174 8.62429 58.7165 8.25989 57.9825 8.74576C56.8815 9.47458 57.2485 11.5395 55.6582 11.1751C55.7805 11.2966 55.7805 11.4181 55.9029 11.5395C55.9029 11.4181 55.7805 11.2966 55.6582 11.1751C54.3126 8.74576 50.2757 2.55085 49.9087 2.18644C49.5417 1.82203 48.6854 0.971751 47.3398 0.850282C46.2388 0.607345 33.7611 0 31.4369 0C29.1126 0 16.6349 0.607345 15.4116 0.850282C14.1883 1.09322 13.332 1.82203 12.965 2.18644C12.598 2.55085 8.56113 8.74576 7.2155 11.1751C7.09317 11.5395 6.97084 11.7825 6.84851 11.904C6.97084 11.7825 7.09317 11.5395 7.2155 11.1751C5.50288 11.5395 5.9922 9.35311 4.7689 8.74576C4.03492 8.25989 2.81162 8.62429 2.07764 8.74576C1.34366 8.86723 0.242687 9.23164 0.242687 10.2034C0.120357 11.2966 0.609677 12.3898 1.71065 12.6328C2.44463 12.7542 3.17861 12.8757 3.91259 12.9972C4.27958 12.9972 4.7689 13.2401 5.13589 13.1186C5.38055 12.9972 5.50288 12.7542 5.74754 12.7542C5.9922 12.6328 6.35919 12.7542 6.60385 12.8757C6.60385 12.7542 6.72618 12.6328 6.72618 12.3898C6.60385 12.6328 6.60385 12.8757 6.60385 12.8757C6.48152 13.1186 6.11453 13.3616 5.9922 13.3616C5.62521 13.6045 4.27958 14.5763 3.5456 15.3051C2.44463 16.5198 0.487347 18.2203 0.365017 19.3136C0.365017 20.2853 -0.124303 21.0141 -0.00197322 23.0791C-0.00197322 24.0508 0.365017 27.0876 0.609677 29.8814C0.854337 32.9181 1.22133 35.7119 1.22133 35.9548C1.22133 36.4407 1.099 36.9266 1.34366 37.291C1.58832 37.6554 2.07764 37.7768 2.81162 37.7768C3.05628 37.7768 5.62521 37.7768 9.17278 37.8983C17.6136 38.0198 31.5592 38.1412 31.5592 38.1412C31.5592 38.1412 45.8718 37.8983 54.3126 37.7768C57.6155 37.7768 60.0621 37.6554 60.3068 37.6554C61.0407 37.6554 61.5301 37.5339 61.7747 37.1695C61.897 36.8051 61.7747 36.3192 61.897 35.8333C61.897 35.4689 62.3864 30.3672 62.7534 26.6017C62.8757 24.9011 62.998 23.565 62.998 22.9576C62.998 21.0141 62.631 20.2853 62.5087 19.3136ZM57.7378 18.5847C58.8388 18.5847 59.0835 18.4633 59.3281 19.435C59.4504 20.0424 59.4504 21.0141 59.3281 21.5C58.8388 23.565 56.1475 23.565 54.4349 23.565C51.2543 23.565 48.4407 24.4153 45.8718 19.9209C48.0737 19.3136 50.6427 19.3136 52.8446 18.9492C54.4349 18.7062 56.0252 18.5847 57.7378 18.5847ZM13.5767 2.55085L31.4369 1.9435L49.297 2.55085C49.297 2.55085 55.7805 12.5113 55.2912 12.5113C54.8019 12.5113 38.6543 11.661 31.4369 11.7825C24.2194 11.661 8.07181 12.5113 7.58249 12.5113C7.2155 12.5113 13.5767 2.55085 13.5767 2.55085ZM3.66793 19.435C3.91259 18.4633 4.15725 18.5847 5.25822 18.5847C6.97084 18.5847 8.56113 18.7062 10.2738 19.0706C12.4757 19.435 15.0446 19.3136 17.2466 20.0424C14.6776 24.5367 11.9864 23.8079 8.68346 23.8079C6.97084 23.8079 4.27958 23.8079 3.79026 21.7429C3.5456 21.0141 3.5456 20.1638 3.66793 19.435ZM15.167 35.7119C14.066 36.0763 11.6194 36.0763 10.3961 36.0763C9.90676 36.0763 9.53977 36.0763 9.17278 36.0763C8.19414 36.0763 7.09317 36.0763 6.11453 36.0763C5.62521 36.0763 5.13589 36.0763 4.7689 36.0763C3.05628 36.0763 2.68929 35.4689 3.17861 33.7684C3.5456 32.5537 3.30094 31.339 4.64657 30.8531C4.89123 30.4887 6.48152 30.3672 8.4388 30.4887C8.68346 30.4887 8.80579 30.4887 9.05045 30.4887C9.6621 30.4887 10.3961 30.4887 11.1301 30.6102C11.4971 30.6102 11.9864 30.6102 12.3534 30.6102C12.4757 30.6102 12.7204 30.6102 12.8427 30.6102C13.0873 30.6102 13.332 30.6102 13.4543 30.6102C13.699 30.6102 13.9437 30.6102 14.066 30.6102C14.3106 30.6102 14.433 30.6102 14.6776 30.6102C15.0446 30.6102 15.2893 30.7316 15.6563 30.7316C15.9009 30.7316 16.0233 30.7316 16.2679 30.8531C16.3903 30.8531 16.6349 30.8531 16.7572 30.9746C16.8796 30.9746 16.8796 30.9746 17.0019 30.9746C17.1242 30.9746 17.2466 30.9746 17.2466 30.9746H17.3689H17.4912C17.6136 30.9746 17.7359 30.9746 17.7359 30.9746C17.2466 32.7966 16.8796 35.1045 15.167 35.7119ZM43.1805 33.5254C42.5689 35.226 40.1223 34.9831 39.8776 34.9831H22.9961C22.7514 34.9831 20.3048 35.226 19.6932 33.5254C19.0815 31.8249 18.1029 28.9096 17.7359 27.5734C17.3689 26.1158 16.1456 23.565 23.3631 23.6864C27.033 23.8079 29.7242 23.8079 31.4369 23.6864C33.1495 23.6864 35.8407 23.6864 39.5106 23.6864C46.7281 23.565 45.5048 25.9944 45.1378 27.452C44.7708 28.9096 43.7922 31.7034 43.1805 33.5254ZM58.3495 35.8333C57.0038 35.8333 55.6582 35.8333 54.3126 35.9548C53.7009 35.9548 53.2116 35.9548 52.6 35.9548C51.3767 35.9548 48.9301 36.0763 47.9514 35.7119C46.2388 35.1045 45.7495 32.7966 45.2602 31.2175C45.3825 31.2175 45.5048 31.2175 45.6271 31.096C45.7495 31.096 45.9941 31.096 46.2388 30.9746C46.3611 30.9746 46.4835 30.9746 46.6058 30.9746H46.7281C46.8504 30.9746 47.0951 30.9746 47.2174 30.8531C47.3398 30.8531 47.5844 30.8531 47.8291 30.7316C48.3184 30.7316 48.8077 30.6102 49.297 30.6102C49.4194 30.6102 49.5417 30.6102 49.7864 30.6102C50.5204 30.6102 51.3767 30.4887 52.233 30.4887C52.4776 30.4887 52.6 30.4887 52.8446 30.4887H53.3339C53.5786 30.4887 53.7009 30.4887 53.8233 30.4887H54.1903C56.2699 30.4887 57.9825 30.4887 58.4718 30.7316C59.8174 31.2175 59.5728 32.4322 59.9398 33.6469C60.3068 35.3475 60.0621 35.8333 58.3495 35.8333ZM2.68929 38.9915C2.19997 38.9915 1.22133 38.9915 0.609677 38.3842V42.3927C0.609677 42.7571 0.854337 43 1.22133 43H8.56113C8.92812 43 9.17278 42.7571 9.17278 42.3927V38.9915C9.17278 39.113 2.68929 38.9915 2.68929 38.9915ZM60.1844 38.8701C60.1844 38.8701 57.7378 38.8701 54.1903 38.9915V42.3927C54.1903 42.7571 54.4349 43 54.8019 43H62.1417C62.5087 43 62.7534 42.7571 62.7534 42.3927V37.7768C62.1417 38.8701 60.7961 38.8701 60.1844 38.8701ZM6.23686 30.9746C5.01356 30.9746 4.03492 31.9463 4.03492 33.161C4.03492 34.3757 5.01356 35.3475 6.23686 35.3475C7.46016 35.3475 8.4388 34.3757 8.4388 33.161C8.4388 31.9463 7.46016 30.9746 6.23686 30.9746ZM10.7631 31.7034C9.90676 31.7034 9.17278 32.4322 9.17278 33.2825C9.17278 34.1328 9.90676 34.8616 10.7631 34.8616C11.6194 34.8616 12.3534 34.1328 12.3534 33.2825C12.3534 32.3107 11.6194 31.7034 10.7631 31.7034ZM56.5145 30.9746C55.2912 30.9746 54.3126 31.9463 54.3126 33.161C54.3126 34.3757 55.2912 35.3475 56.5145 35.3475C57.7378 35.3475 58.7165 34.3757 58.7165 33.161C58.8388 31.9463 57.8602 30.9746 56.5145 30.9746ZM51.866 31.5819C51.0097 31.5819 50.2757 32.3107 50.2757 33.161C50.2757 34.0113 51.0097 34.7401 51.866 34.7401C52.7223 34.7401 53.4563 34.0113 53.4563 33.161C53.4563 32.3107 52.7223 31.5819 51.866 31.5819Z" fill="white"/>
</g>
<defs>
<clipPath id="clip0">
<rect width="63" height="43" fill="white"/>
</clipPath>
</defs>
</svg>
