<svg width="11" height="11" viewBox="0 0 11 11" fill="none" xmlns="http://www.w3.org/2000/svg">
<path d="M10.1406 8.32813C10.1406 8.13281 10.0625 7.9375 9.92188 7.79688L7.625 5.5L9.92188 3.20312C10.0625 3.0625 10.1406 2.86719 10.1406 2.67188C10.1406 2.47656 10.0625 2.28125 9.92188 2.14062L8.85938 1.07812C8.71875 0.9375 8.52344 0.859375 8.32812 0.859375C8.13281 0.859375 7.9375 0.9375 7.79688 1.07812L5.5 3.375L3.20312 1.07812C3.0625 0.9375 2.86719 0.859375 2.67188 0.859375C2.47656 0.859375 2.28125 0.9375 2.14063 1.07812L1.07812 2.14062C0.9375 2.28125 0.859375 2.47656 0.859375 2.67188C0.859375 2.86719 0.9375 3.0625 1.07812 3.20312L3.375 5.5L1.07812 7.79688C0.9375 7.9375 0.859375 8.13281 0.859375 8.32813C0.859375 8.52344 0.9375 8.71875 1.07812 8.85938L2.14063 9.92188C2.28125 10.0625 2.47656 10.1406 2.67188 10.1406C2.86719 10.1406 3.0625 10.0625 3.20312 9.92188L5.5 7.625L7.79688 9.92188C7.9375 10.0625 8.13281 10.1406 8.32812 10.1406C8.52344 10.1406 8.71875 10.0625 8.85938 9.92188L9.92188 8.85938C10.0625 8.71875 10.1406 8.52344 10.1406 8.32813Z" fill="#F45555"/>
</svg>
