<?xml version="1.0" encoding="utf-8"?>
<!-- Generator: Adobe Illustrator 21.0.0, SVG Export Plug-In . SVG Version: 6.00 Build 0)  -->
<svg version="1.1" id="Слой_1" xmlns="http://www.w3.org/2000/svg" xmlns:xlink="http://www.w3.org/1999/xlink" x="0px" y="0px"
	 viewBox="0 0 12.1 9.3" style="enable-background:new 0 0 12.1 9.3;" xml:space="preserve">
<style type="text/css">
	.st0{fill:#2A86C9;}
</style>
<path class="st0" d="M12.1,1.8c0-0.2-0.1-0.4-0.2-0.5l-1.1-1.1C10.7,0.1,10.5,0,10.3,0c-0.2,0-0.4,0.1-0.5,0.2L4.6,5.4L2.3,3
	C2.2,2.9,2,2.8,1.8,2.8C1.6,2.8,1.4,2.9,1.3,3L0.2,4.1C0.1,4.2,0,4.4,0,4.6S0.1,5,0.2,5.2L3,8l1.1,1.1c0.1,0.1,0.3,0.2,0.5,0.2
	S5,9.2,5.2,9.1L6.2,8l5.7-5.7C12,2.2,12.1,2,12.1,1.8z"/>
</svg>
