<?xml version="1.0" encoding="utf-8"?>
<!-- Generator: Adobe Illustrator 21.0.0, SVG Export Plug-In . SVG Version: 6.00 Build 0)  -->
<svg version="1.1" id="Слой_1" xmlns="http://www.w3.org/2000/svg" xmlns:xlink="http://www.w3.org/1999/xlink" x="0px" y="0px"
	 viewBox="0 0 28 20" style="enable-background:new 0 0 28 20;" xml:space="preserve">
<style type="text/css">
	.st0{fill:#2A86C9;}
</style>
<path class="st0" d="M25.7,0H2.3C1,0,0,1,0,2.3v15.5C0,19,1,20,2.3,20h23.5c1.2,0,2.3-1,2.3-2.3V2.3C28,1,27,0,25.7,0z M25.7,0.9
	c0.2,0,0.5,0.1,0.7,0.2L15.1,11c-0.6,0.5-1.6,0.5-2.1,0L1.6,1.1C1.8,1,2,0.9,2.3,0.9H25.7z M27.1,17.7c0,0.8-0.6,1.4-1.4,1.4H2.3
	c-0.8,0-1.4-0.6-1.4-1.4V2.3c0-0.2,0-0.3,0.1-0.6l9.1,8.1L5,14.7c-0.2,0.2-0.2,0.5,0,0.7c0.1,0.1,0.2,0.1,0.3,0.1
	c0.1,0,0.2,0,0.3-0.1l5.2-4.9l1.5,1.3c0.5,0.5,1,0.6,1.7,0.6c0.6,0,1.2-0.2,1.7-0.6l1.5-1.3l5.2,4.9c0.1,0.1,0.2,0.1,0.3,0.1
	c0.1,0,0.2,0,0.3-0.1c0.2-0.2,0.1-0.5,0-0.7l-5.2-4.9L27,1.7c0.1,0.2,0.1,0.3,0.1,0.6V17.7z"/>
</svg>
