<svg width="26" height="26" viewBox="0 0 26 26" fill="none" xmlns="http://www.w3.org/2000/svg">
<circle cx="13" cy="13" r="12.5" stroke="#2A86C9"/>
<path d="M19.2461 11.4746C18.6367 11.957 17.3164 12.9219 15.3359 14.3438L15.082 14.5469C14.6758 14.8516 14.3711 15.0801 14.1172 15.207C13.7109 15.4609 13.3301 15.5625 13 15.5625C12.6445 15.5625 12.2891 15.4609 11.8828 15.2324C11.6289 15.1055 11.3242 14.877 10.918 14.5723L10.6641 14.3438C8.60742 12.8711 7.3125 11.9062 6.75391 11.4746C6.70312 11.4492 6.62695 11.4492 6.57617 11.4746C6.52539 11.5 6.5 11.5508 6.5 11.6016V16.7812C6.5 17.1367 6.60156 17.416 6.85547 17.6445C7.08398 17.8984 7.36328 18 7.71875 18H18.2812C18.6113 18 18.8906 17.8984 19.1445 17.6445C19.373 17.416 19.5 17.1367 19.5 16.7812V11.6016C19.5 11.5508 19.4492 11.5 19.3984 11.4492C19.3477 11.4238 19.2969 11.4238 19.2461 11.4746ZM13 14.75C12.7715 14.75 12.4922 14.6484 12.1875 14.4453C11.9844 14.3438 11.7305 14.166 11.4004 13.8867L11.1465 13.709C9.06445 12.1855 7.64258 11.1445 6.90625 10.5605L6.72852 10.4336C6.57617 10.332 6.5 10.1543 6.5 9.95117V9.46875C6.5 9.13867 6.60156 8.85938 6.85547 8.60547C7.08398 8.37695 7.36328 8.25 7.71875 8.25H18.2812C18.6113 8.25 18.8906 8.37695 19.1445 8.60547C19.373 8.85938 19.5 9.13867 19.5 9.46875V9.95117C19.5 10.1543 19.4238 10.332 19.2715 10.4336L19.1445 10.5352C18.4082 11.1191 16.9863 12.1855 14.8535 13.709L14.5996 13.8867C14.2441 14.166 13.9902 14.3438 13.8125 14.4453C13.4824 14.6484 13.2031 14.75 13 14.75Z" fill="#2A86C9"/>
</svg>
