<svg width="26" height="26" viewBox="0 0 26 26" fill="none" xmlns="http://www.w3.org/2000/svg">
<circle cx="13" cy="13" r="12.5" stroke="#2A86C9"/>
<path d="M13 6.82812C14.1172 6.82812 15.1836 7.13281 16.1484 7.69141C17.1133 8.25 17.875 9.01172 18.4336 9.97656C18.9922 10.9414 19.2969 12.0078 19.2969 13.125C19.2969 14.2676 18.9922 15.3086 18.4336 16.2734C17.875 17.2383 17.1133 18.0254 16.1484 18.584C15.1836 19.1426 14.1172 19.4219 13 19.4219C11.8574 19.4219 10.8164 19.1426 9.85156 18.584C8.88672 18.0254 8.09961 17.2383 7.54102 16.2734C6.98242 15.3086 6.70312 14.2676 6.70312 13.125C6.70312 12.0078 6.98242 10.9414 7.54102 9.97656C8.09961 9.01172 8.88672 8.25 9.85156 7.69141C10.8164 7.13281 11.8574 6.82812 13 6.82812ZM13 18.2031C13.9141 18.2031 14.752 17.9746 15.5391 17.5176C16.3008 17.0605 16.9355 16.4512 17.3926 15.6641C17.8496 14.9023 18.0781 14.0391 18.0781 13.125C18.0781 12.2109 17.8496 11.373 17.3926 10.5859C16.9355 9.82422 16.3008 9.18945 15.5391 8.73242C14.752 8.27539 13.9141 8.04688 13 8.04688C12.0859 8.04688 11.2227 8.27539 10.4609 8.73242C9.67383 9.18945 9.06445 9.82422 8.60742 10.5859C8.15039 11.373 7.92188 12.2109 7.92188 13.125C7.92188 14.0391 8.15039 14.9023 8.60742 15.6641C9.06445 16.4512 9.67383 17.0605 10.4609 17.5176C11.2227 17.9746 12.0859 18.2031 13 18.2031ZM14.5742 15.5625C14.625 15.6133 14.7012 15.6387 14.8027 15.6133C14.8789 15.6133 14.9551 15.5625 15.0059 15.4863L15.4629 14.8262C15.5137 14.7754 15.5137 14.6992 15.5137 14.5977C15.5137 14.5215 15.4629 14.4453 15.4121 14.3945L13.7109 13.1758V9.57031C13.7109 9.49414 13.6602 9.41797 13.6094 9.36719C13.5586 9.31641 13.4824 9.26562 13.4062 9.26562H12.5938C12.4922 9.26562 12.416 9.31641 12.3652 9.36719C12.3145 9.41797 12.2891 9.49414 12.2891 9.57031V13.7344C12.2891 13.8359 12.3145 13.9375 12.416 13.9883L14.5742 15.5625Z" fill="#2A86C9"/>
</svg>
