<svg width="18" height="20" viewBox="0 0 18 20" fill="none" xmlns="http://www.w3.org/2000/svg">
<g clip-path="url(#clip0)">
<path d="M17.5853 3.28722C17.3198 2.99612 16.988 2.85913 16.6065 2.85913H15.2295V1.78037C15.2295 1.28379 15.0636 0.872833 14.7152 0.513244C14.3834 0.170778 13.9687 -0.0175781 13.4876 -0.0175781H12.7908C12.3097 -0.0175781 11.9115 0.153655 11.5631 0.513244C11.2313 0.855709 11.0489 1.28379 11.0489 1.78037V2.85913H6.90138V1.78037C6.90138 1.28379 6.73549 0.872833 6.3871 0.513244C6.0553 0.170778 5.64056 -0.0175781 5.15945 -0.0175781H4.46267C3.98157 -0.0175781 3.58341 0.153655 3.23502 0.513244C2.90323 0.855709 2.72074 1.28379 2.72074 1.78037V2.85913H1.37696C0.995392 2.85913 0.680185 2.99612 0.398157 3.28722C0.132719 3.56119 0 3.90365 0 4.28037V18.5612C0 18.955 0.132719 19.2804 0.414747 19.5715C0.696774 19.8626 1.01198 19.9995 1.39355 19.9995H16.623C17.0046 19.9995 17.3198 19.8626 17.6019 19.5715C17.8839 19.2804 18.0166 18.955 18.0166 18.5612V4.28037C18 3.90365 17.8507 3.56119 17.5853 3.28722ZM4.16406 18.2358H1.37696V15.3591H4.16406V18.2358ZM4.16406 14.2975H1.37696V11.0783H4.16406V14.2975ZM4.16406 10.0167H1.37696V7.13996H4.16406V10.0167ZM4.24701 5.25639C4.18065 5.1879 4.14747 5.10228 4.14747 4.99955V1.78037C4.14747 1.67763 4.18065 1.59201 4.24701 1.52352C4.31337 1.45502 4.39632 1.42078 4.49585 1.42078H5.19263C5.29217 1.42078 5.37512 1.45502 5.44148 1.52352C5.50784 1.59201 5.54102 1.67763 5.54102 1.78037V4.99955C5.54102 5.10228 5.50784 5.1879 5.44148 5.25639C5.37512 5.32489 5.29217 5.35913 5.19263 5.35913H4.49585C4.4129 5.35913 4.32996 5.32489 4.24701 5.25639ZM8.47742 18.2358H5.35853V15.3591H8.49401V18.2358H8.47742ZM8.47742 14.2975H5.35853V11.0783H8.49401V14.2975H8.47742ZM8.47742 10.0167H5.35853V7.13996H8.49401V10.0167H8.47742ZM12.6415 18.2358H9.50599V15.3591H12.6415V18.2358ZM12.6415 14.2975H9.50599V11.0783H12.6415V14.2975ZM12.6415 10.0167H9.50599V7.13996H12.6415V10.0167ZM12.5585 5.25639C12.4922 5.1879 12.459 5.10228 12.459 4.99955V1.78037C12.459 1.67763 12.4922 1.59201 12.5585 1.52352C12.6249 1.45502 12.7078 1.42078 12.8074 1.42078H13.5042C13.6037 1.42078 13.6866 1.45502 13.753 1.52352C13.8194 1.59201 13.8525 1.67763 13.8525 1.78037V4.99955C13.8525 5.10228 13.8194 5.1879 13.753 5.25639C13.6866 5.32489 13.6037 5.35913 13.5042 5.35913H12.8074C12.7078 5.35913 12.6249 5.32489 12.5585 5.25639ZM16.6065 18.2358H13.6535V15.3591H16.6065V18.2358ZM16.6065 14.2975H13.6535V11.0783H16.6065V14.2975ZM16.6065 10.0167H13.6535V7.13996H16.6065V10.0167Z" fill="#2A86C9"/>
</g>
<defs>
<clipPath id="clip0">
<rect width="18" height="20" fill="white"/>
</clipPath>
</defs>
</svg>
