<svg width="24" height="20" viewBox="0 0 24 20" fill="none" xmlns="http://www.w3.org/2000/svg">
<g clip-path="url(#clip0)">
<path d="M18.2715 15.3247C17.9135 14.921 17.3019 14.8899 16.9141 15.2626L16.8992 15.2781C16.6754 15.1694 16.4219 15.1228 16.1832 15.0918C15.6015 15.0452 15.0794 14.7346 14.7065 14.2843L13.6624 13.011L16.213 10.2936C16.75 9.71911 16.75 8.78743 16.1832 8.24396C16.1832 8.24396 16.1832 8.24396 16.1683 8.22843L16.1534 8.2129C15.5866 7.66942 14.6916 7.74706 14.1994 8.35265L12.0067 11.0235L9.81403 8.36818C9.30688 7.76259 8.42684 7.68495 7.86002 8.22843L7.84511 8.24396C7.84511 8.24396 7.84511 8.24396 7.83019 8.25948C7.26338 8.80296 7.24846 9.73464 7.80036 10.3092L13.0508 15.8837C13.4536 16.3185 13.7071 16.8775 13.6922 17.4831C13.6922 17.7471 13.722 17.9955 13.8115 18.244L13.7966 18.2595C13.4088 18.6322 13.379 19.2688 13.737 19.6725C14.0949 20.0763 14.7065 20.1073 15.0943 19.7346L15.1092 19.7191C15.9147 20.0763 16.8843 19.9365 17.5853 19.2688C18.2715 18.6011 18.4952 17.6073 18.2267 16.7377L18.2416 16.7222C18.6145 16.3651 18.6294 15.7284 18.2715 15.3247ZM16.8246 18.1197C16.392 18.7253 15.512 18.6943 15.1242 18.0421C14.9153 17.6849 14.9302 17.2036 15.1689 16.862C15.6015 16.2564 16.4815 16.2874 16.8693 16.9396C17.0931 17.3123 17.0632 17.7781 16.8246 18.1197ZM7.57662 0.340229C7.20372 -0.0790256 6.57724 -0.110081 6.17451 0.278117L0.327401 5.86818C-0.0753338 6.25638 -0.105166 6.90855 0.267736 7.32781L7.57662 0.340229ZM5.90602 11.1322C5.27954 10.4179 5.86127 8.80296 7.20372 7.52967C8.54616 6.24085 10.1422 5.79054 10.7687 6.4893L11.3206 5.96135C11.6935 5.60421 11.7233 4.99861 11.3802 4.61042L8.12851 0.930291L8.15835 0.961347L0.834547 7.96445L4.04151 11.6135C4.38458 12.0017 4.9663 12.0328 5.3392 11.6756L5.90602 11.1322ZM5.26462 6.8775C4.89172 6.44271 4.92155 5.79054 5.32429 5.38681C5.74194 4.99861 6.36841 5.02967 6.75623 5.44893C7.12914 5.88371 7.0993 6.53588 6.69657 6.93961C6.27892 7.32781 5.63753 7.31228 5.26462 6.8775ZM10.2913 14.2533C10.0079 13.9582 9.56046 13.9738 9.30688 14.2843C8.93398 14.7346 8.397 15.0452 7.83019 15.0918C7.57662 15.1073 7.33796 15.1694 7.11422 15.2781L7.0993 15.2626C6.69657 14.9054 6.11484 14.9054 5.75686 15.2936C5.36904 15.6974 5.38395 16.3495 5.78669 16.7377L5.8016 16.7533C5.53311 17.6228 5.74194 18.6166 6.443 19.2843C7.12914 19.952 8.09868 20.0918 8.91907 19.7346L8.93398 19.7502C9.3218 20.1228 9.93336 20.0918 10.2913 19.6881C10.7985 19.6881 11.0371 19.0359 10.6642 18.6943L10.2168 18.2595C10.2913 18.011 10.3361 17.7471 10.3361 17.4986C10.3361 16.893 10.5747 16.3185 10.9775 15.8992C11.2161 15.6353 11.2161 15.216 10.9775 14.9676L10.2913 14.2533ZM8.87432 18.0576C8.4865 18.7098 7.60645 18.7409 7.17388 18.1353C6.93523 17.7936 6.90539 17.3123 7.12914 16.9551C7.51695 16.303 8.397 16.2719 8.82957 16.8775C9.06823 17.2036 9.09806 17.685 8.87432 18.0576ZM23.686 5.86818L17.824 0.278117C17.4212 -0.110081 16.7948 -0.0790256 16.4219 0.340229L23.7457 7.34334C24.1036 6.90855 24.0887 6.25638 23.686 5.86818ZM15.87 0.930291L12.6332 4.61042C12.2901 4.99861 12.3199 5.60421 12.6928 5.96135L13.2447 6.4893C13.8712 5.77501 15.4672 6.24085 16.8097 7.52967C18.1521 8.81849 18.7338 10.4179 18.1074 11.1322L18.6593 11.6601C19.0322 12.0172 19.6139 11.9862 19.957 11.598L23.1639 7.94893L15.8401 0.961347L15.87 0.930291ZM17.2572 5.44893C17.6301 5.01414 18.2715 4.99861 18.6891 5.38681C19.1068 5.77501 19.1217 6.44271 18.7488 6.8775C18.3759 7.31228 17.7345 7.32781 17.3168 6.93961C16.8992 6.55141 16.8693 5.88371 17.2572 5.44893Z" fill="#2A86C9"/>
</g>
<defs>
<clipPath id="clip0">
<rect width="24" height="20" fill="white"/>
</clipPath>
</defs>
</svg>
