<svg width="19" height="20" viewBox="0 0 19 20" fill="none" xmlns="http://www.w3.org/2000/svg">
<path d="M9.4188 0H0.974359C0.324786 0 0 0.333333 0 1V19.6667H10.3932V1C10.3932 0.333333 9.90598 0 9.4188 0ZM9.09402 7H1.29915V1.83333H9.09402V7ZM14.453 20C12.3419 20 11.0427 18.5 10.8803 15.8333C10.8803 14.8333 11.0427 13.6667 11.3675 12.5C11.5299 11.6667 11.6923 10.6667 11.8547 9.66667C12.0171 8.66667 11.8547 8.33333 11.6923 8.33333C11.5299 8.16667 11.0427 8.16667 10.5556 8.16667H10.2308V6.83333H10.5556C11.3675 6.83333 12.1795 6.83333 12.6667 7.5C12.9915 8 13.1538 8.83333 13.1538 9.83333C12.9915 10.8333 12.8291 11.8333 12.5043 12.8333C12.3419 14 12.0171 15 12.1795 15.8333C12.3419 17.8333 12.9915 18.6667 14.453 18.6667C16.0769 18.6667 16.8889 17.6667 16.8889 15.6667C16.8889 14 16.4017 12.6667 16.0769 11.8333L15.7521 11.5C15.4274 10.6667 15.4274 9.83333 15.4274 8.5C15.4274 7.33333 15.4274 6 15.7521 4.66667C16.0769 3.33333 16.7265 2.66667 17.8632 1.66667L18.188 1.33333L19 2.33333L18.6752 2.66667C17.5385 3.66667 17.2137 4.16667 16.8889 5C16.5641 6.16667 16.5641 7.33333 16.5641 8.5C16.5641 9.66667 16.7265 10.3333 16.8889 11.1667L17.0513 11.5C17.3761 12.3333 18.0256 13.8333 18.0256 15.8333C18.0256 18.3333 16.7265 20 14.453 20ZM16.0769 8.66667V7.33333C16.0769 7.33333 17.0513 7.33333 17.5385 7.33333C17.5385 7.16667 17.5385 6.83333 17.5385 6.33333C17.5385 4.83333 17.3761 4.66667 17.0513 4.33333C16.8889 4.33333 16.8889 4.16667 16.7265 4L17.7009 3.16667C17.7009 3.33333 17.7009 3.33333 17.8632 3.33333C18.3504 3.83333 18.8376 4.33333 18.8376 6.33333V6.5C18.8376 7.16667 18.8376 7.66667 18.8376 7.83333C18.6752 8.33333 18.3504 8.66667 17.8632 8.66667C17.3761 8.66667 16.0769 8.66667 16.0769 8.66667Z" fill="#2A86C9"/>
</svg>
