<svg width="30" height="20" viewBox="0 0 30 20" fill="none" xmlns="http://www.w3.org/2000/svg">
<path d="M28.1633 6.38132C28.0867 6.38132 28.0867 6.3035 28.1633 6.38132L27.0153 5.29183C27.8571 5.05837 28.852 4.35798 28.852 3.57977C28.852 2.72374 27.6276 2.41245 26.6327 2.41245C25.5612 2.41245 25.4082 3.19066 25.4082 3.73541L22.7296 1.08949C22.1173 0.466926 21.0459 0 20.2806 0H9.71939C8.95408 0 7.88265 0.466926 7.34694 1.01167L4.59184 3.65759C4.59184 3.11284 4.51531 2.33463 3.44388 2.33463C2.37245 2.33463 1.14796 2.64591 1.14796 3.57977C1.14796 4.35798 2.06633 5.05837 2.98469 5.29183L1.91327 6.3035L1.83673 6.38132C0.765306 7.393 0 9.18288 0 10.5058V14.3969C0 15.3307 0.382653 16.1868 0.994898 16.8093V18.2879C0.994898 19.144 1.7602 19.9222 2.60204 19.9222H4.59184C5.5102 19.9222 6.19898 19.2218 6.19898 18.2879V17.8988H23.801V18.2879C23.801 19.144 24.5663 19.9222 25.4082 19.9222H27.398C28.3163 19.9222 29.0051 19.2218 29.0051 18.2879V16.8093C29.6173 16.1868 30 15.3307 30 14.3969V10.5058C30 9.18288 29.2347 7.393 28.1633 6.38132ZM8.34184 2.17899C8.72449 1.8677 9.41327 1.63424 9.71939 1.63424H20.2806C20.5867 1.63424 21.2755 1.8677 21.6582 2.17899L25.2551 5.68093H4.7449L8.34184 2.17899ZM1.22449 9.88327C1.22449 8.94942 1.9898 8.17121 2.90816 8.17121C3.82653 8.17121 6.81122 9.96109 6.81122 10.8949C6.81122 11.8288 3.82653 11.6732 2.90816 11.6732C1.9898 11.5953 1.22449 10.8171 1.22449 9.88327ZM6.19898 16.2646H5.58673H3.75C3.21429 16.1089 2.83163 15.8755 2.60204 15.7198C2.37245 15.5642 2.29592 15.4864 2.21939 15.4086C2.14286 15.3307 2.06633 15.1751 2.06633 15.0973C1.83673 14.3969 2.29592 13.7743 2.29592 13.7743H5.5102L7.65306 16.2646H6.19898ZM19.5918 16.2646H10.4082C9.41327 16.2646 8.64796 15.4864 8.64796 14.4747H21.2755C21.352 15.4864 20.5102 16.2646 19.5918 16.2646ZM19.9745 13.3074H10.0255C8.95408 13.3074 8.11225 11.9844 8.11225 10.428H21.8878C21.8878 11.9844 21.0459 13.3074 19.9745 13.3074ZM27.9337 15.0195C27.9337 15.0973 27.8571 15.2529 27.7806 15.3307C27.7041 15.4086 27.6276 15.5642 27.4745 15.642C27.2449 15.8755 26.8622 16.0311 26.3265 16.1868H24.4898H22.4235L24.5663 13.6965H27.7806C27.7041 13.7743 28.1633 14.3969 27.9337 15.0195ZM27.0918 11.5953C26.1735 11.5953 23.1888 11.8288 23.1888 10.8171C23.1888 9.88327 26.1735 8.09338 27.0918 8.09338C28.0102 8.09338 28.7755 8.8716 28.7755 9.80545C28.7755 10.8171 28.0102 11.5953 27.0918 11.5953Z" fill="#2A86C9"/>
</svg>
