<?xml version="1.0" encoding="utf-8"?>
<!-- Generator: Adobe Illustrator 21.0.0, SVG Export Plug-In . SVG Version: 6.00 Build 0)  -->
<svg version="1.1" id="Слой_1" xmlns="http://www.w3.org/2000/svg" xmlns:xlink="http://www.w3.org/1999/xlink" x="0px" y="0px"
	 viewBox="0 0 7.6 11.9" style="enable-background:new 0 0 7.6 11.9;" xml:space="preserve">
<style type="text/css">
	.st0{fill:#2A86C9;}
</style>
<path class="st0" d="M0.3,5.3C0.1,5.5,0,5.7,0,5.9c0,0.3,0.1,0.5,0.3,0.6l5,5c0.1,0.2,0.4,0.3,0.6,0.3c0.2,0,0.4-0.1,0.6-0.3
	l0.8-0.9c0.1-0.1,0.3-0.4,0.3-0.6c0-0.2-0.1-0.4-0.3-0.6L3.8,5.9l3.6-3.6C7.5,2.2,7.6,2,7.6,1.7c0-0.2-0.1-0.4-0.3-0.6L6.6,0.3
	C6.4,0.1,6.2,0,5.9,0C5.7,0,5.5,0.1,5.3,0.3L0.3,5.3z"/>
</svg>
