<?xml version="1.0" encoding="utf-8"?>
<!-- Generator: Adobe Illustrator 21.0.0, SVG Export Plug-In . SVG Version: 6.00 Build 0)  -->
<svg version="1.1" id="Слой_1" xmlns="http://www.w3.org/2000/svg" xmlns:xlink="http://www.w3.org/1999/xlink" x="0px" y="0px"
	 viewBox="0 0 7.6 11.9" style="enable-background:new 0 0 7.6 11.9;" xml:space="preserve">
<style type="text/css">
	.st0{fill:#2A86C9;}
</style>
<path class="st0" d="M7.4,5.3c0.2,0.2,0.3,0.4,0.3,0.6c0,0.3-0.1,0.5-0.3,0.6l-5,5c-0.1,0.2-0.4,0.3-0.6,0.3c-0.2,0-0.4-0.1-0.6-0.3
	l-0.8-0.9C0.1,10.6,0,10.4,0,10.1c0-0.2,0.1-0.4,0.3-0.6l3.6-3.6L0.3,2.3C0.1,2.2,0,2,0,1.7c0-0.2,0.1-0.4,0.3-0.6l0.8-0.9
	C1.3,0.1,1.5,0,1.7,0C2,0,2.2,0.1,2.3,0.3L7.4,5.3z"/>
</svg>
