<?xml version="1.0" encoding="utf-8"?>
<!-- Generator: Adobe Illustrator 21.0.0, SVG Export Plug-In . SVG Version: 6.00 Build 0)  -->
<svg version="1.1" id="Слой_1" xmlns="http://www.w3.org/2000/svg" xmlns:xlink="http://www.w3.org/1999/xlink" x="0px" y="0px"
	 viewBox="0 0 20 20" style="enable-background:new 0 0 20 20;" xml:space="preserve">
<style type="text/css">
	.st0{fill:#2A86C9;}
</style>
<path class="st0" d="M19,0c-0.5,0-1,0.5-1,1v8h-7V1c0-0.5-0.5-1-1-1S9,0.5,9,1v8H2V1c0-0.5-0.5-1-1-1S0,0.5,0,1v8v2v8
	c0,0.5,0.5,1,1,1s1-0.5,1-1v-8h7v8c0,0.5,0.5,1,1,1s1-0.5,1-1v-8h9v-1V9V1C20,0.5,19.5,0,19,0z"/>
</svg>
