<svg width="16" height="10" viewBox="0 0 16 10" fill="none" xmlns="http://www.w3.org/2000/svg">
<path d="M9.67578 4.41406H5.08008V6.11523H7.84766C7.79688 6.39453 7.66992 6.67383 7.49219 6.95312C7.26367 7.33398 6.98438 7.61328 6.62891 7.81641C6.17188 8.07031 5.66406 8.19727 5.08008 8.19727C4.52148 8.19727 4.01367 8.07031 3.55664 7.79102C3.09961 7.53711 2.71875 7.15625 2.46484 6.67383C2.18555 6.2168 2.05859 5.68359 2.05859 5.125C2.05859 4.56641 2.18555 4.05859 2.46484 3.57617C2.71875 3.11914 3.09961 2.73828 3.55664 2.45898C4.01367 2.20508 4.52148 2.05273 5.08008 2.05273C5.8418 2.05273 6.50195 2.30664 7.00977 2.78906L8.33008 1.51953C7.41602 0.681641 6.34961 0.25 5.08008 0.25C4.19141 0.25 3.37891 0.478516 2.61719 0.910156C1.85547 1.36719 1.27148 1.95117 0.839844 2.6875C0.408203 3.44922 0.205078 4.26172 0.205078 5.125C0.205078 6.01367 0.408203 6.82617 0.839844 7.5625C1.27148 8.32422 1.85547 8.9082 2.61719 9.33984C3.37891 9.79688 4.19141 10 5.08008 10C5.99414 10 6.80664 9.79688 7.51758 9.39062C8.22852 8.98438 8.76172 8.42578 9.16797 7.71484C9.54883 7.00391 9.75195 6.16602 9.75195 5.22656C9.75195 4.97266 9.72656 4.71875 9.67578 4.41406ZM14.373 4.5918H15.7949V6.01367H14.373V7.43555H12.9512V6.01367H11.5547V4.5918H12.9512V3.16992H14.373V4.5918Z" fill="white"/>
</svg>
