<svg width="14" height="12" viewBox="0 0 14 12" fill="none" xmlns="http://www.w3.org/2000/svg">
<path d="M12.1543 3.48438C12.6621 3.10352 13.1191 2.64648 13.5 2.08789C12.9922 2.31641 12.4844 2.46875 11.9766 2.51953C12.5352 2.16406 12.9414 1.68164 13.1445 1.04688C12.6113 1.35156 12.0527 1.58008 11.4434 1.68164C11.1895 1.42773 10.8848 1.22461 10.5547 1.07227C10.2246 0.919922 9.86914 0.84375 9.48828 0.84375C9.00586 0.84375 8.57422 0.970703 8.16797 1.19922C7.76172 1.45312 7.43164 1.7832 7.20312 2.18945C6.94922 2.5957 6.84766 3.05273 6.84766 3.50977C6.84766 3.71289 6.84766 3.91602 6.89844 4.11914C5.80664 4.06836 4.79102 3.81445 3.82617 3.30664C2.86133 2.82422 2.07422 2.16406 1.41406 1.32617C1.16016 1.75781 1.0332 2.21484 1.0332 2.67188C1.0332 3.12891 1.13477 3.56055 1.36328 3.94141C1.56641 4.34766 1.87109 4.65234 2.22656 4.90625C1.79492 4.90625 1.38867 4.7793 1.0332 4.55078V4.60156C1.0332 5.23633 1.23633 5.79492 1.64258 6.27734C2.04883 6.78516 2.55664 7.08984 3.16602 7.2168C2.91211 7.26758 2.68359 7.29297 2.45508 7.29297C2.30273 7.29297 2.125 7.29297 1.97266 7.26758C2.125 7.80078 2.42969 8.23242 2.88672 8.58789C3.34375 8.94336 3.85156 9.0957 4.46094 9.0957C3.4707 9.85742 2.35352 10.2383 1.13477 10.2383C0.880859 10.2383 0.677734 10.2383 0.5 10.2129C1.71875 11.0254 3.08984 11.4062 4.58789 11.4062C6.13672 11.4062 7.50781 11.0254 8.72656 10.2129C9.81836 9.50195 10.6816 8.5625 11.291 7.34375C11.875 6.22656 12.1797 5.0332 12.1797 3.81445C12.1797 3.66211 12.1543 3.56055 12.1543 3.48438Z" fill="white"/>
</svg>
