<svg width="120" height="120" viewBox="0 0 120 120" fill="none" xmlns="http://www.w3.org/2000/svg">
<g clip-path="url(#clip0)">
<path d="M110.598 39.7714C110.427 39.4286 110.427 39.2572 110.256 38.9143C109.231 36.8572 107.521 35.8286 105.299 35.8286H103.761H103.59C103.932 34.9714 104.102 34.1143 104.102 33.2572C103.932 31.0286 102.564 29.1429 100.171 28.2857L99.8289 27.9429H97.4358L95.5554 28.8C89.2307 31.5429 83.0768 32.7429 76.923 32.0572C72.9913 31.7143 69.0597 31.2 65.1281 30.6857C63.0768 30.3429 60.8546 30.1714 58.8033 29.8286C58.6324 29.8286 58.2905 29.8286 58.1195 29.6572C56.923 29.4857 55.7264 29.3143 54.1879 29.8286C51.9657 30.5143 49.5725 31.2 47.5213 31.8857C47.1794 32.0572 46.8375 32.0572 46.6666 32.2286V28.2857H31.4529V30.6857L31.6238 31.3714C31.6238 31.5429 31.6238 31.5429 31.6238 31.7143C31.7948 34.1143 32.1366 36.5143 32.3076 38.9143L34.5298 62.0572H46.6666V58.8H47.5213C47.8631 58.8 48.205 58.8 48.376 58.8C48.5469 58.8 48.5469 58.8 48.7178 58.9714C50.9401 61.2 52.9913 63.2572 55.2136 65.4857C56.752 67.0286 58.1196 68.4 59.658 69.9429C60.3418 70.6286 61.1965 70.9714 62.2221 70.9714C65.8119 70.9714 69.4016 70.9714 72.9913 70.9714C73.5042 70.9714 74.017 70.9714 74.7007 70.8C74.7007 70.9714 74.7007 70.9714 74.7007 70.9714C75.0426 72.5143 75.7264 73.8857 76.5811 74.9143C76.2392 75.9429 75.8973 76.8 75.8973 77.8286C75.7264 79.5429 75.8973 81.2572 75.8973 82.9714C75.8973 84.3429 76.4101 85.3714 77.4358 86.2286C77.9486 86.5714 78.4614 86.7429 79.1452 87.0857V87.7714C79.1452 91.8857 79.1452 96 79.1452 99.9429C79.1452 100.286 79.3161 100.8 79.658 100.971C80.5127 101.829 81.3674 102.514 82.2221 103.371H82.3931C83.2478 102.514 84.1025 101.829 84.7862 100.971C84.9572 100.8 85.1281 100.286 85.299 99.9429C85.299 98.5714 85.299 97.2 85.299 95.8286C85.299 95.1429 85.47 94.8 85.9828 94.4572C86.4956 94.1143 86.6666 93.6 86.6666 92.9143C86.6666 91.0286 86.6666 88.9714 86.6666 87.0857C86.6666 87.0857 86.6666 86.9143 86.8375 86.9143C89.2307 86.0572 89.9144 85.0286 89.9144 82.6286C89.9144 81.0857 89.9144 79.5429 89.9144 78.1714C89.9144 77.1429 89.7435 76.2857 89.2307 75.6C89.9144 74.2286 90.5982 73.2 90.9401 71.8286C91.7948 68.4 90.5982 65.6572 87.8631 63.4286C87.8631 63.4286 87.8631 63.4286 87.6922 63.4286C88.205 62.7429 88.7178 62.0572 89.0597 60.8572C89.2307 60.3429 89.2307 60 89.2307 59.4857C89.2307 56.9143 89.2307 54.1714 89.2307 51.6V51.4286H89.4016C92.8204 53.1429 96.4101 54.8572 99.8289 56.5714C101.367 57.2572 102.906 57.4286 104.273 56.9143C106.496 56.0572 107.692 54.5143 108.034 52.2857C108.205 50.0572 107.35 48.1714 105.47 46.9714C108.376 46.8 109.914 45.7714 111.111 42.6857L111.282 42.3429V40.2857L110.598 39.7714ZM43.2478 58.8H37.6067L35.8973 38.9143C35.7264 36.6857 35.5554 34.2857 35.2136 32.0572H43.2478V58.8ZM77.7777 58.9714C76.752 58.4572 75.5554 58.2857 74.3589 58.2857C74.1879 58.2857 74.1879 58.2857 74.017 58.2857C71.7948 58.2857 69.4016 58.2857 67.3503 58.2857C65.1281 55.8857 65.299 52.2857 67.5213 50.0572C69.7435 47.8286 73.5042 47.6572 75.8973 49.8857C76.5811 50.5714 77.2648 51.2572 77.9486 51.9429C77.9486 53.8286 77.9486 55.8857 77.9486 57.7714L77.7777 58.9714ZM85.1281 79.7143C84.2734 79.7143 83.5896 79.7143 82.7349 79.7143C82.0512 79.7143 81.1965 79.7143 80.5127 79.7143C79.8289 79.7143 79.3161 79.3714 79.1452 78.6857C79.1452 78.3429 79.1452 78 79.3161 77.6572C79.3161 77.4857 79.8289 77.6572 79.9999 77.6572C81.7093 78.3429 83.5896 78.1714 85.299 77.6572C85.9828 77.4857 86.1537 77.6572 86.1537 78.1714C86.4956 79.0286 85.9828 79.7143 85.1281 79.7143ZM87.3503 73.8857C87.1794 74.0572 86.6665 74.2286 86.4956 74.2286C83.9315 74.2286 81.5384 74.2286 78.9743 74.2286C78.8033 74.2286 78.4614 74.0572 78.2905 73.8857C77.4358 73.0286 77.0939 72 76.923 70.4572C76.923 70.4572 76.923 70.4572 77.0939 70.4572C77.7777 70.2857 78.4614 69.9429 78.9743 69.6C79.1452 69.4286 79.3161 69.2572 79.4871 69.0857C79.4871 69.0857 79.4871 69.0857 79.658 68.9143C80.5127 68.0572 81.0255 66.8572 81.3674 65.4857C81.3674 65.3143 81.3674 65.1429 81.3674 64.9714C82.564 65.4857 83.9315 65.4857 85.299 65.1429C85.47 65.1429 85.6409 64.9714 85.8119 64.8C85.9828 64.8 85.9828 64.8 86.1537 64.9714C89.0597 67.0286 89.7435 71.3143 87.3503 73.8857ZM104.273 43.5429H98.8033C98.6324 43.5429 98.4614 43.5429 98.1195 43.5429L91.6238 43.8857L97.2648 46.9714C97.4358 47.1429 97.6067 47.1429 97.7777 47.3143L99.3161 48.1714C100.513 48.6857 101.538 49.3714 102.735 49.8857C103.59 50.4 103.932 50.9143 103.932 51.9429C103.761 52.8 103.419 53.3143 102.564 53.6572C102.222 53.8286 101.709 53.8286 100.855 53.4857C97.4358 51.7714 93.846 50.0572 90.4272 48.3429L88.5469 47.3143C88.376 47.3143 88.205 47.1429 88.0341 47.1429L85.47 45.9429V51.7714C85.47 54.3429 85.47 57.0857 85.47 59.6572C85.47 59.8286 85.47 60.1714 85.47 60.3429C85.47 60.5143 85.47 60.5143 85.47 60.5143C85.47 60.8572 85.47 61.0286 85.299 61.3714L85.1281 61.5429C85.1281 61.5429 85.1281 61.5429 84.9572 61.7143C84.7862 62.0572 84.4443 62.2286 84.2734 62.4C83.5896 62.2286 82.9059 62.2286 82.0512 62.2286C81.7093 62.0572 81.5383 61.7143 81.3674 61.3714C81.3674 61.2 81.3674 61.2 81.1965 61.0286C81.1965 60.8572 81.1965 60.8572 81.1965 60.6857V60.5143C81.1965 60.5143 81.1965 60.5143 81.1965 60.3429C81.1965 60.1714 81.1965 60 81.1965 59.6572V57.6C81.1965 55.5429 81.1965 53.6572 81.1965 51.6C81.1965 51.0857 81.0255 50.2286 80.5127 49.5429C79.8289 48.6857 78.9743 47.8286 78.1195 46.9714C74.3589 43.5429 68.5469 43.7143 64.9572 47.3143C61.3674 51.0857 61.1965 56.7429 64.7862 60.5143C65.299 61.0286 66.1537 61.5429 67.0084 61.5429C69.2307 61.5429 71.6238 61.5429 74.017 61.5429C74.1879 61.5429 74.3589 61.5429 74.5298 61.5429C74.7007 61.5429 74.7007 61.5429 74.8717 61.5429C75.8973 61.5429 76.923 62.0572 77.4358 62.9143L77.6067 63.2572C75.8973 64.2857 75.2136 66 74.8717 67.5429C74.7007 67.5429 74.1879 67.5429 73.846 67.5429C69.9144 67.5429 66.1537 67.5429 62.2221 67.5429C60.6837 66 59.3161 64.6286 57.7777 63.0857C55.5554 60.8572 53.5042 58.8 51.2819 56.5714C50.5982 55.8857 49.7435 55.3714 48.8888 55.3714V51.7714C48.8888 46.2857 48.8888 40.8 48.8888 35.1429C50.9401 34.6286 52.9913 33.9429 55.2136 33.2572C55.8973 33.0857 56.5811 33.0857 57.4358 33.2572C57.7777 33.2572 57.9486 33.2572 58.2905 33.4286C60.3418 33.6 62.564 33.9429 64.6153 34.2857C68.5469 34.8 72.4785 35.3143 76.5811 35.6572C83.2478 36.1714 90.0854 34.9714 96.923 32.0572L97.9486 31.5429H98.8033H98.9743C100.513 32.0572 100.684 32.9143 100.684 33.6C100.684 34.8 99.8289 35.4857 99.1452 35.6572L92.6495 38.9143L99.1452 39.2572C100.684 39.4286 102.222 39.4286 103.761 39.4286H105.299C106.154 39.4286 106.838 39.7714 107.179 40.6286C107.179 40.8 107.35 40.9714 107.35 41.1429V41.8286C106.667 43.3714 106.325 43.5429 104.273 43.5429Z" fill="#2A86C9"/>
<path d="M67.6924 92.5713C68.7181 92.057 68.889 90.6855 68.7181 90.1712C68.5471 89.657 65.2993 89.9998 64.6155 90.6855C63.9318 91.3713 63.5899 92.5713 63.5899 92.5713C63.5899 92.5713 66.6668 93.0855 67.6924 92.5713ZM62.2224 92.3998C62.2224 92.3998 58.1198 85.0284 56.5813 83.4855C55.0429 81.9427 47.5215 80.7427 35.5557 80.7427C23.5899 80.7427 16.0685 81.9427 14.5301 83.4855C12.9916 85.0284 8.88903 92.3998 8.88903 92.3998C8.88903 92.3998 13.5044 92.7427 35.5557 92.7427C57.7779 92.7427 62.2224 92.3998 62.2224 92.3998ZM52.8206 106.628C52.8206 106.628 61.8805 106.457 64.6155 105.428C67.3506 104.4 67.1796 100.8 67.1796 100.8C67.1796 100.8 63.9318 101.657 59.4873 101.828C55.0429 102.171 53.8463 105.086 52.8206 106.628ZM51.2822 102.514C51.2822 102.514 41.8805 103.371 35.5557 103.371C29.2309 103.371 19.8292 102.514 19.8292 102.514C19.8292 102.514 22.2224 109.371 23.5899 110.4C24.9574 111.428 35.5557 111.6 35.5557 111.6C35.5557 111.6 46.154 111.257 47.5215 110.4C49.06 109.371 51.2822 102.514 51.2822 102.514ZM71.1112 98.5713C70.9403 97.0284 64.9574 93.5998 64.9574 93.5998C64.9574 93.5998 68.889 97.3713 69.4018 98.2284C69.9147 99.0855 69.9147 107.143 69.9147 107.143C69.9147 107.143 71.2822 100.114 71.1112 98.5713ZM44.6155 115.028L55.0429 116.4V118.286C55.0429 119.143 55.7266 120 56.7523 120H66.8377C67.6924 120 68.5471 119.314 68.5471 118.286V114.857H55.2138H44.6155V115.028ZM6.15398 93.5998C6.15398 93.5998 0.171079 97.0284 0.000138774 98.5713C-0.170801 100.114 1.19672 107.143 1.19672 107.143C1.19672 107.143 1.02578 99.0855 1.70954 98.2284C2.22236 97.3713 6.15398 93.5998 6.15398 93.5998ZM2.73518 115.028V118.457C2.73518 119.314 3.41894 120.171 4.44458 120.171H14.5301C15.3848 120.171 16.2395 119.486 16.2395 118.457V116.571L26.6668 115.2H16.0685H2.73518V115.028ZM3.58988 92.5713C4.61552 93.0855 7.86339 92.5713 7.86339 92.5713C7.86339 92.5713 7.35057 91.3713 6.83774 90.6855C6.15398 89.9998 2.90612 89.657 2.73518 90.1712C2.3933 90.6855 2.56424 92.057 3.58988 92.5713ZM3.93176 100.8C3.93176 100.8 3.58988 104.4 6.49586 105.428C9.40185 106.457 18.2907 106.628 18.2907 106.628C17.2651 105.086 16.0685 102 11.6241 101.828C7.17963 101.657 3.93176 100.8 3.93176 100.8Z" fill="#A3C7E2"/>
<path d="M66.4957 91.5428C67.5214 91.0285 67.6923 89.8285 67.3504 89.3142C67.1795 88.7999 63.9316 89.1428 63.4188 89.8285C62.906 90.5142 62.3932 91.5428 62.3932 91.5428C62.3932 91.5428 65.4701 92.0571 66.4957 91.5428ZM61.1966 91.3714C61.1966 91.3714 57.265 84.3428 55.7265 82.7999C54.188 81.2571 47.0086 80.2285 35.3846 80.2285C23.9316 80.2285 16.5812 81.2571 15.0427 82.7999C13.5043 84.3428 9.57266 91.3714 9.57266 91.3714C9.57266 91.3714 14.0171 91.7142 35.2137 91.7142C56.9231 91.7142 61.1966 91.3714 61.1966 91.3714ZM52.1368 105.086C52.1368 105.086 60.8547 104.914 63.5898 103.886C66.3248 102.857 65.9829 99.4285 65.9829 99.4285C65.9829 99.4285 62.906 100.286 58.6325 100.457C54.359 100.629 53.1624 103.543 52.1368 105.086ZM50.7692 100.971C50.7692 100.971 41.7094 101.657 35.5556 101.657C29.4017 101.657 20.3419 100.971 20.3419 100.971C20.3419 100.971 22.5641 107.657 23.9316 108.686C25.2992 109.714 35.5556 109.886 35.5556 109.886C35.5556 109.886 45.812 109.543 47.1795 108.686C48.547 107.657 50.7692 100.971 50.7692 100.971ZM69.7436 97.1999C69.5727 95.6571 63.9316 92.3999 63.9316 92.3999C63.9316 92.3999 67.6923 95.9999 68.2051 96.8571C68.718 97.7142 68.547 105.429 68.547 105.429C68.547 105.429 69.9145 98.7428 69.7436 97.1999ZM44.2735 113.143L54.359 114.514V116.4C54.359 117.257 55.0427 117.943 55.8974 117.943H65.641C66.4957 117.943 67.1795 117.257 67.1795 116.4V113.143H54.359H44.2735ZM7.35043 92.3999C7.35043 92.3999 1.70941 95.6571 1.53847 97.1999C1.36753 98.7428 2.73505 105.6 2.73505 105.6C2.73505 105.6 2.56411 97.8857 3.07693 97.0285C3.41881 95.9999 7.35043 92.3999 7.35043 92.3999ZM3.93163 113.143V116.4C3.93163 117.257 4.61539 117.943 5.47009 117.943H15.2137C16.0684 117.943 16.7521 117.257 16.7521 116.4V114.514L26.8376 113.143H16.7521H3.93163ZM4.78633 91.5428C5.81197 92.0571 8.8889 91.5428 8.8889 91.5428C8.8889 91.5428 8.37608 90.3428 7.86326 89.8285C7.35043 89.1428 4.10257 88.7999 3.93163 89.3142C3.58975 89.6571 3.76069 90.8571 4.78633 91.5428ZM5.29915 99.4285C5.29915 99.4285 4.95727 103.029 7.69232 103.886C10.4274 104.743 19.1453 105.086 19.1453 105.086C18.1197 103.543 16.9231 100.629 12.6496 100.457C8.37608 100.114 5.29915 99.4285 5.29915 99.4285Z" fill="#2A86C9"/>
<path d="M112.82 4.45703H105.47V11.8285H112.82V4.45703Z" fill="#A3C7E2"/>
<path d="M109.231 0H101.88V7.37143H109.231V0Z" fill="#2A86C9"/>
<path d="M10.7693 49.3711H3.58984V56.5711H10.7693V49.3711Z" fill="#A3C7E2"/>
<path d="M7.17949 45.0854H0V52.2854H7.17949V45.0854Z" fill="#2A86C9"/>
<path d="M13.5041 4.7998H7.52124V10.7998H13.5041V4.7998Z" fill="#A3C7E2"/>
<path d="M10.4275 1.2002H4.44458V7.20019H10.4275V1.2002Z" fill="#2A86C9"/>
<path d="M91.9758 117.074H96.9331V112.103H91.9758V117.074Z" fill="#A3C7E2"/>
<path d="M94.398 120.027H99.3552V115.056H94.398V120.027Z" fill="#2A86C9"/>
<path d="M68.8889 13.2002H62.906V19.2002H68.8889V13.2002Z" fill="#A3C7E2"/>
<path d="M65.812 9.6001H59.8291V15.6001H65.812V9.6001Z" fill="#2A86C9"/>
<path d="M114.017 70.977V76.9771H120V70.977H114.017Z" fill="#A3C7E2"/>
<path d="M110.318 74.125V80.125H116.301V74.125H110.318Z" fill="#2A86C9"/>
<path d="M110.085 38.914C109.915 38.5712 109.915 38.3997 109.744 38.0569C108.718 36.1712 107.009 34.9712 104.786 34.9712H103.248H103.077C103.419 34.114 103.59 33.2569 103.59 32.3997C103.419 30.1712 102.051 28.2854 99.8291 27.4283L99.4872 27.0854H97.094L95.2137 27.9426C89.0598 30.6854 82.906 31.714 76.7522 31.1997C72.8205 30.8569 68.8889 30.3426 65.1282 29.8283C63.0769 29.4854 61.0257 29.314 58.8034 28.9712C58.6325 28.9712 58.2906 28.9712 58.1197 28.7997C56.9231 28.6283 55.7265 28.4569 54.359 28.9712C52.1368 29.6569 49.9145 30.3426 47.8633 30.8569C47.5214 31.0283 47.3504 31.0283 47.0086 31.1997V27.2569H31.9658V29.6569L32.1368 30.1712C32.1368 30.3426 32.1368 30.3426 32.1368 30.514C32.3077 32.914 32.6496 35.314 32.8205 37.714L34.8718 60.6855H46.8376V57.4283H47.6923C48.0342 57.4283 48.3761 57.4283 48.547 57.4283C48.718 57.4283 48.718 57.4283 48.8889 57.5997C50.9402 59.8283 53.1624 61.8855 55.3846 64.114C56.7521 65.4855 58.2906 67.0283 59.6581 68.3997C60.3419 69.0854 61.1966 69.4283 62.2222 69.4283C65.812 69.4283 69.4017 69.4283 72.9915 69.4283C73.5043 69.4283 74.0171 69.4283 74.7009 69.2569C74.7009 69.4283 74.7009 69.4283 74.7009 69.4283C75.0427 70.9712 75.7265 72.3426 76.5812 73.3712C76.2393 74.3997 75.8974 75.2569 75.8974 76.2854C75.7265 77.9997 75.8974 79.714 75.8974 81.4283C75.8974 82.7997 76.4103 83.8283 77.4359 84.514C77.9487 84.8569 78.4616 85.0283 78.9744 85.3712V86.0569C78.9744 90.1712 78.9744 94.114 78.9744 98.2283C78.9744 98.5712 79.1453 99.0854 79.4872 99.2569C80.3419 100.114 81.1966 100.8 81.8804 101.657H82.0513C82.906 100.8 83.7607 100.114 84.4445 99.2569C84.6154 99.0854 84.7863 98.5712 84.9573 98.2283C84.9573 96.8569 84.9573 95.4855 84.9573 94.114C84.9573 93.4283 85.1282 93.0854 85.641 92.7426C86.1539 92.3997 86.3248 91.8854 86.3248 91.1997C86.3248 89.314 86.3248 87.2569 86.3248 85.3712C86.3248 85.3712 86.3248 85.1997 86.4957 85.1997C88.8889 84.3426 89.5727 83.314 89.5727 80.914C89.5727 79.3712 89.5727 77.9997 89.5727 76.4569C89.5727 75.4283 89.4017 74.5712 88.8889 73.8854C89.4017 72.514 90.2564 71.4855 90.5983 70.114C91.453 66.6855 90.4274 63.9426 87.6923 61.8854C87.6923 61.8854 87.6923 61.8854 87.5214 61.8854C88.0342 61.1997 88.547 60.514 88.8889 59.4855C89.0598 58.9712 89.0598 58.6283 89.0598 58.114C89.0598 55.5426 89.0598 52.7997 89.0598 50.2283V49.8854H89.2308C92.6496 51.5997 96.0684 53.314 99.6581 55.0283C101.197 55.714 102.564 55.8854 104.103 55.3712C106.325 54.6854 107.521 52.9712 107.863 50.7426C108.034 48.514 107.179 46.6283 105.299 45.4283C108.205 45.2569 109.573 44.2283 110.769 41.1426L110.94 40.7997V38.7426L110.085 38.914ZM43.5898 57.7712H38.1197L36.2393 37.8854C36.0684 35.6569 35.8974 33.4283 35.5556 31.0283H43.5898V57.7712ZM77.7778 57.7712C76.7521 57.2569 75.7265 57.0854 74.359 57.0854C74.188 57.0854 74.188 57.0854 74.0171 57.0854C71.7949 57.0854 69.5727 57.0854 67.3504 57.0854C65.1282 54.6854 65.2992 51.2569 67.5214 48.8569C69.7436 46.6283 73.3333 46.4569 75.7265 48.6854C76.4103 49.3712 77.094 50.0569 77.7778 50.7426C77.7778 52.6283 77.7778 54.6854 77.7778 56.5712V57.7712ZM84.9573 78.3426C84.1026 78.3426 83.4188 78.3426 82.5641 78.3426C81.8804 78.3426 81.0257 78.3426 80.3419 78.3426C79.6581 78.3426 79.1453 77.9997 79.1453 77.314C79.1453 76.9712 79.1453 76.6283 79.3163 76.2854C79.3163 76.114 79.8291 76.2854 80 76.2854C81.7094 76.7997 83.5898 76.7997 85.2992 76.2854C85.9829 76.114 86.1539 76.2854 86.1539 76.7997C86.3248 77.8283 85.812 78.3426 84.9573 78.3426ZM87.1795 72.6855C87.0086 72.8569 86.6667 73.0283 86.3248 73.0283C83.7607 73.0283 81.3675 73.0283 78.8034 73.0283C78.6325 73.0283 78.2906 72.8569 78.1197 72.6855C77.265 71.8283 76.9231 70.7997 76.7522 69.4283C76.7522 69.4283 76.7521 69.4283 76.9231 69.4283C77.6068 69.2569 78.2906 68.914 78.8034 68.5712C78.9744 68.3997 79.1453 68.2283 79.3163 68.0569C79.3163 68.0569 79.3162 68.0569 79.4872 67.8854C80.3419 67.0283 80.8547 65.8283 81.1966 64.4569C81.1966 64.2854 81.1966 64.114 81.1966 63.9426C82.3932 64.4569 83.7607 64.4569 85.1282 64.114C85.2992 64.114 85.4701 63.9426 85.641 63.7712C85.812 63.7712 85.812 63.7712 85.9829 63.9426C88.8889 65.8283 89.5727 70.114 87.1795 72.6855ZM103.932 42.6854H98.6325C98.4616 42.6854 98.2906 42.6854 98.1197 42.6854L91.7949 43.0283L97.4359 46.114C97.6068 46.2854 97.7778 46.2854 97.9487 46.4569L99.4872 47.314C100.684 47.8283 101.709 48.514 102.906 49.0283C103.761 49.5426 104.103 50.0569 103.932 51.0854C103.761 51.9426 103.419 52.4569 102.564 52.7997C102.222 52.9712 101.709 52.9712 100.855 52.6283C97.4359 50.914 94.0171 49.1997 90.4274 47.4854L88.547 46.6283C88.3761 46.6283 88.2051 46.4569 88.0342 46.4569L85.2992 45.2569V51.0854C85.2992 53.6569 85.2992 56.2283 85.2992 58.9712C85.2992 59.1426 85.2992 59.4854 85.2992 59.6569C85.2992 59.8283 85.2992 59.8283 85.2992 59.8283C85.2992 60.1712 85.2992 60.3426 85.1282 60.6855L84.9573 60.8569C84.9573 60.8569 84.9573 60.8569 84.7863 61.0283C84.6154 61.3712 84.2735 61.5426 84.1026 61.714C83.4188 61.5426 82.7351 61.5426 82.0513 61.5426C81.7094 61.3712 81.5385 61.0283 81.3675 60.6855C81.3675 60.514 81.3675 60.514 81.1966 60.3426C81.1966 60.1712 81.1966 60.1712 81.1966 59.9997V59.8283C81.1966 59.8283 81.1966 59.8283 81.1966 59.6569C81.1966 59.4854 81.1966 59.314 81.1966 58.9712V56.914C81.1966 55.0283 81.1966 52.9712 81.1966 51.0854C81.1966 50.5712 81.0257 49.714 80.5128 49.0283C79.8291 48.1712 78.9744 47.314 78.1197 46.4569C74.359 43.0283 68.547 43.1997 65.1282 46.7997C61.5385 50.5712 61.5385 56.0569 64.9573 59.8283C65.4701 60.3426 66.3248 60.8569 67.1795 60.8569C69.4017 60.8569 71.7949 60.8569 74.188 60.8569C74.359 60.8569 74.5299 60.8569 74.7009 60.8569C74.8718 60.8569 74.8718 60.8569 75.0427 60.8569C76.0684 60.8569 77.094 61.3712 77.6068 62.2283L77.7778 62.5712C76.0684 63.5997 75.3846 65.314 75.0427 66.6855C74.8718 66.6855 74.359 66.6855 74.0171 66.6855C70.2564 66.6855 66.3248 66.6855 62.5641 66.6855C61.1966 65.314 59.6581 63.7712 58.2906 62.3997C56.0684 60.1712 54.0171 58.114 51.9658 55.8854C51.2821 55.1997 50.4274 54.6854 49.5727 54.6854V51.0854C49.5727 45.5997 49.5727 40.114 49.5727 34.6283C51.453 34.114 53.6752 33.4283 55.8974 32.7426C56.5812 32.5712 57.265 32.5712 58.1197 32.7426C58.2906 32.7426 58.6325 32.7426 58.8034 32.914C60.8547 33.0854 62.906 33.4283 64.9573 33.5997C68.718 34.114 72.8205 34.6283 76.7522 34.9712C83.2479 35.4854 90.0855 34.2854 96.7521 31.3712L97.7778 30.8569H98.6325H98.8034C100.342 31.3712 100.513 32.2283 100.513 32.7426C100.513 33.9426 99.6581 34.6283 99.1453 34.7997L92.3077 38.0569L98.8034 38.3997C100.342 38.5712 101.88 38.5712 103.419 38.5712H104.957C105.812 38.5712 106.496 38.914 106.838 39.7712C106.838 39.9426 107.009 40.114 107.009 40.2854V40.9712C106.325 42.514 105.983 42.6854 103.932 42.6854Z" fill="#A3C7E2"/>
</g>
<defs>
<clipPath id="clip0">
<rect width="120" height="120" fill="white"/>
</clipPath>
</defs>
</svg>
