<svg width="120" height="120" viewBox="0 0 120 120" fill="none" xmlns="http://www.w3.org/2000/svg">
<path d="M115.2 104.034L85.0286 73.8199C98.9143 53.0474 93.4286 24.8929 72.6857 10.9873C51.9429 -2.91831 23.8286 2.57525 9.94286 23.3478C-3.94286 44.1203 1.54286 72.2748 22.2857 86.1804C37.5429 96.4808 57.4286 96.4808 72.6857 86.1804L102.857 116.395C106.286 119.828 111.771 119.828 115.2 116.395C118.629 112.962 118.629 107.468 115.2 104.034ZM6.17143 48.5838C6.17143 25.7512 24.6857 7.21045 47.4857 7.21045C70.2857 7.21045 88.9714 25.7512 88.9714 48.5838C88.9714 71.4165 70.4571 89.9572 47.4857 89.9572C24.6857 89.9572 6.17143 71.4165 6.17143 48.5838ZM109.029 115.022C107.657 115.022 106.457 114.507 105.6 113.648L76.2857 84.292L83.1429 77.425L112.457 106.781C114.343 108.67 114.343 111.76 112.457 113.648C111.6 114.507 110.4 115.022 109.029 115.022Z" fill="#2A86C9"/>
<path d="M80.3999 40.3433C81.4285 39.8282 81.5999 38.4548 81.4285 37.9398C81.2571 37.4248 77.9999 37.7681 77.3142 38.4548C76.6285 39.1415 76.2856 40.3433 76.2856 40.3433C76.2856 40.3433 79.5428 41.03 80.3999 40.3433ZM75.0856 40.3433C75.0856 40.3433 70.9714 32.9613 69.4285 31.4162C67.8856 29.8711 60.3428 28.6694 48.3428 28.6694C36.3428 28.6694 28.7999 29.8711 27.2571 31.4162C25.7142 32.9613 21.5999 40.3433 21.5999 40.3433C21.5999 40.3433 26.2285 40.6866 48.3428 40.6866C70.4571 40.6866 75.0856 40.3433 75.0856 40.3433ZM65.6571 54.5922C65.6571 54.5922 74.7428 54.4205 77.4856 53.3905C80.2285 52.3604 80.0571 48.7553 80.0571 48.7553C80.0571 48.7553 76.7999 49.6136 72.3428 49.7853C67.8856 49.957 66.5142 53.0471 65.6571 54.5922ZM64.1142 50.3003C64.1142 50.3003 54.6856 51.1587 48.3428 51.1587C41.9999 51.1587 32.5714 50.3003 32.5714 50.3003C32.5714 50.3003 34.9714 57.1673 36.3428 58.1973C37.7142 59.2274 48.3428 59.399 48.3428 59.399C48.3428 59.399 58.9714 59.0557 60.3428 58.1973C61.7142 57.1673 64.1142 50.3003 64.1142 50.3003ZM83.9999 46.3518C83.8285 44.8068 77.8285 41.3733 77.8285 41.3733C77.8285 41.3733 81.7714 45.1501 82.2856 46.0085C82.7999 46.8669 82.7999 54.9355 82.7999 54.9355C82.7999 54.9355 84.1714 47.8969 83.9999 46.3518ZM57.4285 62.8325L67.8856 64.2059V66.0943C67.8856 66.9527 68.5714 67.8111 69.5999 67.8111H79.7142C80.5714 67.8111 81.4285 67.1244 81.4285 66.0943V62.6609H68.0571H57.4285V62.8325ZM18.6856 41.3733C18.6856 41.3733 12.6856 44.8068 12.5142 46.3518C12.3428 47.8969 13.7142 54.9355 13.7142 54.9355C13.7142 54.9355 13.7142 46.8669 14.2285 46.0085C14.7428 45.1501 18.6856 41.3733 18.6856 41.3733ZM15.2571 62.8325V66.266C15.2571 67.1244 15.9428 67.9827 16.9714 67.9827H27.0856C27.9428 67.9827 28.7999 67.296 28.7999 66.266V64.3776L39.2571 63.0042H28.7999H15.2571V62.8325ZM16.1142 40.3433C17.1428 40.8583 20.3999 40.3433 20.3999 40.3433C20.3999 40.3433 19.8856 39.1415 19.3714 38.4548C18.6856 37.7681 15.4285 37.4248 15.2571 37.9398C14.9142 38.6265 15.0856 39.8282 16.1142 40.3433ZM16.6285 48.5836C16.6285 48.5836 16.2856 52.1888 19.1999 53.2188C22.1142 54.2488 31.0285 54.4205 31.0285 54.4205C29.9999 52.8754 28.7999 49.7853 24.3428 49.6136C19.8856 49.442 16.6285 48.5836 16.6285 48.5836Z" fill="#A3C7E2"/>
<path d="M114.171 101.974L84.5143 72.4466C98.2285 52.0174 92.7428 24.5496 72.3428 10.8157C51.9428 -2.91823 24.5142 2.57533 10.9714 23.0045C-2.57146 43.4337 2.74282 70.9015 23.1428 84.6354C38.0571 94.7642 57.6 94.7642 72.6857 84.6354L102.171 114.163C105.429 117.425 110.914 117.425 114.343 114.163C117.429 110.902 117.429 105.408 114.171 101.974ZM7.19996 47.7256C7.19996 25.2363 25.3714 7.03885 47.8285 7.03885C70.2857 7.03885 88.4571 25.2363 88.4571 47.7256C88.4571 70.2148 70.1143 88.4123 47.8285 88.4123C25.3714 88.2406 7.19996 70.2148 7.19996 47.7256ZM108 112.962C106.8 112.962 105.429 112.447 104.571 111.588L75.9428 82.747L82.6285 76.0517L111.429 104.721C113.314 106.61 113.314 109.7 111.429 111.417C110.571 112.447 109.371 112.962 108 112.962Z" fill="#A3C7E2"/>
<path d="M79.2001 39.3131C80.2286 38.7981 80.4001 37.5964 80.0572 37.0813C79.8858 36.5663 76.6286 36.9097 76.1143 37.5964C75.6001 38.2831 75.0858 39.3131 75.0858 39.3131C75.0858 39.3131 78.3429 39.8281 79.2001 39.3131ZM74.0572 39.3131C74.0572 39.3131 70.1143 32.2745 68.5715 30.7294C67.0286 29.1843 59.8286 28.1543 48.1715 28.1543C36.6858 28.1543 29.3143 29.1843 27.7715 30.7294C26.2286 32.2745 22.2858 39.3131 22.2858 39.3131C22.2858 39.3131 26.7429 39.6564 48 39.6564C69.6001 39.4848 74.0572 39.3131 74.0572 39.3131ZM64.9715 52.8753C64.9715 52.8753 73.7143 52.7037 76.4572 51.6736C79.2001 50.6436 78.8572 47.2101 78.8572 47.2101C78.8572 47.2101 75.7715 48.0685 71.4858 48.2401C67.2001 48.4118 65.8286 51.3303 64.9715 52.8753ZM63.4286 48.7552C63.4286 48.7552 54.3429 49.4419 48.1715 49.4419C42 49.4419 32.9143 48.7552 32.9143 48.7552C32.9143 48.7552 35.1429 55.4504 36.5143 56.4805C37.8858 57.5105 48.1715 57.6822 48.1715 57.6822C48.1715 57.6822 58.4572 57.3389 59.8286 56.4805C61.2001 55.4504 63.4286 48.7552 63.4286 48.7552ZM82.6286 44.9783C82.4572 43.4333 76.8 40.1715 76.8 40.1715C76.8 40.1715 80.5715 43.7766 81.0858 44.635C81.6001 45.4934 81.4286 53.2187 81.4286 53.2187C81.4286 53.2187 82.8 46.5234 82.6286 44.9783ZM57.0858 60.944L67.2001 62.3174V64.2058C67.2001 65.0642 67.8858 65.7509 68.7429 65.7509H78.5143C79.3715 65.7509 80.0572 65.0642 80.0572 64.2058V60.944H67.2001H57.0858ZM19.8858 40.3431C19.8858 40.3431 14.2286 43.6049 14.0572 45.15C13.8858 46.6951 15.2572 53.562 15.2572 53.562C15.2572 53.562 15.0858 45.8367 15.6 44.9783C16.1143 43.9483 19.8858 40.3431 19.8858 40.3431ZM16.6286 60.944V64.2058C16.6286 65.0642 17.3143 65.7509 18.1715 65.7509H27.9429C28.8 65.7509 29.4858 65.0642 29.4858 64.2058V62.3174L39.6 60.944H29.4858H16.6286ZM17.3143 39.3131C18.3429 39.8281 21.4286 39.3131 21.4286 39.3131C21.4286 39.3131 20.9143 38.1114 20.4 37.5964C19.8858 36.9097 16.6286 36.5663 16.4572 37.0813C16.2858 37.5964 16.4572 38.7981 17.3143 39.3131ZM17.8286 47.2101C17.8286 47.2101 17.4858 50.8152 20.2286 51.6736C22.9715 52.532 31.7143 52.8753 31.7143 52.8753C30.6858 51.3303 29.4858 48.4118 25.2 48.2401C20.9143 48.0685 17.8286 47.2101 17.8286 47.2101Z" fill="#2A86C9"/>
<path d="M111.771 4.63525H104.4V12.0172H111.771V4.63525Z" fill="#A3C7E2"/>
<path d="M108.171 0.171875H100.8V7.55385H108.171V0.171875Z" fill="#2A86C9"/>
<path d="M79.6692 105.054V112.436H87.0406V105.054H79.6692Z" fill="#A3C7E2"/>
<path d="M75.1735 108.583V115.965H82.5449V108.583H75.1735Z" fill="#2A86C9"/>
<path d="M14.2286 110.558H4.80005V120H14.2286V110.558Z" fill="#A3C7E2"/>
<path d="M9.42857 104.721H0V114.163H9.42857V104.721Z" fill="#2A86C9"/>
<path d="M9.08582 3.60547H3.08582V9.61405H9.08582V3.60547Z" fill="#A3C7E2"/>
<path d="M6 0H0V6.00858H6V0Z" fill="#2A86C9"/>
<path d="M34.0286 101.167H40.0286V95.1589H34.0286V101.167Z" fill="#A3C7E2"/>
<path d="M37.115 104.82H43.115V98.8112H37.115V104.82Z" fill="#2A86C9"/>
<path d="M113.975 73.1569V79.1655H119.975V73.1569H113.975Z" fill="#A3C7E2"/>
<path d="M110.437 76.1384V82.147H116.437V76.1384H110.437Z" fill="#2A86C9"/>
</svg>
