<svg width="120" height="120" viewBox="0 0 120 120" fill="none" xmlns="http://www.w3.org/2000/svg">
<g clip-path="url(#clip0)">
<path d="M16.2393 69.2572H11.1111C8.71795 69.2572 6.66667 71.3143 6.66667 73.7143V78.8572C6.66667 81.2572 8.71795 83.3143 11.1111 83.3143H16.2393C18.6325 83.3143 20.6838 81.2572 20.6838 78.8572V73.7143C20.6838 71.3143 18.8034 69.2572 16.2393 69.2572ZM17.7778 79.0286C17.7778 79.8858 17.094 80.5715 16.2393 80.5715H11.1111C10.2564 80.5715 9.57265 79.8858 9.57265 79.0286V73.8858C9.57265 73.0286 10.2564 72.3429 11.1111 72.3429H16.2393C17.094 72.3429 17.7778 73.0286 17.7778 73.8858V79.0286ZM25.641 55.3715H63.9316V52.6286H25.641V55.3715ZM71.9658 15.7715H4.44444C2.05128 15.7715 0 17.8286 0 20.2286V92.4001C0 94.8 2.05128 96.8572 4.44444 96.8572H46.4957V93.9429H4.44444C3.58974 93.9429 2.90598 93.2572 2.90598 92.4001V20.2286C2.90598 19.3715 3.58974 18.6858 4.44444 18.6858H71.9658C72.8205 18.6858 73.5043 19.3715 73.5043 20.2286V78.8572H76.4103V20.2286C76.2393 17.8286 74.359 15.7715 71.9658 15.7715ZM25.641 33.0858H63.9316V30.3429H25.641V33.0858ZM25.641 34.8001V37.5429H46.1539V34.8001H25.641ZM22.2222 48.3429L19.6581 50.9143C18.8034 49.8858 17.6068 49.2001 16.2393 49.2001H11.1111C8.71795 49.2001 6.66667 51.2572 6.66667 53.6572V58.8C6.66667 61.2001 8.71795 63.2572 11.1111 63.2572H16.2393C18.6325 63.2572 20.6838 61.2001 20.6838 58.8V53.6572C20.6838 53.4858 20.6838 53.4858 20.6838 53.3143L23.9316 50.0572L22.2222 48.3429ZM17.7778 58.8C17.7778 59.6572 17.094 60.3429 16.2393 60.3429H11.1111C10.2564 60.3429 9.57265 59.6572 9.57265 58.8V53.6572C9.57265 52.8001 10.2564 52.1143 11.1111 52.1143H16.2393C16.7521 52.1143 17.265 52.4572 17.6068 52.9715L14.188 56.5715L11.6239 54.0001L9.91453 55.7143L14.188 60.0001L17.7778 56.4001V58.8ZM25.641 57.2572V60.0001H57.265V57.2572H25.641ZM22.2222 28.2858L19.6581 30.8572C18.8034 29.8286 17.6068 29.1429 16.2393 29.1429H11.1111C8.71795 29.1429 6.66667 31.2001 6.66667 33.6001V38.7429C6.66667 41.1429 8.71795 43.2001 11.1111 43.2001H16.2393C18.6325 43.2001 20.6838 41.1429 20.6838 38.7429V33.6001C20.6838 33.4286 20.6838 33.4286 20.6838 33.2572L23.9316 30.0001L22.2222 28.2858ZM17.7778 38.7429C17.7778 39.6001 17.094 40.2858 16.2393 40.2858H11.1111C10.2564 40.2858 9.57265 39.6001 9.57265 38.7429V33.6001C9.57265 32.7429 10.2564 32.0572 11.1111 32.0572H16.2393C16.7521 32.0572 17.265 32.4001 17.6068 32.9143L14.0171 36.5143L11.453 33.9429L9.74359 35.6572L14.0171 39.9429L17.6068 36.3429V38.7429H17.7778ZM25.641 75.4286H61.7094V72.6858H25.641V75.4286Z" fill="#2A86C9"/>
<path d="M116.068 92.5713C117.094 92.057 117.265 90.6855 117.094 90.1712C116.923 89.657 113.675 89.9998 112.992 90.6855C112.308 91.3713 111.966 92.5713 111.966 92.5713C111.966 92.5713 115.214 93.0855 116.068 92.5713ZM110.769 92.3998C110.769 92.3998 106.667 85.0284 105.128 83.4855C103.59 81.9427 96.0684 80.7427 84.1026 80.7427C72.1368 80.7427 64.6154 81.9427 63.077 83.4855C61.5385 85.0284 57.4359 92.3998 57.4359 92.3998C57.4359 92.3998 62.0513 92.7427 84.1026 92.7427C106.154 92.7427 110.769 92.3998 110.769 92.3998ZM101.368 106.628C101.368 106.628 110.427 106.457 113.162 105.428C115.897 104.4 115.727 100.8 115.727 100.8C115.727 100.8 112.479 101.657 108.034 101.828C103.59 102 102.393 105.086 101.368 106.628ZM99.8291 102.343C99.8291 102.343 90.4274 103.2 84.1026 103.2C77.7778 103.2 68.3761 102.343 68.3761 102.343C68.3761 102.343 70.7693 109.2 72.1368 110.228C73.5043 111.257 84.1026 111.428 84.1026 111.428C84.1026 111.428 94.7009 111.086 96.0684 110.228C97.436 109.371 99.8291 102.343 99.8291 102.343ZM119.658 98.5713C119.487 97.0284 113.504 93.5998 113.504 93.5998C113.504 93.5998 117.436 97.3713 117.949 98.2284C118.462 99.0855 118.462 107.143 118.462 107.143C118.462 107.143 119.829 100.114 119.658 98.5713ZM93.1624 115.028L103.59 116.4V118.286C103.59 119.143 104.274 120 105.299 120H115.385C116.239 120 117.094 119.314 117.094 118.286V114.857H103.761H93.1624V115.028ZM54.53 93.5998C54.53 93.5998 48.5471 97.0284 48.3761 98.5713C48.2052 100.114 49.5727 107.143 49.5727 107.143C49.5727 107.143 49.4018 99.0855 50.0855 98.2284C50.5983 97.3713 54.53 93.5998 54.53 93.5998ZM51.1112 115.028V118.457C51.1112 119.314 51.7949 120.171 52.8206 120.171H62.906C63.7607 120.171 64.6154 119.486 64.6154 118.457V116.571L75.0428 115.2H64.6154H51.1112V115.028ZM51.9659 92.5713C52.9915 93.0855 56.2394 92.5713 56.2394 92.5713C56.2394 92.5713 55.7265 91.3713 55.2137 90.6855C54.53 89.9998 51.2821 89.657 51.1112 90.1712C50.7693 90.6855 50.9402 91.8855 51.9659 92.5713ZM52.4787 100.8C52.4787 100.8 52.1368 104.4 55.0428 105.428C57.7778 106.457 66.8377 106.628 66.8377 106.628C65.812 105.086 64.6154 102 60.171 101.828C55.7265 101.657 52.4787 100.8 52.4787 100.8Z" fill="#A3C7E2"/>
<path d="M114.872 91.3714C115.897 90.8571 116.068 89.6571 115.726 89.1428C115.555 88.6285 112.308 88.9714 111.795 89.6571C111.282 90.3428 110.769 91.3714 110.769 91.3714C110.769 91.3714 114.017 92.0571 114.872 91.3714ZM109.744 91.3714C109.744 91.3714 105.812 84.3428 104.273 82.7999C102.735 81.2571 95.5555 80.2285 83.9315 80.2285C72.4785 80.2285 65.1281 81.2571 63.5897 82.7999C62.0512 84.3428 58.1196 91.3714 58.1196 91.3714C58.1196 91.3714 62.564 91.7142 83.7606 91.7142C105.299 91.7142 109.744 91.3714 109.744 91.3714ZM100.684 105.086C100.684 105.086 109.402 104.914 112.137 103.886C114.872 102.857 114.53 99.4285 114.53 99.4285C114.53 99.4285 111.453 100.286 107.179 100.457C102.735 100.629 101.538 103.543 100.684 105.086ZM99.1452 100.971C99.1452 100.971 90.0854 101.657 83.9315 101.657C77.7777 101.657 68.7179 100.971 68.7179 100.971C68.7179 100.971 70.9401 107.657 72.3076 108.686C73.6751 109.714 83.9315 109.886 83.9315 109.886C83.9315 109.886 94.188 109.543 95.5555 108.686C96.923 107.657 99.1452 100.971 99.1452 100.971ZM118.291 97.1999C118.12 95.6571 112.479 92.3999 112.479 92.3999C112.479 92.3999 116.239 95.9999 116.752 96.8571C117.265 97.7142 117.094 105.429 117.094 105.429C117.094 105.429 118.461 98.7428 118.291 97.1999ZM92.8204 113.143L102.906 114.514V116.4C102.906 117.257 103.59 117.943 104.444 117.943H114.188C115.043 117.943 115.726 117.257 115.726 116.4V113.143H102.906H92.8204ZM55.7264 92.3999C55.7264 92.3999 50.0854 95.6571 49.9144 97.1999C49.7435 98.7428 51.111 105.6 51.111 105.6C51.111 105.6 50.9401 97.8857 51.4529 97.0285C51.9657 95.9999 55.7264 92.3999 55.7264 92.3999ZM52.4785 113.143V116.4C52.4785 117.257 53.1623 117.943 54.017 117.943H63.7606C64.6153 117.943 65.2991 117.257 65.2991 116.4V114.514L75.3845 113.143H65.2991H52.4785ZM53.1623 91.3714C54.1879 91.8857 57.2649 91.3714 57.2649 91.3714C57.2649 91.3714 56.7521 90.1714 56.2392 89.6571C55.7264 88.9714 52.4785 88.6285 52.3076 89.1428C52.1367 89.6571 52.3076 90.8571 53.1623 91.3714ZM53.6751 99.2571C53.6751 99.2571 53.3332 102.857 56.0683 103.714C58.8033 104.571 67.5213 104.914 67.5213 104.914C66.4956 103.371 65.2991 100.457 61.0256 100.286C56.7521 100.114 53.6751 99.2571 53.6751 99.2571Z" fill="#2A86C9"/>
<path d="M112.82 4.45703H105.47V11.8285H112.82V4.45703Z" fill="#A3C7E2"/>
<path d="M109.231 0H101.88V7.37143H109.231V0Z" fill="#2A86C9"/>
<path d="M10.7693 112.8H3.58984V120H10.7693V112.8Z" fill="#A3C7E2"/>
<path d="M7.17949 108.343H0V115.543H7.17949V108.343Z" fill="#2A86C9"/>
<path d="M13.5041 4.7998H7.52124V10.7998H13.5041V4.7998Z" fill="#A3C7E2"/>
<path d="M10.4274 1.2002H4.44446V7.20019H10.4274V1.2002Z" fill="#2A86C9"/>
<path d="M28.9838 109.207H33.941V104.236H28.9838V109.207Z" fill="#A3C7E2"/>
<path d="M31.406 112.16H36.3633V107.189H31.406V112.16Z" fill="#2A86C9"/>
<path d="M96.5813 39.0854H90.5984V45.0854H96.5813V39.0854Z" fill="#A3C7E2"/>
<path d="M93.5042 35.4858H87.5212V41.4858H93.5042V35.4858Z" fill="#2A86C9"/>
<path d="M113.919 58.7324V64.7324H119.902V58.7324H113.919Z" fill="#A3C7E2"/>
<path d="M110.391 61.8809V67.8809H116.374V61.8809H110.391Z" fill="#2A86C9"/>
<path d="M16.7522 68.7428H11.624C9.23081 68.7428 7.35046 70.6285 7.35046 73.0285V78.1714C7.35046 80.5714 9.23081 82.4571 11.624 82.4571H16.7522C19.1453 82.4571 21.0257 80.5714 21.0257 78.1714V73.0285C21.0257 70.6285 19.1453 68.7428 16.7522 68.7428ZM18.1197 78.1714C18.1197 79.0285 17.4359 79.7143 16.5812 79.7143H11.453C10.5983 79.7143 9.91457 79.0285 9.91457 78.1714V73.0285C9.91457 72.1714 10.5983 71.4857 11.453 71.4857H16.5812C17.4359 71.4857 18.1197 72.1714 18.1197 73.0285V78.1714ZM25.9829 55.0285H63.4188V52.4571H25.9829V55.0285ZM71.2821 16.1143H5.12824C2.73508 16.1143 0.854736 18 0.854736 20.4V91.0285C0.854736 93.4285 2.73508 95.3143 5.12824 95.3143H46.1539V92.4H5.12824C4.27354 92.4 3.58978 91.7143 3.58978 90.8571V20.5714C3.58978 19.7143 4.27354 19.0285 5.12824 19.0285H71.2821C72.1368 19.0285 72.8206 19.7143 72.8206 20.5714V78H75.7265V20.5714C75.5556 18.1714 73.6753 16.1143 71.2821 16.1143ZM25.9829 33.0857H63.4188V30.5143H25.9829V33.0857ZM25.9829 34.9714V37.5428H45.9829V34.9714H25.9829ZM22.5641 48.1714L20.171 50.5714C19.3163 49.5428 18.1197 49.0285 16.7522 49.0285H11.624C9.23081 49.0285 7.35046 50.9143 7.35046 53.3143V58.4571C7.35046 60.8571 9.23081 62.7428 11.624 62.7428H16.7522C19.1453 62.7428 21.0257 60.8571 21.0257 58.4571V53.3143C21.0257 53.1428 21.0257 53.1428 21.0257 52.9714L24.2735 49.7143L22.5641 48.1714ZM18.1197 58.4571C18.1197 59.3143 17.4359 60 16.5812 60H11.453C10.5983 60 9.91457 59.3143 9.91457 58.4571V53.3143C9.91457 52.4571 10.5983 51.7714 11.453 51.7714H16.5812C17.0941 51.7714 17.6069 52.1143 17.9488 52.6285L14.53 56.0571L11.9658 53.4857L10.2564 55.2L14.53 59.3143L18.1197 55.7143V58.4571ZM25.9829 56.7428V59.3143H56.9231V56.7428H25.9829ZM22.5641 28.4571L20 30.8571C19.1453 29.8285 17.9488 29.3143 16.5812 29.3143H11.453C9.05987 29.3143 7.17952 31.2 7.17952 33.6V38.7428C7.17952 41.1428 9.05987 43.0285 11.453 43.0285H16.5812C18.9744 43.0285 20.8547 41.1428 20.8547 38.7428V33.6C20.8547 33.4285 20.8547 33.4285 20.8547 33.2571L24.1026 30L22.5641 28.4571ZM18.1197 38.7428C18.1197 39.6 17.4359 40.2857 16.5812 40.2857H11.453C10.5983 40.2857 9.91457 39.6 9.91457 38.7428V33.6C9.91457 32.7428 10.5983 32.0571 11.453 32.0571H16.5812C17.0941 32.0571 17.6069 32.4 17.9488 32.9143L14.53 36.3428L11.9658 33.7714L10.2564 35.4857L14.53 39.6L18.1197 36V38.7428ZM25.9829 74.7428H61.3676V72H25.9829V74.7428Z" fill="#A3C7E2"/>
</g>
<defs>
<clipPath id="clip0">
<rect width="120" height="120" fill="white"/>
</clipPath>
</defs>
</svg>
