<svg width="120" height="120" viewBox="0 0 120 120" fill="none" xmlns="http://www.w3.org/2000/svg">
<g clip-path="url(#clip0)">
<path d="M95.4857 36.5663H81.0857L86.2285 31.4161C86.9143 30.7294 86.9143 29.356 86.2285 28.6693C85.5428 27.9826 84.1714 27.9826 83.4857 28.6693L75.0857 37.253C74.7428 37.5964 74.5714 38.1114 74.5714 38.6264C74.5714 39.1414 74.7428 39.6564 75.0857 39.9998L83.4857 48.5835C84.1714 49.2702 85.5428 49.2702 86.2285 48.5835C86.9143 47.8968 86.9143 46.5234 86.2285 45.8367L85.8857 45.4934L85.3714 44.9783L80.9143 40.5148H93.7714V75.8796H97.5428V38.6264C97.5428 37.4247 96.6857 36.5663 95.4857 36.5663ZM79.8857 97.6822L71.4857 89.0985C70.8 88.4118 69.4285 88.4118 68.7428 89.0985C68.0571 89.7852 68.0571 91.1586 68.7428 91.8453L69.0857 92.1886L69.6 92.7036L74.0571 97.1672H36.8571V64.2058H33.0857V99.2272C33.0857 100.257 33.9428 101.116 34.9714 101.116H73.7143L68.5714 106.266C67.8857 106.953 67.8857 108.326 68.5714 109.013C69.2571 109.699 70.6285 109.699 71.3143 109.013L79.7143 100.429C80.0571 100.086 80.2285 99.5706 80.2285 99.0556C80.5714 98.5406 80.4 98.0255 79.8857 97.6822Z" fill="#2A86C9"/>
<path d="M82.8 103.691H87.9429C88.2858 106.266 89.1429 108.67 93.0858 109.185V99.7427C86.9143 98.7126 83.6572 96.4809 83.6572 91.159C83.6572 86.5238 87.4286 83.0903 93.0858 82.747V80.1719H96.0001V82.747C101.314 83.262 104.743 86.0088 105.257 91.159H100.286C99.7715 88.5839 98.5715 87.2105 96.0001 86.6955V95.2792C102.171 96.3092 105.771 98.3693 105.771 104.035C105.771 108.841 102.171 112.79 96.0001 113.305V115.193H93.2572V113.305C86.0572 112.962 83.3143 108.841 82.8 103.691ZM93.2572 94.9358V86.6955C90.3429 87.0388 88.8001 88.5839 88.8001 90.8157C88.8001 93.0474 89.4858 94.2491 93.2572 94.9358ZM96.0001 100.258V109.185C98.9143 108.841 100.629 107.125 100.629 104.55C100.629 102.318 99.6001 101.116 96.0001 100.258Z" fill="#A3C7E2"/>
<path d="M67.8859 30.0425C68.9145 29.5275 69.0859 28.1541 68.9145 27.639C68.743 27.124 65.4859 27.4674 64.8002 28.1541C64.1145 28.8408 63.7716 30.0425 63.7716 30.0425C63.7716 30.0425 66.8573 30.5575 67.8859 30.0425ZM62.4002 30.0425C62.4002 30.0425 58.2859 22.6605 56.743 21.1154C55.2002 19.5704 47.6573 18.3687 35.6573 18.3687C23.6573 18.3687 16.1145 19.5704 14.5716 21.1154C13.0288 22.6605 8.91447 30.0425 8.91447 30.0425C8.91447 30.0425 13.543 30.3858 35.6573 30.3858C57.943 30.3858 62.4002 30.0425 62.4002 30.0425ZM52.9716 44.1197C52.9716 44.1197 62.0573 43.9481 64.8002 42.918C67.543 41.888 67.3716 38.2828 67.3716 38.2828C67.3716 38.2828 64.1145 39.1412 59.6573 39.3129C55.2002 39.6562 54.0002 42.5747 52.9716 44.1197ZM51.4288 39.9996C51.4288 39.9996 42.0002 40.8579 35.6573 40.8579C29.3145 40.8579 19.8859 39.9996 19.8859 39.9996C19.8859 39.9996 22.2859 46.8665 23.6573 47.8966C25.0288 48.9266 35.6573 49.0983 35.6573 49.0983C35.6573 49.0983 46.2859 48.7549 47.6573 47.8966C49.2002 46.8665 51.4288 39.9996 51.4288 39.9996ZM71.3145 36.0511C71.143 34.506 65.143 31.0725 65.143 31.0725C65.143 31.0725 69.0859 34.8493 69.6002 35.7077C70.1145 36.5661 70.1145 44.6347 70.1145 44.6347C70.1145 44.6347 71.4859 37.5961 71.3145 36.0511ZM44.743 52.5317L55.2002 53.9051V55.7935C55.2002 56.6519 55.8859 57.5103 56.9145 57.5103H67.0288C67.8859 57.5103 68.743 56.8236 68.743 55.7935V52.3601H55.3716H44.743V52.5317ZM6.17161 31.0725C6.17161 31.0725 0.17161 34.506 0.000181024 36.0511C-0.171248 37.5961 1.20018 44.6347 1.20018 44.6347C1.20018 44.6347 1.02875 36.5661 1.71447 35.7077C2.22875 34.8493 6.17161 31.0725 6.17161 31.0725ZM2.74304 52.5317V55.9652C2.74304 56.8236 3.42875 57.682 4.45732 57.682H14.5716C15.4288 57.682 16.2859 56.9953 16.2859 55.9652V54.0768L26.743 52.7034H16.1145H2.74304V52.5317ZM3.60018 30.0425C4.62875 30.5575 7.88589 30.0425 7.88589 30.0425C7.88589 30.0425 7.37161 28.8408 6.85732 28.1541C6.17161 27.4674 2.91447 27.124 2.74304 27.639C2.40018 28.3257 2.57161 29.5275 3.60018 30.0425ZM3.94304 38.2828C3.94304 38.2828 3.60018 41.888 6.51447 42.918C9.25732 43.9481 18.343 44.1197 18.343 44.1197C17.3145 42.5747 16.1145 39.4845 11.6573 39.3129C7.20018 39.1412 3.94304 38.2828 3.94304 38.2828Z" fill="#A3C7E2"/>
<path d="M66.6858 29.0126C67.7143 28.4976 67.8858 27.2959 67.5429 26.7808C67.3715 26.2658 64.1143 26.6092 63.6 27.2959C63.0858 27.9826 62.5715 29.0126 62.5715 29.0126C62.5715 29.0126 65.6572 29.5276 66.6858 29.0126ZM61.3715 28.8409C61.3715 28.8409 57.4286 21.8023 55.8858 20.2572C54.3429 18.7122 47.1429 17.6821 35.4858 17.6821C24 17.6821 16.6286 18.7122 15.0858 20.2572C13.5429 21.8023 9.60005 28.8409 9.60005 28.8409C9.60005 28.8409 14.0572 29.1843 35.3143 29.1843C57.0858 29.1843 61.3715 28.8409 61.3715 28.8409ZM52.2858 42.5748C52.2858 42.5748 61.0286 42.4032 63.7715 41.3731C66.5143 40.3431 66.1715 36.9096 66.1715 36.9096C66.1715 36.9096 63.0858 37.768 58.8 37.9396C54.5143 38.1113 53.3143 41.0298 52.2858 42.5748ZM50.9143 38.4547C50.9143 38.4547 41.8286 39.1414 35.6572 39.1414C29.4858 39.1414 20.4 38.4547 20.4 38.4547C20.4 38.4547 22.6286 45.1499 24 46.18C25.3715 47.21 35.6572 47.3817 35.6572 47.3817C35.6572 47.3817 45.9429 47.0383 47.3143 46.18C48.6858 45.1499 50.9143 38.4547 50.9143 38.4547ZM69.9429 34.6778C69.7715 33.1328 64.1143 29.871 64.1143 29.871C64.1143 29.871 67.8858 33.4761 68.4 34.3345C68.9143 35.1929 68.7429 42.9182 68.7429 42.9182C68.7429 42.9182 70.1143 36.2229 69.9429 34.6778ZM44.4 50.6435L54.5143 52.0169V53.9053C54.5143 54.7637 55.2 55.4504 56.0572 55.4504H65.8286C66.6858 55.4504 67.3715 54.7637 67.3715 53.9053V50.6435H54.5143H44.4ZM7.37148 29.871C7.37148 29.871 1.71433 33.1328 1.54291 34.6778C1.37148 36.2229 2.74291 43.0899 2.74291 43.0899C2.74291 43.0899 2.57148 35.3645 3.08576 34.5062C3.42862 33.6478 7.37148 29.871 7.37148 29.871ZM3.94291 50.6435V53.9053C3.94291 54.7637 4.62862 55.4504 5.48576 55.4504H15.2572C16.1143 55.4504 16.8 54.7637 16.8 53.9053V52.0169L26.9143 50.6435H16.8H3.94291ZM4.80005 29.0126C5.82862 29.5276 8.91433 29.0126 8.91433 29.0126C8.91433 29.0126 8.40005 27.8109 7.88576 27.2959C7.37148 26.6092 4.11433 26.2658 3.94291 26.7808C3.60005 27.2959 3.77148 28.3259 4.80005 29.0126ZM5.31433 36.9096C5.31433 36.9096 4.97148 40.5147 7.71433 41.3731C10.4572 42.2315 19.2 42.5748 19.2 42.5748C18.1715 41.0298 16.9715 38.1113 12.6858 37.9396C8.40005 37.5963 5.31433 36.9096 5.31433 36.9096Z" fill="#2A86C9"/>
<path d="M98.057 4.63525H90.6855V12.0172H98.057V4.63525Z" fill="#A3C7E2"/>
<path d="M94.2857 0.171875H86.9143V7.55385H94.2857V0.171875Z" fill="#2A86C9"/>
<path d="M14.2286 110.558H4.80005V120H14.2286V110.558Z" fill="#A3C7E2"/>
<path d="M9.42857 104.721H0V114.163H9.42857V104.721Z" fill="#2A86C9"/>
<path d="M9.08569 3.60498H3.08569V9.61356H9.08569V3.60498Z" fill="#A3C7E2"/>
<path d="M6 0H0V6.00858H6V0Z" fill="#2A86C9"/>
<path d="M47.0549 77.2783H53.0549V71.2697H47.0549V77.2783Z" fill="#A3C7E2"/>
<path d="M50.1414 80.9307H56.1414V74.9221H50.1414V80.9307Z" fill="#2A86C9"/>
<path d="M114.857 49.4419H108.857V55.4505H114.857V49.4419Z" fill="#A3C7E2"/>
<path d="M111.943 45.8369H105.943V51.8455H111.943V45.8369Z" fill="#2A86C9"/>
<path d="M114.036 111.036V117.044H120.036V111.036H114.036Z" fill="#A3C7E2"/>
<path d="M110.327 114.017V120.026H116.327V114.017H110.327Z" fill="#2A86C9"/>
<path d="M83.4856 102.489H88.457C88.7999 104.893 89.657 107.296 93.4285 107.64V98.7126C87.5999 97.6826 84.5142 95.6225 84.5142 90.644C84.5142 86.1805 87.9427 82.9187 93.4285 82.5753V80.1719H95.9999V82.5753C101.143 83.0903 104.228 85.6654 104.743 90.644H100.114C99.5999 88.2405 98.3999 86.8672 95.9999 86.5238V94.5925C101.828 95.6225 105.257 97.5109 105.257 102.833C105.257 107.468 101.828 111.073 95.9999 111.588V113.305H93.4285V111.588C86.5713 111.073 83.8285 107.125 83.4856 102.489ZM93.257 94.0774V86.3521C90.5142 86.6955 88.9713 88.2405 88.9713 90.129C88.9713 92.3607 89.8285 93.3908 93.257 94.0774ZM95.8285 99.2277V107.64C98.5713 107.296 100.286 105.751 100.286 103.348C100.286 101.116 99.257 99.9144 95.8285 99.2277Z" fill="#2A86C9"/>
<path d="M94.9715 36.5665H80.743L85.7144 31.588C86.4001 30.9013 86.4001 29.5279 85.7144 28.8412C85.0287 28.1545 83.6572 28.1545 82.9715 28.8412L74.5715 37.2532C74.2287 37.5966 74.0572 38.1116 74.0572 38.6266C74.0572 39.1416 74.2287 39.6566 74.5715 40L82.9715 48.412C83.6572 49.0987 85.0287 49.0987 85.7144 48.412C86.4001 47.7253 86.4001 46.3519 85.7144 45.6652L85.3715 45.3219L85.0287 44.6352L80.5715 40.3433H93.0858V75.0215H96.8572V38.4549C96.8572 37.4249 96.0001 36.5665 94.9715 36.5665ZM79.7144 96.309L71.3144 87.897C70.6287 87.2103 69.2572 87.2103 68.5715 87.897C67.8858 88.5837 67.8858 89.9571 68.5715 90.6438L68.9144 90.9871L69.4287 91.5021L73.7144 95.794H37.3715V63.5193H33.6001V97.8541C33.6001 98.8841 34.4572 99.7425 35.4858 99.7425H73.543L68.5715 104.721C67.8858 105.408 67.8858 106.781 68.5715 107.468C69.2572 108.154 70.6287 108.154 71.3144 107.468L79.7144 99.0558C80.0572 98.7124 80.2287 98.1974 80.2287 97.6824C80.2287 97.339 80.0572 96.824 79.7144 96.309Z" fill="#A3C7E2"/>
</g>
<defs>
<clipPath id="clip0">
<rect width="120" height="120" fill="white"/>
</clipPath>
</defs>
</svg>
