<?xml version="1.0" encoding="utf-8"?>
<!-- Generator: Adobe Illustrator 21.0.0, SVG Export Plug-In . SVG Version: 6.00 Build 0)  -->
<svg version="1.1" id="Слой_1" xmlns="http://www.w3.org/2000/svg" xmlns:xlink="http://www.w3.org/1999/xlink" x="0px" y="0px"
	 viewBox="0 0 26 26" style="enable-background:new 0 0 26 26;" xml:space="preserve">
<style type="text/css">
	.st0{fill:#2A86C9;}
</style>
<path class="st0" d="M13,0C5.8,0,0,5.8,0,13c0,7.2,5.8,13,13,13c7.2,0,13-5.8,13-13C26,5.8,20.2,0,13,0z M13,25C6.4,25,1,19.6,1,13
	C1,6.4,6.4,1,13,1c6.6,0,12,5.4,12,12C25,19.6,19.6,25,13,25z M15.4,7.2c-0.8-0.4-1.6-0.7-2.4-0.7c-0.9,0-1.7,0.2-2.4,0.7
	c-0.8,0.5-1.3,1-1.8,1.8c-0.5,0.8-0.7,1.6-0.7,2.4c0,0.6,0.1,1,0.2,1.4c0.1,0.4,0.4,0.9,0.8,1.5c0.3,0.4,0.8,1.2,1.7,2.5
	c0.7,1,1.2,1.8,1.7,2.4c0.1,0.2,0.3,0.3,0.5,0.3c0.2,0,0.4-0.1,0.5-0.3l1.7-2.4c0.8-1.2,1.4-2,1.7-2.5c0.4-0.6,0.6-1.1,0.8-1.5
	c0.1-0.4,0.2-0.9,0.2-1.4c0-0.9-0.2-1.7-0.7-2.4C16.8,8.2,16.2,7.6,15.4,7.2z M14.4,12.8c-0.4,0.4-0.9,0.6-1.4,0.6s-1-0.2-1.4-0.6
	S11,11.9,11,11.4s0.2-1,0.6-1.4s0.9-0.6,1.4-0.6s1,0.2,1.4,0.6s0.6,0.9,0.6,1.4S14.8,12.4,14.4,12.8z"/>
</svg>
