<svg width="8" height="11" viewBox="0 0 8 11" fill="none" xmlns="http://www.w3.org/2000/svg">
<path d="M3.60938 10.0547C3.6875 10.1914 3.82422 10.25 4 10.25C4.15625 10.25 4.29297 10.1914 4.39062 10.0547L5.69922 8.17969C6.34375 7.24219 6.77344 6.61719 6.98828 6.28516C7.28125 5.81641 7.47656 5.42578 7.59375 5.11328C7.69141 4.80078 7.75 4.42969 7.75 4C7.75 3.33594 7.57422 2.71094 7.24219 2.125C6.89062 1.55859 6.44141 1.10938 5.875 0.757812C5.28906 0.425781 4.66406 0.25 4 0.25C3.31641 0.25 2.69141 0.425781 2.125 0.757812C1.53906 1.10938 1.08984 1.55859 0.757812 2.125C0.40625 2.71094 0.25 3.33594 0.25 4C0.25 4.42969 0.289062 4.80078 0.40625 5.11328C0.503906 5.42578 0.699219 5.81641 1.01172 6.28516C1.20703 6.61719 1.63672 7.24219 2.30078 8.17969C2.82812 8.94141 3.25781 9.56641 3.60938 10.0547ZM4 5.5625C3.57031 5.5625 3.19922 5.42578 2.88672 5.11328C2.57422 4.80078 2.4375 4.42969 2.4375 4C2.4375 3.57031 2.57422 3.21875 2.88672 2.90625C3.19922 2.59375 3.57031 2.4375 4 2.4375C4.42969 2.4375 4.78125 2.59375 5.09375 2.90625C5.40625 3.21875 5.5625 3.57031 5.5625 4C5.5625 4.42969 5.40625 4.80078 5.09375 5.11328C4.78125 5.42578 4.42969 5.5625 4 5.5625Z" fill="#2A86C9"/>
</svg>
