<svg width="11" height="11" viewBox="0 0 11 11" fill="none" xmlns="http://www.w3.org/2000/svg">
<path d="M10.129 0.738131C10.2462 0.757662 10.3243 0.816256 10.4024 0.894381C10.461 0.992037 10.5001 1.08969 10.5001 1.18735C10.5001 2.82797 10.0899 4.35141 9.26959 5.75766C8.44928 7.12485 7.37506 8.2186 6.00787 9.01938C4.60162 9.83969 3.07818 10.2498 1.43756 10.2498C1.32037 10.2498 1.22272 10.2303 1.14459 10.1522C1.04693 10.0936 0.98834 9.99594 0.98834 9.87876L0.51959 7.84751C0.480528 7.74985 0.500059 7.65219 0.558653 7.53501C0.597715 7.43735 0.67584 7.35922 0.793028 7.32016L2.98053 6.38266C3.05865 6.3436 3.15631 6.3436 3.2735 6.36313C3.37115 6.38266 3.44928 6.44126 3.5274 6.51938L4.48443 7.69126C5.24615 7.33969 5.92975 6.87094 6.51568 6.26547C7.10162 5.67954 7.5899 4.99594 7.94147 4.23422L6.76959 3.25766C6.69147 3.19907 6.63287 3.12094 6.61334 3.02329C6.57428 2.92563 6.59381 2.82797 6.63287 2.71079L7.57037 0.523287C7.60943 0.445162 7.66803 0.367037 7.78522 0.308443C7.88287 0.269381 7.98053 0.24985 8.09772 0.269381L10.129 0.738131Z" fill="#2A86C9"/>
</svg>
