<?xml version="1.0" encoding="utf-8"?>
<!-- Generator: Adobe Illustrator 21.0.0, SVG Export Plug-In . SVG Version: 6.00 Build 0)  -->
<svg version="1.1" id="Слой_1" xmlns="http://www.w3.org/2000/svg" xmlns:xlink="http://www.w3.org/1999/xlink" x="0px" y="0px"
	 viewBox="0 0 26 26" style="enable-background:new 0 0 26 26;" xml:space="preserve">
<style type="text/css">
	.st0{fill:#2A86C9;}
</style>
<path class="st0" d="M13,0C5.8,0,0,5.8,0,13c0,7.2,5.8,13,13,13c7.2,0,13-5.8,13-13C26,5.8,20.2,0,13,0z M13,25C6.4,25,1,19.6,1,13
	C1,6.4,6.4,1,13,1c6.6,0,12,5.4,12,12C25,19.6,19.6,25,13,25z M18.5,7.3l-2.6-0.6c-0.2,0-0.3,0-0.4,0.1c-0.2,0.1-0.2,0.2-0.3,0.3
	L14,9.8c-0.1,0.2-0.1,0.3,0,0.4c0,0.1,0.1,0.2,0.2,0.3l1.5,1.3c-0.5,1-1.1,1.9-1.9,2.6c-0.8,0.8-1.7,1.4-2.6,1.9l-1.2-1.5
	c-0.1-0.1-0.2-0.2-0.3-0.2c-0.2,0-0.3,0-0.4,0l-2.8,1.2c-0.2,0.1-0.3,0.2-0.3,0.3C6,16.2,6,16.4,6,16.5l0.6,2.6
	c0,0.2,0.1,0.3,0.2,0.4c0.1,0.1,0.2,0.1,0.4,0.1c2.1,0,4.1-0.5,5.9-1.6c1.8-1,3.2-2.5,4.2-4.2C18.5,12,19,10,19,7.8
	c0-0.1-0.1-0.3-0.1-0.4C18.8,7.4,18.7,7.3,18.5,7.3z"/>
</svg>
