<?xml version="1.0" encoding="utf-8"?>
<!-- Generator: Adobe Illustrator 21.0.0, SVG Export Plug-In . SVG Version: 6.00 Build 0)  -->
<svg version="1.1" id="Слой_1" xmlns="http://www.w3.org/2000/svg" xmlns:xlink="http://www.w3.org/1999/xlink" x="0px" y="0px"
	 viewBox="0 0 13 13" style="enable-background:new 0 0 13 13;" xml:space="preserve">
<path d="M12.8,11.2c0.1,0.1,0.2,0.3,0.2,0.4c0,0.2-0.1,0.3-0.2,0.4l-0.7,0.7C12,12.9,11.8,13,11.7,13c-0.2,0-0.3-0.1-0.4-0.2
	l-2.5-2.5C8.6,10.2,8.5,10,8.5,9.9V9.4c-1,0.8-2,1.1-3.3,1.1c-1,0-1.9-0.2-2.7-0.7C1.8,9.4,1.2,8.8,0.7,7.9C0.2,7.1,0,6.2,0,5.3
	s0.2-1.8,0.7-2.6c0.5-0.8,1.1-1.4,1.9-1.9C3.4,0.3,4.3,0,5.3,0s1.8,0.3,2.6,0.7c0.8,0.5,1.4,1.1,1.9,1.9c0.5,0.8,0.7,1.7,0.7,2.6
	c0,1.2-0.4,2.3-1.1,3.3h0.4c0.2,0,0.3,0.1,0.4,0.2L12.8,11.2z M5.3,8.5c0.6,0,1.1-0.1,1.6-0.4c0.5-0.3,0.9-0.7,1.2-1.2
	c0.3-0.5,0.4-1,0.4-1.7c0-0.6-0.2-1.1-0.4-1.6C7.8,3.1,7.4,2.8,6.9,2.5C6.4,2.2,5.9,2,5.3,2C4.7,2,4.1,2.2,3.6,2.5
	C3.1,2.8,2.7,3.1,2.5,3.7C2.2,4.2,2,4.7,2,5.3c0,0.6,0.1,1.1,0.4,1.7c0.3,0.5,0.7,0.9,1.2,1.2C4.1,8.4,4.7,8.5,5.3,8.5z"/>
</svg>
