<?xml version="1.0" encoding="utf-8"?>
<!-- Generator: Adobe Illustrator 21.0.0, SVG Export Plug-In . SVG Version: 6.00 Build 0)  -->
<svg version="1.1" id="Слой_1" xmlns="http://www.w3.org/2000/svg" xmlns:xlink="http://www.w3.org/1999/xlink" x="0px" y="0px"
	 viewBox="0 0 13.9 9.8" style="enable-background:new 0 0 13.9 9.8;" xml:space="preserve">
<style type="text/css">
	.st0{fill:#FFFFFF;}
</style>
<path class="st0" d="M13.6,1.5c0.1,0.5,0.2,1.2,0.3,2.1l0,1.3l0,1.3c-0.1,1-0.2,1.7-0.3,2.1c-0.1,0.3-0.3,0.6-0.5,0.8
	c-0.2,0.2-0.5,0.4-0.8,0.5c-0.5,0.1-1.5,0.2-3.1,0.3l-2.3,0l-2.3,0C3,9.7,2,9.6,1.5,9.5C1.2,9.4,0.9,9.2,0.7,9
	C0.5,8.8,0.4,8.6,0.3,8.3C0.2,7.8,0.1,7.1,0,6.1l0-1.3c0-0.4,0-0.8,0-1.3C0.1,2.7,0.2,2,0.3,1.5C0.4,1.2,0.5,1,0.7,0.7
	c0.2-0.2,0.5-0.4,0.8-0.5C2,0.2,3,0.1,4.6,0l2.3,0l2.3,0c1.6,0.1,2.6,0.2,3.1,0.3c0.3,0.1,0.6,0.3,0.8,0.5C13.3,1,13.5,1.2,13.6,1.5
	z M5.5,7l3.6-2.1L5.5,2.8V7z"/>
</svg>
