<svg width="20" height="20" viewBox="0 0 20 20" fill="none" xmlns="http://www.w3.org/2000/svg">
<g clip-path="url(#clip0)">
<path d="M10.295 17.332H2.23839C1.00315 17.332 0 18.332 0 19.5547C0 19.8008 0.200629 20 0.448466 20H12.085C12.3328 20 12.5334 19.8008 12.5334 19.5547C12.5334 18.332 11.5303 17.332 10.295 17.332ZM0.971676 19.1094C1.15657 18.5938 1.65224 18.2188 2.23839 18.2188H10.295C10.8773 18.2188 11.3769 18.5898 11.5618 19.1094H0.971676ZM19.8702 17.5703L10.6884 8.45703L12.4272 6.73047L12.7419 7.04297C12.8285 7.12891 12.9426 7.17188 13.0566 7.17188C13.1707 7.17188 13.2848 7.12891 13.3714 7.04297L14.6381 5.78516C14.7207 5.70313 14.7679 5.58984 14.7679 5.47266C14.7679 5.35547 14.7207 5.24219 14.6381 5.16016L9.58301 0.128906C9.40991 -0.0429687 9.12667 -0.0429687 8.94965 0.128906L7.68293 1.38672C7.60031 1.46875 7.55311 1.58203 7.55311 1.69922C7.55311 1.81641 7.60031 1.92969 7.68293 2.01172L7.99764 2.32422L2.9347 7.35938L2.61998 7.04688C2.44689 6.875 2.16365 6.875 1.98662 7.04688L0.719906 8.30469C0.637293 8.38672 0.590087 8.5 0.590087 8.61719C0.590087 8.73438 0.637293 8.84766 0.719906 8.92969L5.78285 13.957C5.86939 14.043 5.98348 14.0859 6.09756 14.0859C6.21164 14.0859 6.32573 14.043 6.41227 13.957L7.67899 12.6992C7.7616 12.6172 7.80881 12.5039 7.80881 12.3867C7.80881 12.2695 7.7616 12.1562 7.67899 12.0742L7.36428 11.7617L8.78835 10.3477L17.9662 19.4609C18.0527 19.5469 18.1668 19.5898 18.2809 19.5898C18.395 19.5898 18.509 19.5469 18.5956 19.4609L19.8623 18.2031C19.9449 18.1211 19.9921 18.0078 19.9921 17.8906C20 17.7695 19.9528 17.6562 19.8702 17.5703ZM9.26436 1.07422L13.6939 5.47266L13.0606 6.10156L8.63493 1.70312L9.26436 1.07422ZM6.1015 13.0156L1.67191 8.61719L2.30527 7.98828L2.61998 8.30078L6.41621 12.0703L6.73092 12.3828L6.1015 13.0156ZM6.73485 11.1289L3.56806 7.98438L8.63493 2.95703L11.8017 6.10156L6.73485 11.1289ZM18.2848 18.5156L9.42565 9.71484L9.7561 9.38672L10.0551 9.08984L18.9182 17.8906L18.2848 18.5156Z" fill="#2A86C9"/>
</g>
<defs>
<clipPath id="clip0">
<rect width="20" height="20" fill="white"/>
</clipPath>
</defs>
</svg>
