<svg width="20" height="27" viewBox="0 0 20 27" fill="none" xmlns="http://www.w3.org/2000/svg">
<g clip-path="url(#clip0)">
<path d="M10 0C4.48333 0 0 4.25566 0 9.49219C0 11.2588 0.516667 12.9885 1.49444 14.4861L9.43333 26.6309C9.58333 26.8629 9.85556 27.0053 10.1389 27.0053H10.1444C10.4333 27.0053 10.7056 26.8576 10.8556 26.6203L18.5889 14.3596C19.5111 12.8936 20 11.2113 20 9.49746C20 4.25566 15.5167 0 10 0ZM17.1611 13.5422L10.1278 24.6902L2.91111 13.6477C2.09444 12.4031 1.65556 10.9688 1.65556 9.49219C1.65556 5.13105 5.40556 1.57148 10 1.57148C14.5944 1.57148 18.3389 5.13105 18.3389 9.49219C18.3389 10.9213 17.9278 12.324 17.1611 13.5422ZM10 4.74609C7.24444 4.74609 5 6.87656 5 9.49219C5 12.092 7.20556 14.2383 10 14.2383C12.8278 14.2383 15 12.0656 15 9.49219C15 6.87656 12.7556 4.74609 10 4.74609ZM10 12.6668C8.15 12.6668 6.65556 11.243 6.65556 9.49219C6.65556 7.74668 8.16111 6.31758 10 6.31758C11.8389 6.31758 13.3389 7.74668 13.3389 9.49219C13.3389 11.2166 11.8778 12.6668 10 12.6668Z" fill="#2A86C9"/>
</g>
<defs>
<clipPath id="clip0">
<rect width="20" height="27" fill="white"/>
</clipPath>
</defs>
</svg>
