<svg width="29" height="20" viewBox="0 0 29 20" fill="none" xmlns="http://www.w3.org/2000/svg">
<path d="M2.784 0C2.668 0 2.552 0.114286 2.436 0.228571L0.174 3.02857L0.116 3.08571C0.058 3.2 0 3.31429 0 3.42857V19.4286C0 19.7714 0.232 20 0.58 20H2.32C2.668 20 2.9 19.7714 2.9 19.4286H26.1C26.1 19.7714 26.332 20 26.68 20H28.42C28.768 20 29 19.7714 29 19.4286V3.42857C29 3.31429 28.942 3.2 28.884 3.08571C28.884 3.08571 28.884 3.08571 28.826 3.02857L26.564 0.228571C26.448 0.0571429 26.274 0 26.1 0H24.94C24.592 0 24.36 0.228571 24.36 0.571429H4.64C4.64 0.228571 4.408 0 4.06 0H2.9C2.9 0 2.842 0 2.784 0C2.842 0 2.784 0 2.784 0ZM3.19 1.14286H3.48C3.48 1.48571 3.712 1.71429 4.06 1.71429H24.94C25.288 1.71429 25.52 1.48571 25.52 1.14286H25.81L27.202 2.85714H26.68C26.332 2.85714 26.1 3.08571 26.1 3.42857H2.9C2.9 3.08571 2.668 2.85714 2.32 2.85714H1.798L3.19 1.14286ZM1.16 4H1.74C1.74 4.34286 1.972 4.57143 2.32 4.57143H26.68C27.028 4.57143 27.26 4.34286 27.26 4H27.84V18.8571H27.26C27.26 18.5143 27.028 18.2857 26.68 18.2857H2.32C1.972 18.2857 1.74 18.5143 1.74 18.8571H1.16V4ZM4.002 5.71429H3.944C3.654 5.77143 3.48 6 3.48 6.28571V16.5714C3.48 16.9143 3.712 17.1429 4.06 17.1429C4.408 17.1429 4.64 16.9143 4.64 16.5714V6.28571C4.64 5.94286 4.408 5.71429 4.06 5.71429H4.002ZM7.482 5.71429H7.424C7.134 5.77143 6.96 6 6.96 6.28571V16.5714C6.96 16.9143 7.192 17.1429 7.54 17.1429C7.888 17.1429 8.12 16.9143 8.12 16.5714V6.28571C8.12 5.94286 7.888 5.71429 7.54 5.71429H7.482ZM10.962 5.71429H10.904C10.614 5.77143 10.44 6 10.44 6.28571V16.5714C10.44 16.9143 10.672 17.1429 11.02 17.1429C11.368 17.1429 11.6 16.9143 11.6 16.5714V6.28571C11.6 5.94286 11.368 5.71429 11.02 5.71429H10.962ZM14.442 5.71429H14.384C14.094 5.77143 13.92 6 13.92 6.28571V16.5714C13.92 16.9143 14.152 17.1429 14.5 17.1429C14.848 17.1429 15.08 16.9143 15.08 16.5714V6.28571C15.08 5.94286 14.848 5.71429 14.5 5.71429H14.442ZM17.922 5.71429H17.864C17.574 5.77143 17.4 6 17.4 6.28571V16.5714C17.4 16.9143 17.632 17.1429 17.98 17.1429C18.328 17.1429 18.56 16.9143 18.56 16.5714V6.28571C18.56 5.94286 18.328 5.71429 17.98 5.71429H17.922ZM21.402 5.71429H21.344C21.054 5.77143 20.88 6 20.88 6.28571V16.5714C20.88 16.9143 21.112 17.1429 21.46 17.1429C21.808 17.1429 22.04 16.9143 22.04 16.5714V6.28571C22.04 5.94286 21.808 5.71429 21.46 5.71429H21.402ZM24.882 5.71429H24.824C24.534 5.77143 24.36 6 24.36 6.28571V16.5714C24.36 16.9143 24.592 17.1429 24.94 17.1429C25.288 17.1429 25.52 16.9143 25.52 16.5714V6.28571C25.52 5.94286 25.288 5.71429 24.94 5.71429H24.882Z" fill="#2A86C9"/>
</svg>
