<svg width="20" height="20" viewBox="0 0 20 20" fill="none" xmlns="http://www.w3.org/2000/svg">
<path d="M13.5938 8.75C13.5938 11.6445 11.2383 14 8.34375 14C5.44922 14 3.09375 11.6445 3.09375 8.75C3.09375 5.85547 5.44922 3.5 8.34375 3.5C11.2383 3.5 13.5938 5.85547 13.5938 8.75ZM19.5938 18.5C19.5938 18.1016 19.4297 17.7148 19.1602 17.4453L15.1406 13.4258C16.0898 12.0547 16.5938 10.4141 16.5938 8.75C16.5938 4.19141 12.9023 0.5 8.34375 0.5C3.78516 0.5 0.09375 4.19141 0.09375 8.75C0.09375 13.3086 3.78516 17 8.34375 17C10.0078 17 11.6484 16.4961 13.0195 15.5469L17.0391 19.5547C17.3086 19.8359 17.6953 20 18.0938 20C18.9141 20 19.5938 19.3203 19.5938 18.5Z" fill="white"/>
</svg>
