<svg width="23" height="20" viewBox="0 0 23 20" fill="none" xmlns="http://www.w3.org/2000/svg">
<g clip-path="url(#clip0)">
<path d="M16.9094 9.28945H16.8905L14.6301 7.51154C14.605 7.49308 14.5861 7.48078 14.561 7.46232V2.3685L14.7494 2.30698C15.0382 2.2147 15.258 1.91941 15.258 1.61796V0.50446C15.258 0.215318 15.0445 0 14.7682 0C14.7117 0 14.6552 0.00615196 14.5987 0.0246078L5.36227 2.8299H1.90882C1.60115 2.8299 1.35627 3.06983 1.35627 3.37127V5.92433C1.35627 6.22578 1.60115 6.46571 1.90882 6.46571H2.19765V17.8776C2.19765 17.933 2.1537 17.976 2.09719 17.976H0.602785C0.269997 17.976 0 18.2405 0 18.5666V19.4156C0 19.7416 0.269997 20.0062 0.602785 20.0062H6.71226C7.04505 20.0062 7.31504 19.7416 7.31504 19.4156V18.5666C7.31504 18.2405 7.04505 17.976 6.71226 17.976H5.11739C5.06088 17.976 5.01693 17.933 5.01693 17.8776V6.46571H5.39995C5.70762 6.46571 5.9525 6.21963 5.9525 5.92433V5.1738L14.1026 2.5223V7.46847C14.0775 7.48078 14.0524 7.49923 14.0273 7.51769L11.792 9.28945H11.7731C11.4655 9.28945 11.2206 9.52938 11.2206 9.83083V13.0606C11.2206 13.362 11.4655 13.602 11.7731 13.602H16.9094C17.217 13.602 17.4619 13.362 17.4619 13.0606V9.83083C17.4619 9.53553 17.217 9.28945 16.9094 9.28945ZM12.5078 9.28945L14.3161 7.85605C14.3224 7.85605 14.3413 7.85605 14.3475 7.85605L16.1684 9.28945H12.5078ZM23 17.6623H20.3377V2.97139H19.7726V17.6684H17.1103L20.0551 20.0062L23 17.6623Z" fill="#2A86C9"/>
</g>
<defs>
<clipPath id="clip0">
<rect width="23" height="20" fill="white"/>
</clipPath>
</defs>
</svg>
