<?xml version="1.0" encoding="iso-8859-1"?>
<!-- Generator: Adobe Illustrator 19.0.0, SVG Export Plug-In . SVG Version: 6.00 Build 0)  -->
<svg version="1.1" id="Capa_1" xmlns="http://www.w3.org/2000/svg" xmlns:xlink="http://www.w3.org/1999/xlink" x="0px" y="0px"
	 viewBox="0 0 512 512" style="enable-background:new 0 0 512 512;" xml:space="preserve">
<g>
	<g>
		<path d="M497.222,415.278c-6.531-4.489-15.476-10.639-31.772-10.639c-16.296,0-25.241,6.149-31.772,10.639
			c-5.029,3.457-7.799,5.361-14.778,5.361c-6.978,0-9.747-1.904-14.774-5.36c-6.531-4.49-15.475-10.64-31.77-10.64
			c-16.295,0-25.24,6.149-31.771,10.64c-5.028,3.456-7.798,5.36-14.776,5.36c-6.977,0-9.746-1.904-14.773-5.36
			c-6.531-4.49-15.475-10.64-31.77-10.64s-25.239,6.149-31.77,10.64c-5.027,3.456-7.797,5.36-14.773,5.36
			c-6.978,0-9.747-1.904-14.775-5.36c-6.531-4.49-15.476-10.64-31.771-10.64s-25.239,6.149-31.77,10.64
			c-5.027,3.456-7.797,5.36-14.774,5.36c-6.978,0-9.747-1.904-14.774-5.36c-6.531-4.49-15.476-10.64-31.771-10.64
			s-25.24,6.149-31.771,10.64c-5.027,3.456-7.797,5.36-14.774,5.36c-6.977,0-9.746-1.904-14.772-5.36
			c-6.531-4.49-15.475-10.64-31.77-10.64v30c6.977,0,9.746,1.904,14.772,5.36c6.531,4.49,15.475,10.64,31.77,10.64
			c16.295,0,25.239-6.149,31.77-10.64c5.028-3.456,7.797-5.36,14.774-5.36c6.977,0,9.747,1.904,14.774,5.36
			c6.531,4.49,15.476,10.64,31.771,10.64s25.239-6.149,31.77-10.64c5.027-3.456,7.797-5.36,14.774-5.36
			c6.978,0,9.747,1.904,14.775,5.36c6.531,4.49,15.476,10.64,31.771,10.64c16.295,0,25.239-6.149,31.77-10.64
			c5.027-3.456,7.797-5.36,14.773-5.36c6.977,0,9.747,1.904,14.774,5.36c6.531,4.49,15.475,10.64,31.77,10.64
			s25.24-6.149,31.771-10.64c5.028-3.456,7.797-5.36,14.775-5.36c6.977,0,9.747,1.904,14.774,5.36
			c6.531,4.49,15.475,10.64,31.771,10.64c16.296,0,25.241-6.149,31.772-10.639c5.029-3.457,7.799-5.361,14.778-5.361
			c6.979,0,9.75,1.904,14.778,5.361c6.531,4.489,15.477,10.639,31.772,10.639v-30C505.021,420.639,502.25,418.735,497.222,415.278z"
			/>
	</g>
</g>
<g>
	<g>
		<path d="M497.222,475.282c-6.531-4.49-15.476-10.639-31.772-10.639c-16.296,0-25.241,6.149-31.772,10.639
			c-5.029,3.457-7.799,5.361-14.778,5.361c-6.978,0-9.747-1.904-14.774-5.36c-6.531-4.49-15.475-10.64-31.77-10.64
			c-16.295,0-25.24,6.149-31.771,10.64c-5.028,3.456-7.798,5.36-14.776,5.36c-6.977,0-9.746-1.904-14.773-5.36
			c-6.531-4.49-15.475-10.64-31.77-10.64s-25.239,6.149-31.77,10.64c-5.027,3.456-7.797,5.36-14.773,5.36
			c-6.978,0-9.747-1.904-14.775-5.36c-6.531-4.49-15.476-10.64-31.771-10.64s-25.239,6.149-31.77,10.64
			c-5.027,3.456-7.797,5.36-14.774,5.36c-6.978,0-9.747-1.904-14.774-5.36c-6.531-4.49-15.476-10.64-31.771-10.64
			s-25.24,6.149-31.771,10.64c-5.027,3.456-7.797,5.36-14.774,5.36c-6.977,0-9.746-1.904-14.772-5.36
			c-6.531-4.49-15.475-10.64-31.77-10.64v30c6.977,0,9.746,1.904,14.772,5.36c6.531,4.49,15.475,10.64,31.77,10.64
			c16.295,0,25.239-6.149,31.77-10.64c5.028-3.456,7.797-5.36,14.774-5.36c6.977,0,9.747,1.904,14.774,5.36
			c6.531,4.49,15.476,10.64,31.771,10.64s25.239-6.149,31.77-10.64c5.027-3.456,7.797-5.36,14.774-5.36
			c6.978,0,9.747,1.904,14.775,5.36c6.531,4.49,15.476,10.64,31.771,10.64c16.295,0,25.239-6.149,31.77-10.64
			c5.027-3.456,7.797-5.36,14.773-5.36c6.977,0,9.747,1.904,14.774,5.36c6.531,4.49,15.475,10.64,31.77,10.64
			s25.24-6.149,31.771-10.64c5.028-3.456,7.797-5.36,14.775-5.36c6.977,0,9.747,1.904,14.774,5.36
			c6.531,4.49,15.475,10.64,31.771,10.64c16.296,0,25.241-6.149,31.772-10.639c5.029-3.457,7.799-5.361,14.778-5.361
			c6.979,0,9.75,1.904,14.778,5.361c6.531,4.489,15.477,10.639,31.772,10.639v-30C505.021,480.643,502.25,478.739,497.222,475.282z"
			/>
	</g>
</g>
<g>
	<g>
		<path d="M497.223,355.274c-6.531-4.489-15.477-10.639-31.772-10.639c-7.003,0-12.642,1.139-17.322,2.791l37.342-62.25
			l-65.47-22.118V147.74h-30.002V87.736h-33.804V22.078h-85.194V1.357h-30v20.721h-85.194v65.658h-33.804v60.004H92.001v115.318
			l-65.47,22.118l39.997,66.676c-1.921,1.165-3.639,2.342-5.212,3.423c-5.027,3.456-7.797,5.36-14.774,5.36
			s-9.746-1.904-14.772-5.36c-6.531-4.49-15.475-10.64-31.77-10.64v30c6.977,0,9.746,1.904,14.772,5.36
			c6.531,4.49,15.475,10.64,31.77,10.64s25.239-6.149,31.77-10.64c5.028-3.456,7.797-5.36,14.774-5.36s9.747,1.904,14.774,5.36
			c6.531,4.49,15.476,10.64,31.771,10.64s25.239-6.149,31.77-10.64c5.027-3.456,7.797-5.36,14.774-5.36
			c6.978,0,9.747,1.904,14.775,5.36c6.531,4.49,15.476,10.64,31.771,10.64c16.295,0,25.239-6.149,31.77-10.64
			c5.027-3.456,7.797-5.36,14.773-5.36c6.977,0,9.747,1.904,14.774,5.36c6.531,4.49,15.475,10.64,31.77,10.64
			s25.24-6.149,31.771-10.64c5.028-3.456,7.797-5.36,14.775-5.36c6.977,0,9.747,1.904,14.774,5.36
			c6.531,4.49,15.475,10.64,31.771,10.64c16.296,0,25.241-6.149,31.772-10.639c5.029-3.457,7.799-5.361,14.778-5.361
			c6.979,0,9.75,1.904,14.778,5.361c6.531,4.489,15.477,10.639,31.772,10.639v-30C505.022,360.635,502.251,358.731,497.223,355.274z
			 M390.001,177.74v75.183l-118.754-40.12V177.74H390.001z M185.807,52.078h140.389v35.658H185.807V52.078z M122.001,177.74h119.246
			v34.897l-119.246,40.286V177.74z M241.248,359.07c-2.301,1.022-4.818,1.565-8.524,1.565c-6.979,0-9.749-1.904-14.777-5.36
			c-6.531-4.49-15.476-10.64-31.771-10.64c-16.295,0-25.239,6.149-31.77,10.64c-5.027,3.456-7.797,5.36-14.774,5.36
			c-6.978,0-9.747-1.904-14.774-5.36c-5.945-4.087-13.91-9.534-27.578-10.481l-25.864-43.115l169.832-57.376V359.07z
			 M152.003,147.74v-30.004h207.996v30.004H152.003z M407.201,357.334c-0.962-0.609-1.962-1.294-3.076-2.059
			c-6.531-4.49-15.475-10.64-31.77-10.64s-25.24,6.149-31.771,10.64c-5.028,3.456-7.798,5.36-14.776,5.36
			c-6.977,0-9.746-1.904-14.773-5.36c-6.531-4.49-15.475-10.64-31.77-10.64c-2.9,0-5.557,0.202-8.019,0.548V244.468l169.341,57.21
			L407.201,357.334z"/>
	</g>
</g>
<g>
</g>
<g>
</g>
<g>
</g>
<g>
</g>
<g>
</g>
<g>
</g>
<g>
</g>
<g>
</g>
<g>
</g>
<g>
</g>
<g>
</g>
<g>
</g>
<g>
</g>
<g>
</g>
<g>
</g>
</svg>
