<svg width="173" height="139" viewBox="0 0 173 139" fill="none" xmlns="http://www.w3.org/2000/svg">
<g clip-path="url(#clip0)">
<path opacity="0.3" d="M27.5 33.2998H8.3V52.4998H27.5V33.2998ZM26.3 51.2998H9.5V34.4998H26.3V51.2998ZM70.1 11.9998H8.3V29.5998H70.1V11.9998ZM68.9 28.3998H9.5V13.1998H68.9V28.3998ZM8.3 95.0998H27.5V75.8998H8.3V95.0998ZM9.5 77.0998H26.3V93.8998H9.5V77.0998ZM27.5 54.5998H8.3V73.7998H27.5V54.5998ZM26.3 72.5998H9.5V55.7998H26.3V72.5998ZM70.1 62.4998V54.4998H50.9V78.0998H52.1V55.7998H68.9V62.5998H70.1V62.4998ZM1.2 97.8998V9.1998C1.2 6.8998 3.1 4.9998 5.4 4.9998H72.8C75.1 4.9998 77 6.8998 77 9.1998V59.3998H78.2V9.1998C78.2 6.1998 75.8 3.7998 72.8 3.7998H5.4C2.4 3.7998 0 6.1998 0 9.1998V97.8998C0 100.9 2.4 103.3 5.4 103.3H34V102H5.4C3.1 102 1.2 100.2 1.2 97.8998ZM47.6 77.0998V78.6998H48.8V75.8998H29.6V95.0998H39.5V93.8998H30.8V77.0998H47.6ZM48.8 33.2998H29.6V52.4998H48.8V33.2998ZM47.6 51.2998H30.8V34.4998H47.6V51.2998ZM29.6 73.7998H48.8V54.5998H29.6V73.7998ZM30.8 55.7998H47.6V72.5998H30.8V55.7998ZM70.1 33.2998H50.9V52.4998H70.1V33.2998ZM68.9 51.2998H52.1V34.4998H68.9V51.2998ZM67.8 90.7998C93.9 88.4998 116.9 88.4998 142.8 90.7998C119.4 87.2998 91.1 87.2998 67.8 90.7998ZM159.6 111C156.7 111.5 135.3 114.8 134.7 115.2C134 115.7 140.1 121.2 141.3 121.9C142.4 122.6 148.5 121.6 149.7 121.7C150.9 121.9 155.5 124.1 156.4 123.9C157.3 123.7 164.7 122.7 165 122.4C165.4 122 164.9 113.8 164.8 113C164 110 162.1 110.6 159.6 111ZM56.2 99.0998C62.1 102 73.5 112.2 73.3 111.9C71.1 109.5 67.5 106.1 56.6 98.4998L57 94.9998C55.3 103.4 47.3 101.9 44.2 106.3C43.5 107.3 39.6 111.8 39.2 113.6C38.4 117.2 38.9 122.1 38.9 122C38.9 121.8 39.3 115.1 39.7 114C40.2 113 43.6 108.6 44.7 107C46.6 104.2 55 102.5 56.2 99.0998ZM58.3 90.1998L54.8 89.9998C54.8 89.9998 54.3 86.7998 53.7 86.1998C53.1 85.5998 44.9 85.9998 43.6 86.5998C42.3 87.0998 41.5 88.0998 40.9 88.8998C39.8 90.5998 40.1 91.7998 40.1 91.7998C40.1 91.5998 41.2 88.8998 42.9 87.7998C44.7 86.5998 52.7 86.3998 53.1 86.8998C53.6 87.3998 54 90.7998 54 90.7998H58.5C58.5 90.7998 67.9 73.7998 69.9 71.8998C74.6 67.5998 94.3 66.8998 105.3 66.8998C116.3 66.9998 135.9 67.5998 140.7 71.8998C142.8 73.7998 152.1 90.7998 152.1 90.7998H156.6C156.6 90.7998 157.1 87.4998 157.5 86.8998C158 86.3998 166 86.5998 167.7 87.7998C169.5 88.9998 170.5 91.5998 170.5 91.7998C170.5 91.8998 170.7 90.5998 169.7 88.8998C169.2 87.9998 168.3 87.0998 167 86.5998C165.7 86.0998 157.6 85.5998 156.9 86.1998C156.3 86.7998 155.8 89.9998 155.8 89.9998L152.3 90.1998C152.3 90.1998 143.2 72.2998 141.2 71.0998C133.6 66.1998 117.1 65.5998 105.4 65.3998C93.5 65.5998 77 66.1998 69.5 70.9998C67.4 72.2998 58.3 90.1998 58.3 90.1998ZM171.8 121.8V121.7C171.8 121.8 171.8 121.8 171.8 121.8ZM50.9 111C48.4 110.6 46.5 110 45.9 112.9C45.7 113.8 45.3 122 45.7 122.3C46.1 122.7 53.4 123.7 54.3 123.8C55.2 124 59.8 121.8 61 121.6C62.2 121.4 68.2 122.4 69.4 121.8C70.5 121.1 76.6 115.5 76 115.1C75.2 114.8 53.8 111.4 50.9 111ZM128 114.5C127.5 114.3 123.7 113.9 117.7 113.8C114 113.7 108.8 113.6 105.3 113.6C101.8 113.7 96.6 113.8 92.9 113.8C86.9 113.9 83.1 114.3 82.6 114.5C82.1 114.7 78.4 117.6 78 119.1C77.6 120.6 82.1 136 82.7 139C82.8 139.4 78.9 119.8 79 119.6C79.2 119.4 81.8 116.4 83 115.7C84 115.2 98.2 115 105.2 115C112.2 115.1 126.4 115.2 127.4 115.7C128.7 116.4 131.3 119.3 131.4 119.6C131.6 119.8 127.7 139.4 127.7 139C128.3 136.1 132.7 120.6 132.4 119.1C132.2 117.6 128.5 114.7 128 114.5ZM171.4 113.5C170.9 111.7 167 107.2 166.4 106.2C163.3 101.9 155.3 103.3 153.6 94.8998L154 98.3998C143.1 106.1 139.5 109.4 137.3 111.8C137.1 112 148.6 101.9 154.4 98.9998C155.5 102.5 163.9 104.2 165.9 107C167 108.5 170.4 113 170.9 114C171.3 114.9 171.7 120.9 171.7 121.8C171.8 120.9 172.1 116.6 171.4 113.5Z" fill="#C0E5FF" fill-opacity="0.4"/>
<path d="M68.5001 86.1C94.6001 83.8 117.6 83.8 143.5 86.1C120.2 82.7 91.8001 82.7 68.5001 86.1ZM128.8 109.9C128.3 109.7 124.5 109.3 118.5 109.2C114.8 109.1 109.6 109 106.1 109C102.6 109.1 97.4001 109.2 93.7001 109.2C87.7001 109.3 83.9001 109.7 83.4001 109.9C82.9001 110.1 79.2001 113 78.8001 114.5C78.4001 116 82.9001 131.4 83.5001 134.4C83.6001 134.8 79.7001 115.2 79.8001 115C80.0001 114.8 82.6001 111.8 83.8001 111.1C84.8001 110.6 99.0001 110.4 106 110.4C113 110.5 127.2 110.6 128.2 111.1C129.5 111.8 132.1 114.7 132.3 115C132.5 115.2 128.6 134.8 128.6 134.4C129.2 131.5 133.6 116 133.3 114.5C133 113 129.3 110.1 128.8 109.9ZM59.1001 85.5L55.6001 85.3C55.6001 85.3 55.1001 82.1 54.5001 81.5C53.9001 80.9 45.7001 81.3 44.4001 81.9C43.1001 82.4 42.3001 83.4 41.7001 84.2C40.6001 85.9 40.9001 87.1 40.9001 87.1C40.9001 86.9 42.0001 84.2 43.7001 83.1C45.5001 81.9 53.5001 81.7 53.9001 82.2C54.4001 82.7 54.8001 86.1 54.8001 86.1H59.3001C59.3001 86.1 68.7001 69.1 70.7001 67.2C75.4001 62.9 95.1001 62.2 106.1 62.2C117.1 62.3 136.7 62.9 141.5 67.2C143.6 69.1 152.9 86.1 152.9 86.1H157.4C157.4 86.1 157.9 82.8 158.3 82.2C158.8 81.7 166.8 81.9 168.5 83.1C170.3 84.3 171.3 86.9 171.3 87.1C171.3 87.2 171.5 85.9 170.5 84.2C170 83.3 169.1 82.4 167.8 81.9C166.5 81.4 158.4 80.9 157.7 81.5C157.1 82.1 156.6 85.3 156.6 85.3L153.1 85.5C153.1 85.5 144 67.6 142 66.4C134.4 61.5 117.9 60.9 106.2 60.7C94.4001 60.9 77.9001 61.6 70.4001 66.4C68.2001 67.6 59.1001 85.5 59.1001 85.5ZM172.2 108.8C171.7 107 167.8 102.5 167.2 101.5C164.1 97.2 156.1 98.6 154.4 90.2L154.8 93.7C144 101.4 140.3 104.7 138.1 107.1C137.9 107.3 149.4 97.2 155.2 94.3C156.3 97.8 164.7 99.5 166.7 102.3C167.8 103.8 171.2 108.3 171.7 109.3C172.1 110.2 172.5 116.1 172.5 117.1C172.6 116.2 172.9 112 172.2 108.8ZM172.5 117.2V117.1C172.5 117.2 172.5 117.2 172.5 117.2ZM160.4 106.3C157.5 106.8 136.1 110.1 135.5 110.5C134.8 111 140.9 116.5 142.1 117.2C143.2 117.9 149.3 116.9 150.5 117C151.7 117.2 156.3 119.4 157.2 119.2C158.1 119 165.5 118 165.8 117.7C166.2 117.3 165.7 109.1 165.6 108.3C164.7 105.3 162.9 106 160.4 106.3ZM56.9001 94.4C62.8001 97.3 74.2001 107.5 74.0001 107.2C71.8001 104.8 68.2001 101.4 57.3001 93.8L57.7001 90.3C56.0001 98.7 48.0001 97.2 44.9001 101.6C44.2001 102.6 40.3001 107.1 39.9001 108.9C39.1001 112.5 39.6001 117.4 39.6001 117.3C39.6001 117.1 40.0001 110.4 40.4001 109.3C40.9001 108.3 44.3001 103.9 45.4001 102.3C47.4001 99.5 55.8001 97.8 56.9001 94.4ZM51.7001 106.3C49.2001 105.9 47.3001 105.3 46.7001 108.2C46.5001 109.1 46.1001 117.3 46.5001 117.6C46.9001 118 54.2001 119 55.1001 119.1C56.0001 119.3 60.6001 117.1 61.8001 116.9C63.0001 116.7 69.0001 117.7 70.2001 117.1C71.3001 116.4 77.4001 110.8 76.8001 110.4C76.0001 110.1 54.6001 106.8 51.7001 106.3ZM29.2001 50.8H10.0001V70H29.2001V50.8ZM28.0001 68.8H11.2001V52H28.0001V68.8ZM10.0001 91.3H29.2001V72.1H10.0001V91.3ZM11.2001 73.3H28.0001V90.1H11.2001V73.3ZM41.1001 90.1H32.4001V73.3H49.2001V74.9H50.4001V72.1H31.2001V91.3H41.1001V90.1ZM31.2001 70H50.4001V50.8H31.2001V70ZM32.4001 52H49.2001V68.8H32.4001V52ZM2.9001 94.1V5.4C2.9001 3.1 4.8001 1.2 7.1001 1.2H74.5001C76.8001 1.2 78.7001 3.1 78.7001 5.4V55.6H79.9001V5.4C79.9001 2.4 77.5001 0 74.5001 0H7.0001C4.0001 0 1.6001 2.4 1.6001 5.4V94.1C1.6001 97.1 4.0001 99.5 7.0001 99.5H35.6001V98.3H7.0001C4.7001 98.3 2.9001 96.4 2.9001 94.1ZM50.5001 29.5H31.2001V48.7H50.4001V29.5H50.5001ZM49.3001 47.5H32.4001V30.7H49.2001V47.5H49.3001ZM71.8001 58.8V50.8H52.5001V74.4H53.7001V52H70.5001V58.8H71.8001ZM71.8001 29.5H52.5001V48.7H71.7001V29.5H71.8001ZM70.6001 47.5H53.7001V30.7H70.5001V47.5H70.6001ZM71.8001 8.2H10.0001V25.8H71.8001V8.2ZM70.6001 24.6H11.2001V9.4H70.6001V24.6ZM29.2001 29.5H10.0001V48.7H29.2001V29.5ZM28.0001 47.5H11.2001V30.7H28.0001V47.5Z" fill="#2A86C9" fill-opacity="0.6"/>
</g>
<defs>
<clipPath id="clip0">
<rect width="173" height="139" fill="white"/>
</clipPath>
</defs>
</svg>
