<?xml version="1.0" encoding="utf-8"?>
<!-- Generator: Adobe Illustrator 21.0.0, SVG Export Plug-In . SVG Version: 6.00 Build 0)  -->
<svg version="1.1" id="Слой_1" xmlns="http://www.w3.org/2000/svg" xmlns:xlink="http://www.w3.org/1999/xlink" x="0px" y="0px"
	 viewBox="0 0 17 20" style="enable-background:new 0 0 17 20;" xml:space="preserve">
<style type="text/css">
	.st0{fill:#2A86C9;}
</style>
<path class="st0" d="M8.4,10.8h0.1c1.2,0,2.2-0.4,2.9-1.3c1.6-1.8,1.3-4.9,1.3-5.2c-0.1-2.2-1.1-3.3-2-3.8C10.1,0.2,9.4,0,8.5,0H8.5
	C8,0,7.1,0.1,6.3,0.6c-0.9,0.5-1.9,1.5-2,3.8c0,0.3-0.3,3.4,1.3,5.2C6.2,10.3,7.2,10.8,8.4,10.8z M5.3,4.4C5.3,4.4,5.3,4.4,5.3,4.4
	c0.1-3,2.3-3.3,3.2-3.3h0.1c1.1,0,3,0.5,3.1,3.3c0,0,0,0,0,0c0,0,0.3,2.8-1,4.3c-0.5,0.6-1.2,0.9-2.1,0.9h0c-0.9,0-1.6-0.3-2.1-0.9
	C5,7.3,5.3,4.5,5.3,4.4z M17,15.9L17,15.9c0,0,0-0.1,0-0.1c0-0.8-0.1-2.7-1.9-3.3c0,0,0,0,0,0c-1.9-0.5-3.4-1.6-3.4-1.6
	c-0.3-0.2-0.6-0.1-0.8,0.1c-0.2,0.3-0.1,0.6,0.1,0.8c0.1,0.1,1.7,1.2,3.8,1.7c1,0.3,1.1,1.4,1.1,2.3c0,0,0,0.1,0,0.1
	c0,0.4,0,0.9-0.1,1.3c-0.7,0.4-3.3,1.7-7.3,1.7c-4,0-6.6-1.3-7.3-1.7c-0.1-0.3-0.1-0.9-0.1-1.3c0,0,0-0.1,0-0.1c0-0.9,0.1-2,1.1-2.3
	C4.3,13,5.9,11.8,6,11.8c0.3-0.2,0.3-0.5,0.1-0.8c-0.2-0.3-0.5-0.3-0.8-0.1c0,0-1.6,1.1-3.4,1.6c0,0,0,0,0,0C0.1,13,0,15,0,15.8
	c0,0,0,0.1,0,0.1v0c0,0.2,0,1.3,0.2,1.9c0,0.1,0.1,0.2,0.2,0.3c0.1,0.1,3.1,2,8.1,2c5,0,8-1.9,8.1-2c0.1-0.1,0.2-0.2,0.2-0.3
	C17,17.2,17,16.1,17,15.9z"/>
</svg>
