<?xml version="1.0" encoding="utf-8"?>
<!-- Generator: Adobe Illustrator 21.0.0, SVG Export Plug-In . SVG Version: 6.00 Build 0)  -->
<svg version="1.1" id="Слой_1" xmlns="http://www.w3.org/2000/svg" xmlns:xlink="http://www.w3.org/1999/xlink" x="0px" y="0px"
	 viewBox="0 0 19 20" style="enable-background:new 0 0 19 20;" xml:space="preserve">
<style type="text/css">
	.st0{fill:#2A86C9;}
</style>
<path class="st0" d="M16,11.9c-0.4-0.5-0.9-0.7-1.4-0.7c-0.5,0-1,0.2-1.5,0.7l-1.4,1.4c-0.1-0.1-0.2-0.1-0.3-0.2
	c-0.2-0.1-0.3-0.2-0.4-0.2C9.7,12.1,8.6,11,7.5,9.6C6.9,8.8,6.6,8.2,6.3,7.6c0.4-0.3,0.7-0.7,1-1c0.1-0.1,0.2-0.3,0.4-0.4
	c0.9-0.9,0.9-2.2,0-3.1L6.5,1.9C6.4,1.8,6.2,1.6,6.1,1.5C5.8,1.2,5.6,0.9,5.3,0.7C4.9,0.2,4.4,0,3.9,0c-0.5,0-1,0.2-1.5,0.7l0,0
	L0.9,2.2C0.4,2.8,0.1,3.5,0,4.3c-0.1,1.3,0.3,2.5,0.5,3.3c0.7,2,1.7,3.8,3.3,5.7c1.9,2.3,4.1,4.2,6.7,5.5c1,0.5,2.3,1.1,3.8,1.2
	c0.1,0,0.2,0,0.3,0c1,0,1.8-0.4,2.5-1.1c0,0,0,0,0,0c0.2-0.3,0.5-0.5,0.7-0.8c0.2-0.2,0.4-0.4,0.6-0.6c0.4-0.5,0.6-1,0.6-1.6
	s-0.2-1.1-0.7-1.5L16,11.9z M17.5,16.6C17.5,16.6,17.5,16.6,17.5,16.6c-0.2,0.2-0.3,0.4-0.5,0.5c-0.3,0.3-0.6,0.6-0.8,0.9
	c-0.4,0.5-0.9,0.7-1.6,0.7c-0.1,0-0.1,0-0.2,0c-1.3-0.1-2.4-0.6-3.3-1c-2.4-1.2-4.5-3-6.3-5.2C3.3,10.7,2.3,9,1.7,7.2
	c-0.4-1.1-0.5-2-0.5-2.8c0-0.5,0.2-1,0.6-1.3l1.5-1.5c0.2-0.2,0.4-0.3,0.7-0.3c0.3,0,0.5,0.2,0.6,0.3l0,0C4.8,1.8,5,2,5.3,2.3
	c0.1,0.1,0.3,0.3,0.4,0.4L6.8,4c0.5,0.5,0.5,0.9,0,1.4C6.7,5.5,6.6,5.6,6.5,5.8C6.1,6.1,5.8,6.5,5.4,6.9c0,0,0,0,0,0
	C5,7.3,5.1,7.6,5.2,7.9l0,0c0.3,0.8,0.7,1.5,1.4,2.4l0,0c1.2,1.5,2.4,2.7,3.8,3.6c0.2,0.1,0.4,0.2,0.5,0.3c0.2,0.1,0.3,0.2,0.4,0.2
	c0,0,0,0,0.1,0c0.1,0.1,0.3,0.1,0.4,0.1c0.4,0,0.6-0.2,0.7-0.3l1.5-1.5c0.1-0.2,0.4-0.3,0.6-0.3c0.3,0,0.5,0.2,0.6,0.3l2.4,2.5
	C18,15.7,18,16.2,17.5,16.6z"/>
</svg>
