<svg width="22" height="20" viewBox="0 0 22 20" fill="none" xmlns="http://www.w3.org/2000/svg">
<g clip-path="url(#clip0)">
<path d="M16.9944 8.04734H3.95506C3.61517 8.04734 3.33708 8.31361 3.33708 8.63905C3.33708 8.9645 3.61517 9.23077 3.95506 9.23077H16.9944C17.3343 9.23077 17.6124 8.9645 17.6124 8.63905C17.6124 8.31361 17.3343 8.04734 16.9944 8.04734ZM16.9944 11.3609C16.8337 11.3609 16.673 11.426 16.5556 11.5325C16.4382 11.645 16.3764 11.7929 16.3764 11.9527C16.3764 12.1124 16.4444 12.2604 16.5556 12.3728C16.673 12.4852 16.8275 12.5444 16.9944 12.5444C17.1612 12.5444 17.3157 12.4793 17.4332 12.3728C17.5506 12.2604 17.6124 12.1124 17.6124 11.9527C17.6124 11.7988 17.5444 11.645 17.4332 11.5325C17.3157 11.426 17.1551 11.3609 16.9944 11.3609ZM14.5657 11.3609H3.95506C3.61517 11.3609 3.33708 11.6272 3.33708 11.9527C3.33708 12.2781 3.61517 12.5444 3.95506 12.5444H14.5657C14.9056 12.5444 15.1837 12.2781 15.1837 11.9527C15.1837 11.6272 14.9056 11.3609 14.5657 11.3609ZM3.95506 5.91716H12.9775C13.3174 5.91716 13.5955 5.65089 13.5955 5.32544C13.5955 5 13.3174 4.73373 12.9775 4.73373H3.95506C3.61517 4.73373 3.33708 5 3.33708 5.32544C3.33708 5.65089 3.61517 5.91716 3.95506 5.91716ZM17.6742 0H4.32585C1.94045 0 0 1.85799 0 4.14201V13.2544C0 15.5385 1.94045 17.3965 4.32585 17.3965H8.02753L10.5674 19.8284C10.6848 19.9408 10.8455 20 11.0062 20C11.0865 20 11.1669 19.9882 11.241 19.9527C11.4697 19.8639 11.6242 19.645 11.6242 19.4083V17.3965H17.6804C20.0657 17.3965 22.0062 15.5385 22.0062 13.2544V4.14201C22 1.85799 20.0596 0 17.6742 0ZM20.7641 13.2544C20.7641 14.8876 19.3798 16.213 17.6742 16.213H11C10.6601 16.213 10.382 16.4793 10.382 16.8047V17.9822L8.91124 16.568C8.81855 16.3609 8.59607 16.213 8.3427 16.213H4.32585C2.62023 16.213 1.23596 14.8876 1.23596 13.2544V4.14201C1.23596 2.50888 2.62023 1.18343 4.32585 1.18343H17.6742C19.3798 1.18343 20.7641 2.50888 20.7641 4.14201V13.2544Z" fill="#2A86C9"/>
</g>
<defs>
<clipPath id="clip0">
<rect width="22" height="20" fill="white"/>
</clipPath>
</defs>
</svg>
