<?xml version="1.0" encoding="utf-8"?>
<!-- Generator: Adobe Illustrator 21.0.0, SVG Export Plug-In . SVG Version: 6.00 Build 0)  -->
<svg version="1.1" id="Слой_1" xmlns="http://www.w3.org/2000/svg" xmlns:xlink="http://www.w3.org/1999/xlink" x="0px" y="0px"
	 viewBox="0 0 19 20" style="enable-background:new 0 0 19 20;" xml:space="preserve">
<style type="text/css">
	.st0{fill:#2A86C9;}
</style>
<path class="st0" d="M18.7,1.3h-2.4v-1c0-0.2-0.2-0.3-0.3-0.3h-2.4c-0.2,0-0.3,0.2-0.3,0.3v1H5.8v-1C5.8,0.2,5.6,0,5.4,0H3.1
	C2.9,0,2.7,0.2,2.7,0.3v1H0.3C0.2,1.3,0,1.5,0,1.7v18C0,19.8,0.2,20,0.3,20h18.3c0.2,0,0.3-0.2,0.3-0.3v-18
	C19,1.5,18.8,1.3,18.7,1.3z M13.9,0.7h1.7v2h-1.7V0.7z M3.4,0.7h1.7v2H3.4V0.7z M0.7,2h2v1c0,0.2,0.2,0.3,0.3,0.3h2.4
	c0.2,0,0.3-0.2,0.3-0.3V2h7.5v1c0,0.2,0.2,0.3,0.3,0.3h2.4c0.2,0,0.3-0.2,0.3-0.3V2h2v3H0.7V2z M0.7,19.3V5.7h17.6v13.7H0.7z"/>
<path class="st0" d="M12.2,7.7H3.1v9.7h12.9V7.7H12.2z M9.8,8.3h2.4v2.3H9.8V8.3z M12.2,13.7H9.8v-2.3h2.4V13.7z M6.8,11.3h2.4v2.3
	H6.8V11.3z M6.8,8.3h2.4v2.3H6.8V8.3z M3.7,8.3h2.4v2.3H3.7V8.3z M3.7,11.3h2.4v2.3H3.7V11.3z M6.1,16.7H3.7v-2.3h2.4V16.7z
	 M9.2,16.7H6.8v-2.3h2.4V16.7z M12.2,16.7H9.8v-2.3h2.4V16.7z M15.3,16.7h-2.4v-2.3h2.4V16.7z M15.3,13.7h-2.4v-2.3h2.4V13.7z
	 M15.3,8.3v2.3h-2.4V8.3H15.3z"/>
</svg>
