<?xml version="1.0" encoding="utf-8"?>
<!-- Generator: Adobe Illustrator 21.0.0, SVG Export Plug-In . SVG Version: 6.00 Build 0)  -->
<svg version="1.1" id="Слой_1" xmlns="http://www.w3.org/2000/svg" xmlns:xlink="http://www.w3.org/1999/xlink" x="0px" y="0px"
	 viewBox="0 0 30 20" style="enable-background:new 0 0 30 20;" xml:space="preserve">
<style type="text/css">
	.st0{fill:#2A86C9;}
</style>
<path class="st0" d="M28.2,6.4C28.1,6.4,28.1,6.3,28.2,6.4L27,5.3c0.8-0.2,1.8-0.9,1.8-1.7c0-0.9-1.2-1.2-2.2-1.2
	c-1.1,0-1.2,0.8-1.2,1.3l-2.7-2.6C22.1,0.5,21,0,20.3,0H9.7C9,0,7.9,0.5,7.3,1L4.6,3.7c0-0.5-0.1-1.3-1.1-1.3S1.1,2.6,1.1,3.6
	c0,0.8,0.9,1.5,1.8,1.7l-1.1,1L1.8,6.4C0.8,7.4,0,9.2,0,10.5v3.9c0,0.9,0.4,1.8,1,2.4v1.5c0,0.9,0.8,1.6,1.6,1.6h2
	c0.9,0,1.6-0.7,1.6-1.6v-0.4h17.6v0.4c0,0.9,0.8,1.6,1.6,1.6h2c0.9,0,1.6-0.7,1.6-1.6v-1.5c0.6-0.6,1-1.5,1-2.4v-3.9
	C30,9.2,29.2,7.4,28.2,6.4z M8.3,2.2c0.4-0.3,1.1-0.5,1.4-0.5h10.6c0.3,0,1,0.2,1.4,0.5l3.6,3.5H4.7L8.3,2.2z M1.2,9.9
	c0-0.9,0.8-1.7,1.7-1.7c0.9,0,3.9,1.8,3.9,2.7c0,0.9-3,0.8-3.9,0.8C2,11.6,1.2,10.8,1.2,9.9z M6.2,16.3H5.6H3.8
	c-0.5-0.2-0.9-0.4-1.1-0.5c-0.2-0.2-0.3-0.2-0.4-0.3c-0.1-0.1-0.2-0.2-0.2-0.3c-0.2-0.7,0.2-1.3,0.2-1.3h3.2l2.1,2.5H6.2z
	 M19.6,16.3h-9.2c-1,0-1.8-0.8-1.8-1.8h12.6C21.4,15.5,20.5,16.3,19.6,16.3z M20,13.3H10c-1.1,0-1.9-1.3-1.9-2.9h13.8
	C21.9,12,21,13.3,20,13.3z M27.9,15c0,0.1-0.1,0.2-0.2,0.3c-0.1,0.1-0.2,0.2-0.3,0.3c-0.2,0.2-0.6,0.4-1.1,0.5h-1.8h-2.1l2.1-2.5
	h3.2C27.7,13.8,28.2,14.4,27.9,15z M27.1,11.6c-0.9,0-3.9,0.2-3.9-0.8c0-0.9,3-2.7,3.9-2.7c0.9,0,1.7,0.8,1.7,1.7
	C28.8,10.8,28,11.6,27.1,11.6z"/>
</svg>
