<?xml version="1.0" encoding="utf-8"?>
<!-- Generator: Adobe Illustrator 21.0.0, SVG Export Plug-In . SVG Version: 6.00 Build 0)  -->
<svg version="1.1" id="Слой_1" xmlns="http://www.w3.org/2000/svg" xmlns:xlink="http://www.w3.org/1999/xlink" x="0px" y="0px"
	 viewBox="0 0 20 27" style="enable-background:new 0 0 20 27;" xml:space="preserve">
<style type="text/css">
	.st0{fill:#2A86C9;}
</style>
<path class="st0" d="M10,0C4.5,0,0,4.3,0,9.5c0,1.8,0.5,3.5,1.5,5l7.9,12.1c0.2,0.2,0.4,0.4,0.7,0.4h0c0.3,0,0.6-0.1,0.7-0.4
	l7.7-12.3c0.9-1.5,1.4-3.1,1.4-4.9C20,4.3,15.5,0,10,0z M17.2,13.5l-7,11.1l-7.2-11C2.1,12.4,1.7,11,1.7,9.5c0-4.4,3.8-7.9,8.3-7.9
	c4.6,0,8.3,3.6,8.3,7.9C18.3,10.9,17.9,12.3,17.2,13.5z M10,4.7c-2.8,0-5,2.1-5,4.7c0,2.6,2.2,4.7,5,4.7c2.8,0,5-2.2,5-4.7
	C15,6.9,12.8,4.7,10,4.7z M10,12.7c-1.9,0-3.3-1.4-3.3-3.2c0-1.7,1.5-3.2,3.3-3.2c1.8,0,3.3,1.4,3.3,3.2
	C13.3,11.2,11.9,12.7,10,12.7z"/>
</svg>
