<svg width="173" height="139" viewBox="0 0 173 139" fill="none" xmlns="http://www.w3.org/2000/svg">
<g clip-path="url(#clip0)">
<path opacity="0.3" d="M67.7999 90.7999C93.8999 88.4999 116.9 88.4999 142.8 90.7999C119.4 87.2999 91.0999 87.2999 67.7999 90.7999ZM159.6 111C156.7 111.5 135.3 114.8 134.7 115.2C134 115.7 140.1 121.2 141.3 121.9C142.4 122.6 148.5 121.6 149.7 121.7C150.9 121.9 155.5 124.1 156.4 123.9C157.3 123.7 164.7 122.7 165 122.4C165.4 122 164.9 113.8 164.8 113C164 110 162.1 110.6 159.6 111ZM56.1999 99.0999C62.0999 102 73.4999 112.2 73.2999 111.9C71.0999 109.5 67.4999 106.1 56.5999 98.4999L56.9999 94.9999C55.2999 103.4 47.2999 101.9 44.1999 106.3C43.4999 107.3 39.5999 111.8 39.1999 113.6C38.3999 117.2 38.8999 122.1 38.8999 122C38.8999 121.8 39.2999 115.1 39.6999 114C40.1999 113 43.5999 108.6 44.6999 107C46.5999 104.2 54.9999 102.5 56.1999 99.0999ZM58.2999 90.1999L54.7999 89.9999C54.7999 89.9999 54.2999 86.7999 53.6999 86.1999C53.0999 85.5999 44.8999 85.9999 43.5999 86.5999C42.2999 87.0999 41.4999 88.0999 40.8999 88.8999C39.7999 90.5999 40.0999 91.7999 40.0999 91.7999C40.0999 91.5999 41.1999 88.8999 42.8999 87.7999C44.6999 86.5999 52.6999 86.3999 53.0999 86.8999C53.5999 87.3999 53.9999 90.7999 53.9999 90.7999H58.4999C58.4999 90.7999 67.8999 73.7999 69.8999 71.8999C74.5999 67.5999 94.2999 66.8999 105.3 66.8999C116.3 66.9999 135.9 67.5999 140.7 71.8999C142.8 73.7999 152.1 90.7999 152.1 90.7999H156.6C156.6 90.7999 157.1 87.4999 157.5 86.8999C158 86.3999 166 86.5999 167.7 87.7999C169.5 88.9999 170.5 91.5999 170.5 91.7999C170.5 91.8999 170.7 90.5999 169.7 88.8999C169.2 87.9999 168.3 87.0999 167 86.5999C165.7 86.0999 157.6 85.5999 156.9 86.1999C156.3 86.7999 155.8 89.9999 155.8 89.9999L152.3 90.1999C152.3 90.1999 143.2 72.2999 141.2 71.0999C133.6 66.1999 117.1 65.5999 105.4 65.3999C93.4999 65.5999 76.9999 66.1999 69.4999 70.9999C67.3999 72.2999 58.2999 90.1999 58.2999 90.1999ZM171.8 121.8V121.7C171.8 121.8 171.8 121.8 171.8 121.8ZM50.8999 111C48.3999 110.6 46.4999 110 45.8999 112.9C45.6999 113.8 45.2999 122 45.6999 122.3C46.0999 122.7 53.3999 123.7 54.2999 123.8C55.1999 124 59.7999 121.8 60.9999 121.6C62.1999 121.4 68.1999 122.4 69.3999 121.8C70.4999 121.1 76.5999 115.5 75.9999 115.1C75.1999 114.8 53.7999 111.4 50.8999 111ZM128 114.5C127.5 114.3 123.7 113.9 117.7 113.8C114 113.7 108.8 113.6 105.3 113.6C101.8 113.7 96.5999 113.8 92.8999 113.8C86.8999 113.9 83.0999 114.3 82.5999 114.5C82.0999 114.7 78.3999 117.6 77.9999 119.1C77.5999 120.6 82.0999 136 82.6999 139C82.7999 139.4 78.8999 119.8 78.9999 119.6C79.1999 119.4 81.7999 116.4 82.9999 115.7C83.9999 115.2 98.1999 115 105.2 115C112.2 115.1 126.4 115.2 127.4 115.7C128.7 116.4 131.3 119.3 131.4 119.6C131.6 119.8 127.7 139.4 127.7 139C128.3 136.1 132.7 120.6 132.4 119.1C132.2 117.6 128.5 114.7 128 114.5ZM171.4 113.5C170.9 111.7 167 107.2 166.4 106.2C163.3 101.9 155.3 103.3 153.6 94.8999L154 98.3999C143.1 106.1 139.5 109.4 137.3 111.8C137.1 112 148.6 101.9 154.4 98.9999C155.5 102.5 163.9 104.2 165.9 107C167 108.5 170.4 113 170.9 114C171.3 114.9 171.7 120.9 171.7 121.8C171.8 120.9 172.1 116.6 171.4 113.5Z" fill="#A3C7E2"/>
<path d="M68.5001 86.1002C94.6001 83.8002 117.6 83.8002 143.5 86.1002C120.2 82.7002 91.8001 82.7002 68.5001 86.1002ZM128.8 109.9C128.3 109.7 124.5 109.3 118.5 109.2C114.8 109.1 109.6 109 106.1 109C102.6 109.1 97.4001 109.2 93.7001 109.2C87.7001 109.3 83.9001 109.7 83.4001 109.9C82.9001 110.1 79.2001 113 78.8001 114.5C78.4001 116 82.9001 131.4 83.5001 134.4C83.6001 134.8 79.7001 115.2 79.8001 115C80.0001 114.8 82.6001 111.8 83.8001 111.1C84.8001 110.6 99.0001 110.4 106 110.4C113 110.5 127.2 110.6 128.2 111.1C129.5 111.8 132.1 114.7 132.3 115C132.5 115.2 128.6 134.8 128.6 134.4C129.2 131.5 133.6 116 133.3 114.5C133 113 129.3 110.1 128.8 109.9ZM59.1001 85.5002L55.6001 85.3002C55.6001 85.3002 55.1001 82.1002 54.5001 81.5002C53.9001 80.9002 45.7001 81.3002 44.4001 81.9002C43.1001 82.4002 42.3001 83.4002 41.7001 84.2002C40.6001 85.9002 40.9001 87.1002 40.9001 87.1002C40.9001 86.9002 42.0001 84.2002 43.7001 83.1002C45.5001 81.9002 53.5001 81.7002 53.9001 82.2002C54.4001 82.7002 54.8001 86.1002 54.8001 86.1002H59.3001C59.3001 86.1002 68.7001 69.1002 70.7001 67.2002C75.4001 62.9002 95.1001 62.2002 106.1 62.2002C117.1 62.3002 136.7 62.9002 141.5 67.2002C143.6 69.1002 152.9 86.1002 152.9 86.1002H157.4C157.4 86.1002 157.9 82.8002 158.3 82.2002C158.8 81.7002 166.8 81.9002 168.5 83.1002C170.3 84.3002 171.3 86.9002 171.3 87.1002C171.3 87.2002 171.5 85.9002 170.5 84.2002C170 83.3002 169.1 82.4002 167.8 81.9002C166.5 81.4002 158.4 80.9002 157.7 81.5002C157.1 82.1002 156.6 85.3002 156.6 85.3002L153.1 85.5002C153.1 85.5002 144 67.6002 142 66.4002C134.4 61.5002 117.9 60.9002 106.2 60.7002C94.4001 60.9002 77.9001 61.6002 70.4001 66.4002C68.2001 67.6002 59.1001 85.5002 59.1001 85.5002ZM172.2 108.8C171.7 107 167.8 102.5 167.2 101.5C164.1 97.2002 156.1 98.6002 154.4 90.2002L154.8 93.7002C144 101.4 140.3 104.7 138.1 107.1C137.9 107.3 149.4 97.2002 155.2 94.3002C156.3 97.8002 164.7 99.5002 166.7 102.3C167.8 103.8 171.2 108.3 171.7 109.3C172.1 110.2 172.5 116.1 172.5 117.1C172.6 116.2 172.9 112 172.2 108.8ZM172.5 117.2V117.1C172.5 117.2 172.5 117.2 172.5 117.2ZM160.4 106.3C157.5 106.8 136.1 110.1 135.5 110.5C134.8 111 140.9 116.5 142.1 117.2C143.2 117.9 149.3 116.9 150.5 117C151.7 117.2 156.3 119.4 157.2 119.2C158.1 119 165.5 118 165.8 117.7C166.2 117.3 165.7 109.1 165.6 108.3C164.7 105.3 162.9 106 160.4 106.3ZM56.9001 94.4002C62.8001 97.3002 74.2001 107.5 74.0001 107.2C71.8001 104.8 68.2001 101.4 57.3001 93.8002L57.7001 90.3002C56.0001 98.7002 48.0001 97.2002 44.9001 101.6C44.2001 102.6 40.3001 107.1 39.9001 108.9C39.1001 112.5 39.6001 117.4 39.6001 117.3C39.6001 117.1 40.0001 110.4 40.4001 109.3C40.9001 108.3 44.3001 103.9 45.4001 102.3C47.4001 99.5002 55.8001 97.8002 56.9001 94.4002ZM51.7001 106.3C49.2001 105.9 47.3001 105.3 46.7001 108.2C46.5001 109.1 46.1001 117.3 46.5001 117.6C46.9001 118 54.2001 119 55.1001 119.1C56.0001 119.3 60.6001 117.1 61.8001 116.9C63.0001 116.7 69.0001 117.7 70.2001 117.1C71.3001 116.4 77.4001 110.8 76.8001 110.4C76.0001 110.1 54.6001 106.8 51.7001 106.3Z" fill="#2A86C9" fill-opacity="0.6"/>
<path d="M17.2 74.9C15.3 72.9 12.4 72.1 9.8 72.1C7.2 72.1 4.4 72.9 2.5 74.9C1.6 75.9 0.9 77.1 0.5 78.3C0.1 79.6 0 80.9 0 82.2C0 84.8 0.6 87.6 2.4 89.5C4.2 91.5 6.9 92.2 9.5 92.2C10.8 92.2 12.1 92.1 13.4 91.7C14.6 91.3 15.9 90.7 16.8 89.8C17.8 88.9 18.5 87.7 19 86.4C19.4 85.1 19.6 83.8 19.7 82.5C19.7 81.2 19.7 79.8 19.3 78.5C18.8 77.1 18.2 75.8 17.2 74.9ZM16.4 89.3C15.6 90.2 14.5 90.9 13.3 91.4C12.1 91.8 10.8 92 9.5 92.1C8.2 92.1 6.9 91.9 5.7 91.5C4.5 91.1 3.4 90.3 2.6 89.4C0.9 87.4 0.5 84.8 0.5 82.2C0.5 79.7 1.2 77.1 3 75.3C4.8 73.5 7.3 72.8 9.8 72.8C12.3 72.8 14.8 73.7 16.5 75.5C18.2 77.3 18.7 79.8 18.6 82.4C18.7 84.9 18.1 87.4 16.4 89.3ZM12.1 79.3C11.9 78.8 11.6 78.3 11.2 78.1C10.7 77.8 10.2 77.8 9.7 77.8C9.2 77.8 8.7 77.9 8.3 78.2C7.9 78.5 7.6 78.9 7.5 79.4C7.2 80.3 7.1 81.3 7.1 82.3C7.1 83.3 7 84.3 7.3 85.3C7.4 85.8 7.7 86.3 8.2 86.7C8.7 87 9.3 87.2 9.8 87.2C10.3 87.2 10.9 87.1 11.5 86.8C12 86.4 12.3 85.9 12.5 85.4C12.8 84.4 12.8 83.3 12.8 82.4C12.6 81.3 12.5 80.2 12.1 79.3ZM11.6 82.2C11.6 83.2 11.6 84.1 11.4 84.9C11.3 85.3 11.1 85.7 10.8 85.9C10.5 86.1 10.1 86.2 9.7 86.2C9.3 86.2 8.8 86.1 8.5 85.9C8.2 85.7 8 85.3 7.8 84.9C7.5 84 7.5 83.1 7.5 82.1C7.5 81.1 7.4 80.2 7.6 79.2C7.7 78.7 7.9 78.3 8.3 78C8.7 77.7 9.2 77.6 9.7 77.6C10.2 77.6 10.7 77.7 11 78C11.3 78.3 11.5 78.7 11.6 79.2C11.7 80.3 11.6 81.3 11.6 82.2ZM31.4 72.3H31L25 72.4H24.9L24.8 72.5L20.5 75.5L20.4 75.6V75.8L20.5 81.6V82L20.9 81.8L23.9 80.1L24.1 91.8C26.4 91.9 28.8 92 31.2 92.1H31.5V91.8C31.6 90.2 31.6 88.6 31.6 87C31.6 85.4 31.7 83.8 31.7 82.2C31.7 79 31.7 75.9 31.6 72.7L31.4 72.3ZM23.9 91.7L24.1 79.7V79.3L23.8 79.5L20.9 81.1L21 75.9L25.1 73.1L30.6 73.2C30.6 76.2 30.5 79.2 30.5 82.3C30.5 83.9 30.5 85.5 30.6 87.1C30.6 88.6 30.6 90.1 30.7 91.5C28.4 91.5 26.2 91.6 23.9 91.7ZM61.2 29.5C59.3 27.5 56.4 26.7 53.8 26.7C51.2 26.7 48.4 27.5 46.5 29.5C45.6 30.5 44.9 31.7 44.5 32.9C44.1 34.2 44 35.5 44 36.8C44 39.4 44.6 42.2 46.4 44.1C48.2 46.1 50.9 46.8 53.5 46.8C54.8 46.8 56.1 46.7 57.4 46.3C58.6 45.9 59.9 45.3 60.8 44.4C61.8 43.5 62.5 42.3 63 41C63.4 39.7 63.6 38.4 63.7 37.1C63.7 35.8 63.7 34.4 63.3 33.1C62.8 31.7 62.1 30.5 61.2 29.5ZM60.3 43.9C59.5 44.8 58.4 45.5 57.2 46C56 46.4 54.7 46.6 53.4 46.7C52.1 46.7 50.8 46.5 49.6 46.1C48.4 45.7 47.3 44.9 46.5 44C44.8 42 44.4 39.4 44.4 36.8C44.4 34.3 45.1 31.7 46.9 29.9C48.7 28.1 51.2 27.4 53.7 27.4C56.2 27.4 58.7 28.3 60.4 30.1C62.1 31.9 62.6 34.4 62.5 37C62.6 39.5 62 42.1 60.3 43.9ZM76.7 40.7C77.4 40 78.1 39.3 78.8 38.5C79.7 37.4 80.5 36 80.6 34.5C80.8 33 80.6 31.5 79.8 30.1C79 28.8 77.7 27.8 76.3 27.3C74.9 26.8 73.4 26.6 72 26.7C70.6 26.8 69.1 27 67.8 27.6C66.5 28.2 65.3 29.3 64.6 30.6C63.9 31.9 63.7 33.4 63.6 34.8V35.1H63.9H70.3H70.5V34.9C70.6 34.1 70.7 33.1 71.3 32.8C71.6 32.6 72 32.6 72.4 32.7C72.7 32.8 72.9 33.2 73 33.5C73.1 34.3 72.8 35.1 72.3 35.8C71.8 36.5 71.3 37.2 70.7 37.8L63.7 45.4V46.3L71.9 46.5C74.7 46.6 77.5 46.6 80.3 46.7H80.7V46.3L80.8 41.1V40.6H80.3L76.7 40.7ZM72.2 46.1L63.8 46.3V45.5L71 38C71.6 37.4 72.2 36.7 72.7 36C73.2 35.3 73.6 34.4 73.5 33.4C73.5 32.9 73.2 32.4 72.7 32.2C72.2 32 71.7 32 71.3 32.3C70.8 32.6 70.6 33 70.5 33.5C70.4 33.9 70.3 34.2 70.3 34.6H64.5C64.6 33.3 64.8 32.1 65.4 31C66 29.8 67.1 28.9 68.3 28.3C69.5 27.7 70.9 27.6 72.3 27.5C73.7 27.5 75.1 27.6 76.3 28.1C77.6 28.6 78.6 29.4 79.3 30.5C79.9 31.6 80.1 33 79.9 34.3C79.7 35.6 79.1 36.8 78.2 37.8C77.3 38.8 76.3 39.8 75.3 40.8L74.4 41.7H75.7H80.2L80.3 46C77.4 46 74.8 46 72.2 46.1ZM56 33.9C55.8 33.4 55.5 32.9 55.1 32.7C54.6 32.4 54.1 32.4 53.6 32.4C53.1 32.4 52.6 32.5 52.2 32.8C51.8 33.1 51.5 33.5 51.4 34C51.1 34.9 51 35.9 51 36.9C51 37.9 50.9 38.9 51.2 39.9C51.3 40.4 51.6 40.9 52.1 41.3C52.6 41.6 53.2 41.8 53.7 41.8C54.2 41.8 54.8 41.7 55.4 41.4C55.9 41 56.2 40.5 56.4 40C56.7 39 56.7 37.9 56.7 37C56.5 35.9 56.4 34.8 56 33.9ZM55.6 36.8C55.6 37.8 55.6 38.7 55.4 39.5C55.3 39.9 55.1 40.3 54.8 40.5C54.5 40.7 54.1 40.8 53.7 40.8C53.3 40.8 52.8 40.7 52.5 40.5C52.2 40.3 52 39.9 51.8 39.5C51.5 38.6 51.5 37.7 51.5 36.7C51.5 35.7 51.4 34.8 51.6 33.8C51.7 33.3 51.9 32.9 52.3 32.6C52.7 32.3 53.2 32.2 53.7 32.2C54.2 32.2 54.7 32.3 55 32.6C55.3 32.9 55.5 33.3 55.6 33.8C55.7 34.9 55.6 35.9 55.6 36.8ZM150.7 11.4C150.2 10.6 149.4 10 148.5 9.7C149.2 9.3 149.9 8.8 150.3 8C150.9 6.8 151 5.5 150.6 4.2C150.3 3 149.4 1.9 148.3 1.3C147.2 0.6 146 0.3 144.8 0.2C143.6 0 142.4 0 141.2 0.1C140 0.2 138.8 0.5 137.7 1.1C136.6 1.7 135.7 2.6 135.1 3.7C134.5 4.8 134.2 6 134.2 7.2V7.5H134.5L140.7 7.4H140.9V7.2C141 6.5 141.3 5.7 142 5.6C142.7 5.5 143.6 5.6 143.7 6.3C143.8 6.6 143.7 7 143.6 7.3C143.4 7.6 143.1 7.8 142.8 7.9C142 8 141.2 7.9 140.5 8H140.4V8.1V12.2V12.3H140.5H142.1C142.6 12.3 143.2 12.4 143.5 12.9C143.8 13.3 143.8 14 143.6 14.4C143.4 14.9 142.8 15 142.3 15C141.8 15 141.3 14.9 141 14.5C140.7 14.1 140.6 13.6 140.6 13.1V13H140.5C138.4 13 136.3 12.9 134.3 12.9H134.1V13.1C134.1 14.4 134.3 15.7 134.9 16.9C135.5 18.1 136.6 19 137.8 19.6C139 20.2 140.3 20.4 141.6 20.5C142.9 20.6 144.2 20.6 145.5 20.4C146.8 20.2 148.1 19.8 149.2 18.9C150.3 18.1 151.1 16.8 151.4 15.5C151.5 14.8 151.6 14.2 151.6 13.5C151.3 12.8 151.1 12.1 150.7 11.4ZM150.2 15.3C149.9 16.4 149.3 17.4 148.4 18.1C147.5 18.8 146.3 19.2 145.1 19.4C143.9 19.6 142.7 19.7 141.4 19.6C140.2 19.5 139 19.3 137.9 18.9C136.8 18.5 135.8 17.7 135.2 16.7C134.6 15.7 134.4 14.6 134.3 13.4C136.3 13.3 138.3 13.3 140.2 13.3C140.3 13.8 140.4 14.3 140.7 14.7C141.1 15.1 141.6 15.2 142.1 15.2C142.6 15.2 143.3 15.1 143.5 14.5C143.7 14 143.7 13.4 143.4 12.9C143.1 12.4 142.5 12.3 141.9 12.2H140.3V8.2H141.4C141.8 8.2 142.2 8.2 142.6 8.1C143 8 143.4 7.8 143.6 7.4C143.8 7 143.9 6.6 143.8 6.2C143.7 5.8 143.3 5.4 142.9 5.3C142.5 5.2 142.1 5.2 141.7 5.2C141.3 5.3 140.9 5.6 140.7 6C140.5 6.3 140.4 6.7 140.4 7L134.6 6.9C134.7 5.9 135 4.8 135.5 3.9C136.1 2.9 136.9 2.1 137.9 1.6C139.9 0.6 142.4 0.6 144.6 0.9C145.7 1.1 146.8 1.4 147.8 2C148.7 2.6 149.5 3.5 149.7 4.5C150 5.5 149.9 6.7 149.4 7.6C148.9 8.5 147.9 9.1 146.8 9.3L144.7 9.8L146.8 10.2C147.9 10.4 149 11 149.6 11.9C150.4 12.9 150.5 14.1 150.2 15.3ZM122.1 14.6C122.6 14.9 123.2 15.1 123.7 15.1C124.2 15.1 124.8 15 125.4 14.7C125.9 14.3 126.2 13.8 126.4 13.3C126.7 12.3 126.7 11.2 126.7 10.3C126.7 9.3 126.6 8.3 126.2 7.3C126 6.8 125.7 6.3 125.3 6.1C124.8 5.8 124.3 5.8 123.8 5.8C123.3 5.8 122.8 5.9 122.4 6.2C122 6.5 121.7 6.9 121.6 7.4C121.3 8.3 121.2 9.3 121.2 10.3C121.2 11.3 121.1 12.3 121.4 13.3C121.4 13.7 121.6 14.2 122.1 14.6ZM121.6 7.3C121.7 6.8 121.9 6.4 122.3 6.1C122.7 5.8 123.2 5.7 123.7 5.7C124.2 5.7 124.7 5.8 125 6.1C125.3 6.4 125.5 6.8 125.6 7.3C125.7 8.2 125.6 9.2 125.6 10.1C125.6 11.1 125.6 12 125.4 12.8C125.3 13.2 125.1 13.6 124.8 13.8C124.5 14 124.1 14.1 123.7 14.1C123.3 14.1 122.8 14 122.5 13.8C122.2 13.6 122 13.2 121.8 12.8C121.5 11.9 121.5 11 121.5 10C121.5 9.2 121.4 8.3 121.6 7.3ZM123.5 20.1C124.8 20.1 126.1 20 127.4 19.6C128.6 19.2 129.9 18.6 130.8 17.7C131.8 16.8 132.5 15.6 133 14.3C133.5 13 133.6 11.7 133.7 10.4C133.7 9.1 133.7 7.7 133.3 6.4C132.9 5.1 132.3 3.8 131.3 2.8C129.4 0.8 126.5 0 123.9 0C121.3 0 118.5 0.8 116.6 2.8C115.7 3.8 115 5 114.6 6.2C114.2 7.5 114.1 8.8 114.1 10.1C114.1 12.7 114.7 15.5 116.5 17.4C118.2 19.4 120.9 20.1 123.5 20.1ZM114.5 10.1C114.5 7.6 115.2 5 117 3.2C118.8 1.4 121.3 0.7 123.8 0.7C126.3 0.7 128.8 1.6 130.5 3.4C132.2 5.2 132.7 7.7 132.6 10.3C132.6 12.8 132.1 15.3 130.4 17.2C129.6 18.1 128.5 18.8 127.3 19.3C126.1 19.7 124.8 19.9 123.5 20C122.2 20 120.9 19.8 119.7 19.4C118.5 19 117.4 18.2 116.6 17.3C114.9 15.3 114.4 12.7 114.5 10.1ZM37.6 38.3L26.7 38.4L20.6 38.5C19.5 38.6 18.4 39.1 17.8 40C17.5 40.4 17.2 40.9 17.1 41.5C17 42 17 42.5 17 43L17.3 67.2L17.5 43C17.5 42.5 17.5 42 17.6 41.5C17.7 41 17.9 40.6 18.2 40.2C18.8 39.5 19.7 39 20.6 39L26.6 39.1L37.6 39.2L32.1 45.8L38.5 39.4L39.2 38.7L31.9 32L37.6 38.3ZM133 24.7L126.6 31.1L133.2 25.6L133.3 30.9L133.4 36.3C133.4 37.2 132.9 38.1 132.2 38.7C131.8 39 131.4 39.2 130.9 39.3C130.5 39.4 130 39.4 129.4 39.4L85.3 39.7L129.4 40C129.9 40 130.4 40 131 39.9C131.5 39.8 132 39.6 132.5 39.2C133.4 38.6 134 37.5 134 36.4L134.1 31L134.2 25.7L140.5 31.4L133.7 24L133 24.7Z" fill="#2A86C9" fill-opacity="0.6"/>
<path opacity="0.3" d="M17.2 78.0998C15.3 76.0998 12.4 75.2998 9.8 75.2998C7.2 75.2998 4.4 76.0998 2.5 78.0998C1.6 79.0998 0.9 80.2998 0.5 81.4998C0.1 82.7998 0 84.0998 0 85.3998C0 87.9998 0.6 90.7998 2.4 92.6998C4.2 94.6998 6.9 95.3998 9.5 95.3998C10.8 95.3998 12.1 95.2998 13.4 94.8998C14.6 94.4998 15.9 93.8998 16.8 92.9998C17.8 92.0998 18.5 90.8998 19 89.5998C19.4 88.2998 19.6 86.9998 19.7 85.6998C19.7 84.3998 19.7 82.9998 19.3 81.6998C18.8 80.2998 18.2 79.0998 17.2 78.0998ZM16.4 92.5998C15.6 93.4998 14.5 94.1998 13.3 94.6998C12.1 95.0998 10.8 95.2998 9.5 95.3998C8.2 95.3998 6.9 95.1998 5.7 94.7998C4.5 94.3998 3.4 93.5998 2.6 92.6998C0.9 90.6998 0.5 88.0998 0.5 85.4998C0.5 82.9998 1.2 80.3998 3 78.5998C4.8 76.7998 7.3 76.0998 9.8 76.0998C12.3 76.0998 14.8 76.9998 16.5 78.7998C18.2 80.5998 18.7 83.0998 18.6 85.6998C18.7 88.0998 18.1 90.6998 16.4 92.5998ZM12.1 82.4998C11.9 81.9998 11.6 81.4998 11.2 81.2998C10.7 80.9998 10.2 80.9998 9.7 80.9998C9.2 80.9998 8.7 81.0998 8.3 81.3998C7.9 81.6998 7.6 82.0998 7.5 82.5998C7.2 83.4998 7.1 84.4998 7.1 85.4998C7.1 86.4998 7 87.4998 7.3 88.4998C7.4 88.9998 7.7 89.4998 8.2 89.8998C8.7 90.1998 9.3 90.3998 9.8 90.3998C10.3 90.3998 10.9 90.2998 11.5 89.9998C12 89.5998 12.3 89.0998 12.5 88.5998C12.8 87.5998 12.8 86.4998 12.8 85.5998C12.6 84.4998 12.5 83.4998 12.1 82.4998ZM11.6 85.4998C11.6 86.4998 11.6 87.3998 11.4 88.1998C11.3 88.5998 11.1 88.9998 10.8 89.1998C10.5 89.3998 10.1 89.4998 9.7 89.4998C9.3 89.4998 8.8 89.3998 8.5 89.1998C8.2 88.9998 8 88.5998 7.8 88.1998C7.5 87.2998 7.5 86.3998 7.5 85.3998C7.5 84.3998 7.4 83.4998 7.6 82.4998C7.7 81.9998 7.9 81.5998 8.3 81.2998C8.7 81.0998 9.2 80.9998 9.7 80.9998C10.2 80.9998 10.7 81.0998 11 81.3998C11.3 81.6998 11.5 82.0998 11.6 82.5998C11.7 83.5998 11.6 84.4998 11.6 85.4998ZM31.4 75.4998H31L25 75.5998H24.9L24.8 75.6998L20.5 78.6998L20.4 78.7998V78.9998L20.5 84.7998V85.1998L20.9 84.9998L23.9 83.2998L23.8 94.9998C26.1 95.0998 28.5 95.1998 30.9 95.2998H31.2V94.9998C31.3 93.3998 31.3 91.7998 31.3 90.1998C31.3 88.5998 31.4 86.9998 31.4 85.3998C31.4 82.1998 31.4 79.0998 31.3 75.8998L31.4 75.4998ZM23.9 94.8998L24.1 82.8998V82.4998L23.8 82.6998L20.9 84.2998L21 79.0998L25.1 76.2998L30.6 76.3998C30.6 79.3998 30.5 82.3998 30.5 85.4998C30.5 87.0998 30.5 88.6998 30.6 90.2998C30.6 91.7998 30.6 93.2998 30.7 94.6998C28.4 94.6998 26.2 94.7998 23.9 94.8998ZM61.2 32.6998C59.3 30.6998 56.4 29.8998 53.8 29.8998C51.2 29.8998 48.4 30.6998 46.5 32.6998C45.6 33.6998 44.9 34.8998 44.5 36.0998C44.1 37.3998 44 38.6998 44 39.9998C44 42.5998 44.6 45.3998 46.4 47.2998C48.2 49.2998 50.9 49.9998 53.5 49.9998C54.8 49.9998 56.1 49.8998 57.4 49.4998C58.6 49.0998 59.9 48.4998 60.8 47.5998C61.8 46.6998 62.5 45.4998 63 44.1998C63.4 42.8998 63.6 41.5998 63.7 40.2998C63.7 38.9998 63.7 37.5998 63.3 36.2998C62.8 34.9998 62.1 33.6998 61.2 32.6998ZM60.3 47.1998C59.5 48.0998 58.4 48.7998 57.2 49.2998C56 49.6998 54.7 49.8998 53.4 49.9998C52.1 49.9998 50.8 49.7998 49.6 49.3998C48.4 48.9998 47.3 48.1998 46.5 47.2998C44.8 45.2998 44.4 42.6998 44.4 40.0998C44.4 37.5998 45.1 34.9998 46.9 33.1998C48.7 31.3998 51.2 30.6998 53.7 30.6998C56.2 30.6998 58.7 31.5998 60.4 33.3998C62.1 35.1998 62.6 37.6998 62.5 40.2998C62.6 42.6998 62 45.2998 60.3 47.1998ZM76.7 43.8998C77.4 43.1998 78.1 42.4998 78.8 41.6998C79.7 40.5998 80.5 39.1998 80.6 37.6998C80.8 36.1998 80.6 34.6998 79.8 33.2998C79 31.9998 77.8 30.9998 76.4 30.5998C75 30.0998 73.5 29.8998 72.1 29.9998C70.7 30.0998 69.2 30.2998 67.9 30.8998C66.6 31.4998 65.4 32.5998 64.7 33.8998C64 35.1998 63.8 36.6998 63.7 38.0998V38.3998H64H70.4H70.6V38.1998C70.7 37.3998 70.8 36.3998 71.4 36.0998C71.7 35.8998 72.1 35.8998 72.5 35.9998C72.8 36.0998 73 36.4998 73.1 36.7998C73.2 37.5998 72.9 38.3998 72.4 39.0998C71.9 39.7998 71.4 40.4998 70.8 41.0998L63.8 48.6998V49.5998L72 49.7998C74.8 49.8998 77.6 49.8998 80.4 49.9998H80.8V49.5998L80.9 44.3998V43.8998H80.4H76.7ZM72.2 49.2998L63.8 49.4998V48.6998L71 41.1998C71.6 40.5998 72.2 39.8998 72.7 39.1998C73.2 38.4998 73.6 37.5998 73.5 36.5998C73.5 36.0998 73.2 35.5998 72.7 35.3998C72.2 35.1998 71.7 35.1998 71.3 35.4998C70.8 35.7998 70.6 36.1998 70.5 36.6998C70.4 37.0998 70.3 37.3998 70.3 37.7998H64.5C64.6 36.4998 64.8 35.2998 65.4 34.1998C66 32.9998 67.1 32.0998 68.3 31.4998C69.5 30.8998 70.9 30.7998 72.3 30.6998C73.7 30.6998 75.1 30.7998 76.3 31.2998C77.6 31.7998 78.6 32.5998 79.3 33.6998C79.9 34.7998 80.1 36.1998 79.9 37.4998C79.7 38.7998 79.1 39.9998 78.2 40.9998C77.3 41.9998 76.3 42.9998 75.3 43.9998L74.4 44.8998H75.7H80.2L80.3 49.1998C77.4 49.1998 74.8 49.2998 72.2 49.2998ZM56 37.0998C55.8 36.5998 55.5 36.0998 55.1 35.8998C54.6 35.5998 54.1 35.5998 53.6 35.5998C53.1 35.5998 52.6 35.6998 52.2 35.9998C51.8 36.2998 51.5 36.6998 51.4 37.1998C51.1 38.0998 51 39.0998 51 40.0998C51 41.0998 50.9 42.0998 51.2 43.0998C51.3 43.5998 51.6 44.0998 52.1 44.4998C52.6 44.7998 53.2 44.9998 53.7 44.9998C54.2 44.9998 54.8 44.8998 55.4 44.5998C55.9 44.1998 56.2 43.6998 56.4 43.1998C56.7 42.1998 56.7 41.0998 56.7 40.1998C56.5 39.0998 56.4 38.0998 56 37.0998ZM55.6 40.0998C55.6 41.0998 55.6 41.9998 55.4 42.7998C55.3 43.1998 55.1 43.5998 54.8 43.7998C54.5 43.9998 54.1 44.0998 53.7 44.0998C53.3 44.0998 52.8 43.9998 52.5 43.7998C52.2 43.5998 52 43.1998 51.8 42.7998C51.5 41.8998 51.5 40.9998 51.5 39.9998C51.5 38.9998 51.4 38.0998 51.6 37.0998C51.7 36.5998 51.9 36.1998 52.3 35.8998C52.7 35.5998 53.2 35.4998 53.7 35.4998C54.2 35.4998 54.7 35.5998 55 35.8998C55.3 36.1998 55.5 36.5998 55.6 37.0998C55.7 38.1998 55.6 39.0998 55.6 40.0998ZM150.7 14.6998C150.2 13.8998 149.4 13.2998 148.5 12.9998C149.2 12.5998 149.9 12.0998 150.3 11.2998C150.9 10.0998 151 8.7998 150.6 7.4998C150.3 6.2998 149.4 5.1998 148.3 4.5998C147.2 3.8998 146 3.5998 144.8 3.4998C143.6 3.2998 142.4 3.2998 141.2 3.3998C140 3.4998 138.8 3.7998 137.7 4.3998C136.6 4.9998 135.7 5.8998 135.1 6.9998C134.5 8.0998 134.2 9.2998 134.2 10.4998V10.7998H134.5L140.7 10.6998H140.9V10.4998C141 9.7998 141.3 8.9998 142 8.8998C142.7 8.7998 143.6 8.89981 143.7 9.5998C143.8 9.89981 143.7 10.2998 143.6 10.5998C143.4 10.8998 143.1 11.0998 142.8 11.1998C142.1 11.3998 141.3 11.2998 140.5 11.2998H140.4V11.3998V15.4998V15.5998H140.5H142.1C142.6 15.5998 143.2 15.6998 143.5 16.1998C143.8 16.5998 143.8 17.2998 143.6 17.6998C143.4 18.1998 142.8 18.2998 142.3 18.2998C141.8 18.2998 141.3 18.1998 141 17.7998C140.7 17.3998 140.6 16.8998 140.6 16.3998V16.2998H140.5C138.4 16.2998 136.3 16.1998 134.3 16.1998H134.1V16.3998C134.1 17.6998 134.3 18.9998 134.9 20.1998C135.5 21.3998 136.6 22.2998 137.8 22.8998C139 23.4998 140.3 23.6998 141.6 23.7998C142.9 23.8998 144.2 23.8998 145.5 23.6998C146.8 23.4998 148.1 23.0998 149.2 22.1998C150.3 21.3998 151.1 20.0998 151.4 18.7998C151.5 18.0998 151.6 17.4998 151.6 16.7998C151.3 15.9998 151.1 15.2998 150.7 14.6998ZM150.2 18.4998C149.9 19.5998 149.3 20.5998 148.4 21.2998C147.5 21.9998 146.3 22.3998 145.1 22.5998C143.9 22.7998 142.7 22.8998 141.4 22.7998C140.2 22.6998 139 22.4998 137.9 22.0998C136.8 21.6998 135.8 20.8998 135.2 19.8998C134.6 18.8998 134.4 17.7998 134.3 16.5998C136.3 16.4998 138.3 16.4998 140.2 16.4998C140.3 16.9998 140.4 17.4998 140.7 17.8998C141.1 18.2998 141.6 18.3998 142.1 18.3998C142.6 18.3998 143.3 18.2998 143.5 17.6998C143.7 17.1998 143.7 16.5998 143.4 16.0998C143.1 15.5998 142.5 15.4998 141.9 15.3998H140.3V11.3998H141.4C141.8 11.3998 142.2 11.3998 142.6 11.2998C143 11.1998 143.4 10.9998 143.6 10.5998C143.8 10.1998 143.9 9.7998 143.8 9.3998C143.7 8.9998 143.3 8.5998 142.9 8.4998C142.5 8.3998 142.1 8.3998 141.7 8.3998C141.3 8.4998 140.9 8.7998 140.7 9.1998C140.5 9.4998 140.4 9.8998 140.4 10.1998L134.6 10.0998C134.7 9.0998 135 7.9998 135.5 7.0998C136.1 6.0998 136.9 5.2998 137.9 4.7998C139.9 3.7998 142.4 3.7998 144.6 4.0998C145.7 4.2998 146.8 4.5998 147.8 5.1998C148.7 5.7998 149.5 6.6998 149.7 7.6998C150 8.6998 149.9 9.8998 149.4 10.7998C148.9 11.6998 147.9 12.2998 146.8 12.4998L144.7 12.9998L146.8 13.3998C147.9 13.5998 149 14.1998 149.6 15.0998C150.4 16.0998 150.5 17.3998 150.2 18.4998ZM122.1 17.7998C122.6 18.0998 123.2 18.2998 123.7 18.2998C124.2 18.2998 124.8 18.1998 125.4 17.8998C125.9 17.4998 126.2 16.9998 126.4 16.4998C126.7 15.4998 126.7 14.3998 126.7 13.4998C126.7 12.4998 126.6 11.4998 126.2 10.4998C126 9.9998 125.7 9.4998 125.3 9.2998C124.8 8.9998 124.3 8.9998 123.8 8.9998C123.3 8.9998 122.8 9.0998 122.4 9.3998C122 9.6998 121.7 10.0998 121.6 10.5998C121.3 11.4998 121.2 12.4998 121.2 13.4998C121.2 14.4998 121.1 15.4998 121.4 16.4998C121.4 16.8998 121.6 17.3998 122.1 17.7998ZM121.6 10.5998C121.7 10.0998 121.9 9.6998 122.3 9.3998C122.7 9.0998 123.2 8.9998 123.7 8.9998C124.2 8.9998 124.7 9.0998 125 9.3998C125.3 9.6998 125.5 10.0998 125.6 10.5998C125.7 11.4998 125.6 12.4998 125.6 13.3998C125.6 14.3998 125.6 15.2998 125.4 16.0998C125.3 16.4998 125.1 16.8998 124.8 17.0998C124.5 17.2998 124.1 17.3998 123.7 17.3998C123.3 17.3998 122.8 17.2998 122.5 17.0998C122.2 16.8998 122 16.4998 121.8 16.0998C121.5 15.1998 121.5 14.2998 121.5 13.2998C121.5 12.4998 121.4 11.4998 121.6 10.5998ZM123.5 23.3998C124.8 23.3998 126.1 23.2998 127.4 22.8998C128.6 22.4998 129.9 21.8998 130.8 20.9998C131.8 20.0998 132.5 18.8998 133 17.5998C133.5 16.2998 133.6 14.9998 133.7 13.6998C133.7 12.3998 133.7 10.9998 133.3 9.6998C132.9 8.3998 132.3 7.0998 131.3 6.0998C129.4 4.0998 126.5 3.2998 123.9 3.2998C121.3 3.2998 118.5 4.0998 116.6 6.0998C115.7 7.0998 115 8.2998 114.6 9.4998C114.2 10.7998 114.1 12.0998 114.1 13.3998C114.1 15.9998 114.7 18.7998 116.5 20.6998C118.2 22.6998 120.9 23.3998 123.5 23.3998ZM114.5 13.3998C114.5 10.8998 115.2 8.2998 117 6.4998C118.8 4.6998 121.3 3.9998 123.8 3.9998C126.3 3.9998 128.8 4.8998 130.5 6.6998C132.2 8.4998 132.7 10.9998 132.6 13.5998C132.6 16.0998 132.1 18.5998 130.4 20.4998C129.6 21.3998 128.5 22.0998 127.3 22.5998C126.1 22.9998 124.8 23.1998 123.5 23.2998C122.2 23.2998 120.9 23.0998 119.7 22.6998C118.5 22.2998 117.4 21.4998 116.6 20.5998C114.9 18.5998 114.4 15.8998 114.5 13.3998ZM37.6 41.4998L26.7 41.5998L20.6 41.6998C19.5 41.7998 18.4 42.2998 17.8 43.1998C17.5 43.5998 17.2 44.0998 17.1 44.6998C17 45.1998 17 45.7998 17 46.2998L17.3 70.4998L17.6 46.2998C17.6 45.7998 17.6 45.2998 17.7 44.7998C17.8 44.2998 18 43.8998 18.3 43.4998C18.9 42.7998 19.8 42.2998 20.7 42.2998L26.7 42.3998L37.7 42.4998L32.2 49.0998L38.6 42.6998L39.3 41.9998L31.9 35.1998L37.6 41.4998ZM133 27.8998L126.6 34.2998L133.2 28.7998L133.3 34.0998L133.4 39.4998C133.4 40.3998 132.9 41.2998 132.2 41.8998C131.8 42.1998 131.4 42.3998 130.9 42.4998C130.5 42.5998 130 42.5998 129.4 42.5998L85.3 42.9998L129.4 43.2998C129.9 43.2998 130.4 43.2998 131 43.1998C131.5 43.0998 132 42.8998 132.5 42.4998C133.4 41.8998 134 40.7998 134 39.6998L134.1 34.2998L134.2 28.9998L140.5 34.6998L133.7 27.2998L133 27.8998Z" fill="#E4EFF7"/>
</g>
<defs>
<clipPath id="clip0">
<rect width="172.6" height="139" fill="white"/>
</clipPath>
</defs>
</svg>
