<svg width="173" height="139" viewBox="0 0 173 139" fill="none" xmlns="http://www.w3.org/2000/svg">
<g clip-path="url(#clip0)">
<path opacity="0.3" d="M57.2 85.2996V83.7996L51.2 79.0996L50.7 78.7996L50.2 79.0996L36.2 89.0996L25.6 96.6996L25.9 95.6996L29.7 83.9996L35 67.3996L35.4 66.1996L34.4 65.4996L20.6 55.5996L11.6 49.0996H22.5H39.3H40.7L41.2 47.7996L46.8 30.7996C48.6 25.1996 48.9 24.4996 50.7 18.7996L54.7 30.6996L60.5 47.5996L60.9 48.5996H62L78.8 48.3996L92.5 48.1996L82.6 55.4996L70.5 64.5996V65.4996L70.6 65.3996L83.4 56.7996L96.1 48.0996L98.7 46.2996L95.5 46.1996L78.6 45.9996L62.9 45.7996L57.8 29.6996L52.4 12.5996L50.7 7.59961L49 12.5996C47.1 18.1996 45.2 23.8996 43.3 29.5996L38.1 45.2996H22.7L5.9 45.3996H0L4.8 48.7996L18.6 58.4996L30.4 66.7996L31.5 67.5996L26.7 82.9996L21.7 99.6996L20.5 103.6L23.8 101.1L37.5 90.6996L50.7 80.5996L57.2 85.2996Z" fill="#7A9BB3"/>
<path opacity="0.3" d="M67.7999 90.6002C93.8999 88.3002 116.9 88.3002 142.8 90.6002C119.4 87.1002 91.0999 87.1002 67.7999 90.6002ZM159.6 110.8C156.7 111.3 135.3 114.6 134.7 115C134 115.5 140.1 121 141.3 121.7C142.4 122.4 148.5 121.4 149.7 121.5C150.9 121.7 155.5 123.9 156.4 123.7C157.3 123.5 164.7 122.5 165 122.2C165.4 121.8 164.9 113.6 164.8 112.8C164 109.8 162.1 110.4 159.6 110.8ZM56.1999 98.9002C62.0999 101.8 73.4999 112 73.2999 111.7C71.0999 109.3 67.4999 105.9 56.5999 98.3002L56.9999 94.8002C55.2999 103.2 47.2999 101.7 44.1999 106.1C43.4999 107.1 39.5999 111.6 39.1999 113.4C38.3999 117 38.8999 121.9 38.8999 121.8C38.8999 121.6 39.2999 114.9 39.6999 113.8C40.1999 112.8 43.5999 108.4 44.6999 106.8C46.5999 104 54.9999 102.3 56.1999 98.9002ZM58.2999 90.0002L54.7999 89.8002C54.7999 89.8002 54.2999 86.6002 53.6999 86.0002C53.0999 85.4002 44.8999 85.8002 43.5999 86.4002C42.2999 86.9002 41.4999 87.9002 40.8999 88.7002C39.7999 90.4002 40.0999 91.6002 40.0999 91.6002C40.0999 91.4002 41.1999 88.7002 42.8999 87.6002C44.6999 86.4002 52.6999 86.2002 53.0999 86.7002C53.5999 87.2002 53.9999 90.6002 53.9999 90.6002H58.4999C58.4999 90.6002 67.8999 73.6002 69.8999 71.7002C74.5999 67.4002 94.2999 66.7002 105.3 66.7002C116.3 66.8002 135.9 67.4002 140.7 71.7002C142.8 73.6002 152.1 90.6002 152.1 90.6002H156.6C156.6 90.6002 157.1 87.3002 157.5 86.7002C158 86.2002 166 86.4002 167.7 87.6002C169.5 88.8002 170.5 91.4002 170.5 91.6002C170.5 91.7002 170.7 90.4002 169.7 88.7002C169.2 87.8002 168.3 86.9002 167 86.4002C165.7 85.9002 157.6 85.4002 156.9 86.0002C156.3 86.6002 155.8 89.8002 155.8 89.8002L152.3 90.0002C152.3 90.0002 143.2 72.1002 141.2 70.9002C133.6 66.0002 117.1 65.4002 105.4 65.2002C93.4999 65.3002 76.9999 66.0002 69.4999 70.8002C67.3999 72.1002 58.2999 90.0002 58.2999 90.0002ZM171.8 121.6V121.5C171.8 121.6 171.8 121.6 171.8 121.6ZM50.8999 110.8C48.3999 110.4 46.4999 109.8 45.8999 112.7C45.6999 113.6 45.2999 121.8 45.6999 122.1C46.0999 122.5 53.3999 123.5 54.2999 123.6C55.1999 123.8 59.7999 121.6 60.9999 121.4C62.1999 121.2 68.1999 122.2 69.3999 121.6C70.4999 120.9 76.5999 115.3 75.9999 114.9C75.1999 114.6 53.7999 111.2 50.8999 110.8ZM128 114.3C127.5 114.1 123.7 113.7 117.7 113.6C114 113.5 108.8 113.4 105.3 113.4C101.8 113.5 96.5999 113.6 92.8999 113.6C86.8999 113.7 83.0999 114.1 82.5999 114.3C82.0999 114.5 78.3999 117.4 77.9999 118.9C77.5999 120.4 82.0999 135.8 82.6999 138.8C82.7999 139.2 78.8999 119.6 78.9999 119.4C79.1999 119.2 81.7999 116.2 82.9999 115.5C83.9999 115 98.1999 114.8 105.2 114.8C112.2 114.9 126.4 115 127.4 115.5C128.7 116.2 131.3 119.1 131.4 119.4C131.6 119.6 127.7 139.2 127.7 138.8C128.3 135.9 132.7 120.4 132.4 118.9C132.2 117.4 128.5 114.5 128 114.3ZM171.4 113.2C170.9 111.4 167 106.9 166.4 105.9C163.3 101.6 155.3 103 153.6 94.6002L154 98.1002C143.1 105.8 139.5 109.1 137.3 111.5C137.1 111.7 148.6 101.6 154.4 98.7002C155.5 102.2 163.9 103.9 165.9 106.7C167 108.2 170.4 112.7 170.9 113.7C171.3 114.6 171.7 120.6 171.7 121.5C171.8 120.7 172.1 116.4 171.4 113.2Z" fill="#7A9BB3"/>
<path d="M68.5001 85.9C94.6001 83.6 117.6 83.6 143.5 85.9C120.2 82.4 91.8001 82.4 68.5001 85.9ZM128.8 109.7C128.3 109.5 124.5 109.1 118.5 109C114.8 108.9 109.6 108.8 106.1 108.8C102.6 108.9 97.4001 109 93.7001 109C87.7001 109.1 83.9001 109.5 83.4001 109.7C82.9001 109.9 79.2001 112.8 78.8001 114.3C78.4001 115.8 82.9001 131.2 83.5001 134.2C83.6001 134.6 79.7001 115 79.8001 114.8C80.0001 114.6 82.6001 111.6 83.8001 110.9C84.8001 110.4 99.0001 110.2 106 110.2C113 110.3 127.2 110.4 128.2 110.9C129.5 111.6 132.1 114.5 132.3 114.8C132.5 115 128.6 134.6 128.6 134.2C129.2 131.3 133.6 115.8 133.3 114.3C133 112.8 129.3 109.8 128.8 109.7ZM59.1001 85.3L55.6001 85.1C55.6001 85.1 55.1001 81.9 54.5001 81.3C53.9001 80.7 45.7001 81.1 44.4001 81.7C43.1001 82.2 42.3001 83.2 41.7001 84C40.6001 85.7 40.9001 86.9 40.9001 86.9C40.9001 86.7 42.0001 84 43.7001 82.9C45.5001 81.7 53.5001 81.5 53.9001 82C54.4001 82.5 54.8001 85.9 54.8001 85.9H59.3001C59.3001 85.9 68.7001 68.9 70.7001 67C75.4001 62.7 95.1001 62 106.1 62C117.1 62.1 136.7 62.7 141.5 67C143.6 68.9 152.9 85.9 152.9 85.9H157.4C157.4 85.9 157.9 82.6 158.3 82C158.8 81.5 166.8 81.7 168.5 82.9C170.3 84.1 171.3 86.7 171.3 86.9C171.3 87 171.5 85.7 170.5 84C170 83.1 169.1 82.2 167.8 81.7C166.5 81.2 158.4 80.7 157.7 81.3C157.1 81.9 156.6 85.1 156.6 85.1L153.1 85.3C153.1 85.3 144 67.4 142 66.2C134.4 61.3 117.9 60.7 106.2 60.5C94.4001 60.7 77.9001 61.4 70.4001 66.2C68.2001 67.4 59.1001 85.3 59.1001 85.3ZM172.2 108.6C171.7 106.8 167.8 102.3 167.2 101.3C164.1 97 156 98.4 154.4 90L154.8 93.5C144 101.2 140.3 104.5 138.1 106.9C137.9 107.1 149.4 97 155.2 94.1C156.3 97.6 164.7 99.3 166.7 102.1C167.8 103.6 171.2 108.1 171.7 109.1C172.1 110 172.5 115.9 172.5 116.9C172.6 116 172.9 111.7 172.2 108.6ZM160.4 106.1C157.5 106.6 136.1 109.9 135.5 110.3C134.8 110.8 140.9 116.3 142.1 117C143.2 117.7 149.3 116.7 150.5 116.8C151.7 117 156.3 119.2 157.2 119C158.1 118.8 165.5 117.8 165.8 117.5C166.2 117.1 165.7 108.9 165.6 108.1C164.7 105.1 162.9 105.7 160.4 106.1ZM56.9001 94.2C62.8001 97.1 74.2001 107.3 74.0001 107C71.8001 104.6 68.2001 101.2 57.3001 93.6L57.7001 90.1C56.0001 98.5 48.0001 97 44.9001 101.4C44.2001 102.4 40.3001 106.9 39.9001 108.7C39.1001 112.3 39.6001 117.2 39.6001 117.1C39.6001 116.9 40.0001 110.2 40.4001 109.1C40.9001 108.1 44.3001 103.7 45.4001 102.1C47.4001 99.3 55.8001 97.6 56.9001 94.2ZM51.7001 106.1C49.2001 105.7 47.3001 105.1 46.7001 108C46.5001 108.9 46.1001 117.1 46.5001 117.4C46.9001 117.8 54.2001 118.8 55.1001 118.9C56.0001 119.1 60.6001 116.9 61.8001 116.7C63.0001 116.5 69.0001 117.5 70.2001 116.9C71.3001 116.2 77.4001 110.6 76.8001 110.2C76.0001 109.9 54.6001 106.6 51.7001 106.1Z" fill="#2A86C9" fill-opacity="0.6"/>
<path d="M57.2 77.8V76.3L51.2 71.6L50.7 71.3L50.2 71.6L36.2 81.6L25.6 89.2L25.9 88.2L29.7 76.5L35 59.9L35.4 58.7L34.4 58L20.6 48.1L11.6 41.6H22.5H39.3H40.7L41.2 40.3L46.8 23.3C48.6 17.7 48.9 17 50.7 11.3L54.7 23.2L60.5 40.1L60.9 41.1H62L78.8 40.9L92.5 40.7L82.6 48L70.5 57V57.9L70.6 57.8L83.4 49.2L96.1 40.5L98.7 38.7L95.5 38.6L78.7 38.4L63 38.2L57.9 22.1L52.3 5L50.6 0L49 5.1C47.1 10.7 45.2 16.4 43.3 22.1L38.1 37.8H22.7L5.9 37.9H0L4.8 41.3L18.6 51L30.4 59.3L31.5 60.1L26.8 75.6L21.8 92.3L20.6 96.2L23.9 93.7L37.6 83.3L50.8 73.2L57.2 77.8Z" fill="#2A86C9" fill-opacity="0.6"/>
</g>
<defs>
<clipPath id="clip0">
<rect width="172.6" height="138.8" fill="white"/>
</clipPath>
</defs>
</svg>
