<svg width="173" height="139" viewBox="0 0 173 139" fill="none" xmlns="http://www.w3.org/2000/svg">
<g clip-path="url(#clip0)">
<path opacity="0.3" d="M52.2 80.7002C48.5 77.5002 43.5 75.9002 38.7 76.0002C33.9 76.1002 29.1 77.9002 25.5 81.1002C21.9 84.3002 19.6 89.0002 19.7 93.9002C19.8 96.3002 20.4 98.7002 21.4 100.8C22.5 102.9 24 104.8 25.9 106.3C27.7 107.8 29.8 108.9 32 109.7C33.3 110.2 34.7 110.5 36 110.6V110.4C34.6 110.2 33.3 109.9 32 109.5C29.8 108.7 27.8 107.5 26.1 106C22.7 103 20.5 98.5002 20.6 94.0002C20.6 89.5002 22.8 85.1002 26.2 82.2002C29.6 79.3002 34.1 77.7002 38.6 77.7002C43.1 77.7002 47.5 79.3002 50.8 82.3002C51.1 82.6002 51.4 82.9002 51.7 83.1002H54.4C53.8 82.2002 53 81.4002 52.2 80.7002ZM82.6 30.2002C82.3 26.6002 81.6 23.0002 80 19.7002C78.4 16.4002 76 13.5002 73.2 11.3002C70.4 9.0002 67.1 7.3002 63.8 6.2002C60.4 5.0002 57 4.2002 53.4 3.8002C49.9 3.3002 46.4 3.2002 42.8 3.2002C35.8 3.3002 28.7 4.3002 22 6.9002C20.4 7.7002 18.7 8.3002 17.2 9.2002C16.4 9.7002 15.6 10.0002 14.9 10.6002L12.7 12.2002C12 12.7002 11.4 13.4002 10.7 13.9002L9.7 14.8002C9.4 15.1002 9.1 15.5002 8.8 15.8002C8.2 16.5002 7.6 17.1002 7 17.8002L5.7 20.0002C3.8 23.0002 2.3 26.3002 1.5 29.7002C1 31.4002 0.8 33.2002 0.5 34.9002C0.3 35.8002 0.3 36.7002 0.3 37.5002L0 40.2002V40.8002H0.6L32.9 40.6002H33.3L33.4 40.2002C33.8 37.6002 34.5 34.8002 36.2 32.9002C37 31.9002 38.2 31.2002 39.5 31.1002C40.8 31.0002 42.2 31.0002 43.3 31.6002C44.5 32.2002 45.1 33.4002 45.3 34.7002C45.5 36.0002 45.5 37.4002 45 38.6002C44 41.1002 42.1 43.1002 40.2 45.1002L37.2 48.0002C36.2 49.0002 35.2 49.8002 34.2 50.8002C32.2 52.7002 30.3 54.7002 28.6 56.8002C26.9 59.0002 25.5 61.3002 24.5 63.9002C23.5 66.5002 23 69.2002 23 71.9002V72.3002V72.4002H23.1L38.8 72.5002C44 72.5002 49.3 72.6002 54.5 72.7002H54.8L54.9 72.4002C55.4 70.8002 56.4 69.4002 57.5 68.1002C58.6 66.8002 59.9 65.6002 61.2 64.5002C63.8 62.2002 66.5 60.1002 69.2 57.8002C71.8 55.5002 74.5 53.2002 76.7 50.3002C78.9 47.5002 80.7 44.2002 81.7 40.8002C82.6 37.4002 82.9 33.8002 82.6 30.2002ZM79.8 40.4002C79 43.6002 77.4 46.7002 75.3 49.4002C73.3 52.1002 70.7 54.4002 68.1 56.8002C65.5 59.1002 62.8 61.4002 60.3 63.8002C59 65.0002 57.8 66.3002 56.7 67.7002C55.7 69.0002 54.7 70.5002 54.2 72.1002C49.1 72.2002 43.9 72.3002 38.8 72.3002L23.2 72.4002V72.1002C23.2 69.4002 23.7 66.7002 24.7 64.1002C25.7 61.6002 27.1 59.2002 28.7 57.0002C30.4 54.8002 32.3 52.9002 34.3 51.0002C35.3 50.1002 36.4 49.2002 37.4 48.3002L40.4 45.5002C42.3 43.6002 44.3 41.6002 45.4 39.0002C45.9 37.7002 46 36.2002 45.8 34.8002C45.7 34.1002 45.5 33.4002 45.2 32.8002C44.8 32.2002 44.3 31.6002 43.6 31.3002C43 30.9002 42.2 30.8002 41.5 30.7002C40.8 30.6002 40.1 30.6002 39.4 30.7002C38 30.9002 36.6 31.6002 35.7 32.7002C34.7 33.8002 34.1 35.1002 33.6 36.4002C33.2 37.6002 32.9 38.8002 32.6 40.1002L1.3 39.7002L1.4 37.7002C1.5 36.8002 1.5 36.0002 1.6 35.1002C1.9 33.4002 2.1 31.7002 2.6 30.1002C3.4 26.8002 4.9 23.6002 6.7 20.8002L8.2 18.7002C8.7 18.0002 9.3 17.4002 9.9 16.8002C10.2 16.5002 10.5 16.2002 10.8 15.9002L11.8 15.1002C12.5 14.6002 13 13.9002 13.7 13.4002L15.8 11.9002C16.5 11.4002 17.3 11.0002 18 10.6002C19.5 9.7002 21.1 9.10019 22.6 8.4002C29.1 5.9002 36 5.0002 42.9 5.0002C46.3 5.0002 49.8 5.2002 53.2 5.7002C56.6 6.1002 59.9 7.0002 63.2 8.1002C69.6 10.3002 75.3 14.6002 78.2 20.7002C79.7 23.7002 80.4 27.0002 80.7 30.4002C80.9 33.7002 80.6 37.1002 79.8 40.4002Z" fill="#E4EFF7"/>
<path opacity="0.3" d="M67.6001 90.7999C93.7001 88.4999 116.7 88.4999 142.6 90.7999C119.2 87.2999 90.9001 87.2999 67.6001 90.7999ZM159.4 111C156.5 111.5 135.1 114.8 134.5 115.2C133.8 115.7 139.9 121.2 141.1 121.9C142.2 122.6 148.3 121.6 149.5 121.7C150.7 121.9 155.3 124.1 156.2 123.9C157.1 123.7 164.5 122.7 164.8 122.4C165.2 122 164.7 113.8 164.6 113C163.8 110 161.9 110.6 159.4 111ZM55.9001 99.0999C61.8001 102 73.2001 112.2 73.0001 111.9C70.8001 109.5 67.2001 106.1 56.3001 98.4999L56.7001 94.9999C55.0001 103.4 47.0001 101.9 43.9001 106.3C43.2001 107.3 39.3001 111.8 38.9001 113.6C38.1001 117.2 38.6001 122.1 38.6001 122C38.6001 121.8 39.0001 115.1 39.4001 114C39.9001 113 43.3001 108.6 44.4001 107C46.4001 104.2 54.8001 102.5 55.9001 99.0999ZM58.1001 90.1999L54.6001 89.9999C54.6001 89.9999 54.1001 86.7999 53.5001 86.1999C52.9001 85.5999 44.7001 85.9999 43.4001 86.5999C42.1001 87.0999 41.3001 88.0999 40.7001 88.8999C39.6001 90.5999 39.9001 91.7999 39.9001 91.7999C39.9001 91.5999 41.0001 88.8999 42.7001 87.7999C44.5001 86.5999 52.5001 86.3999 52.9001 86.8999C53.4001 87.3999 53.8001 90.7999 53.8001 90.7999H58.3001C58.3001 90.7999 67.7001 73.7999 69.7001 71.8999C74.4001 67.5999 94.1001 66.8999 105.1 66.8999C116.1 66.9999 135.7 67.5999 140.5 71.8999C142.6 73.7999 151.9 90.7999 151.9 90.7999H156.4C156.4 90.7999 156.9 87.4999 157.3 86.8999C157.8 86.3999 165.8 86.5999 167.5 87.7999C169.3 88.9999 170.3 91.5999 170.3 91.7999C170.3 91.8999 170.5 90.5999 169.5 88.8999C169 87.9999 168.1 87.0999 166.8 86.5999C165.5 86.0999 157.4 85.5999 156.7 86.1999C156.1 86.7999 155.6 89.9999 155.6 89.9999L152.1 90.1999C152.1 90.1999 143 72.2999 141 71.0999C133.4 66.1999 116.9 65.5999 105.2 65.3999C93.4001 65.5999 76.9001 66.2999 69.4001 71.0999C67.2001 72.2999 58.1001 90.1999 58.1001 90.1999ZM171.5 121.8V121.7C171.5 121.8 171.5 121.8 171.5 121.8ZM50.7001 111C48.2001 110.6 46.3001 110 45.7001 112.9C45.5001 113.8 45.1001 122 45.5001 122.3C45.9001 122.7 53.2001 123.7 54.1001 123.8C55.0001 124 59.6001 121.8 60.8001 121.6C62.0001 121.4 68.0001 122.4 69.2001 121.8C70.3001 121.1 76.4001 115.5 75.8001 115.1C75.0001 114.8 53.6001 111.4 50.7001 111ZM127.8 114.5C127.3 114.3 123.5 113.9 117.5 113.8C113.8 113.7 108.6 113.6 105.1 113.6C101.6 113.7 96.4001 113.8 92.7001 113.8C86.7001 113.9 82.9001 114.3 82.4001 114.5C81.9001 114.7 78.2001 117.6 77.8001 119.1C77.4001 120.6 81.9001 136 82.5001 139C82.6001 139.4 78.7001 119.8 78.8001 119.6C79.0001 119.4 81.6001 116.4 82.8001 115.7C83.8001 115.2 98.0001 115 105 115C112 115.1 126.2 115.2 127.2 115.7C128.5 116.4 131.1 119.3 131.2 119.6C131.4 119.8 127.5 139.4 127.5 139C128.1 136.1 132.5 120.6 132.2 119.1C132 117.6 128.3 114.7 127.8 114.5ZM171.2 113.5C170.7 111.7 166.8 107.2 166.2 106.2C163.1 101.9 155.1 103.3 153.4 94.8999L153.8 98.3999C142.9 106.1 139.3 109.4 137.1 111.8C136.9 112 148.4 101.9 154.2 98.9999C155.3 102.5 163.7 104.2 165.7 107C166.8 108.5 170.2 113 170.7 114C171.1 114.9 171.5 120.9 171.5 121.8C171.6 120.9 171.9 116.6 171.2 113.5Z" fill="#E4EFF7"/>
<path d="M68.2999 86.1002C94.3999 83.8002 117.4 83.8002 143.3 86.1002C120 82.7002 91.5999 82.7002 68.2999 86.1002ZM128.5 109.9C128 109.7 124.2 109.3 118.2 109.2C114.5 109.1 109.3 109 105.8 109C102.3 109.1 97.0999 109.2 93.3999 109.2C87.3999 109.3 83.5999 109.7 83.0999 109.9C82.5999 110.1 78.8999 113 78.4999 114.5C78.0999 116 82.5999 131.4 83.1999 134.4C83.2999 134.8 79.3999 115.2 79.4999 115C79.6999 114.8 82.2999 111.8 83.4999 111.1C84.4999 110.6 98.6999 110.4 105.7 110.4C112.7 110.5 126.9 110.6 127.9 111.1C129.2 111.8 131.8 114.7 132 115C132.2 115.2 128.3 134.8 128.3 134.4C128.9 131.5 133.3 116 133 114.5C132.7 113 129.1 110.1 128.5 109.9ZM58.7999 85.5002L55.2999 85.3002C55.2999 85.3002 54.7999 82.1002 54.1999 81.5002C53.5999 80.9002 45.3999 81.3002 44.0999 81.9002C42.7999 82.4002 41.9999 83.4002 41.3999 84.2002C40.2999 85.9002 40.5999 87.1002 40.5999 87.1002C40.5999 86.9002 41.6999 84.2002 43.3999 83.1002C45.1999 81.9002 53.1999 81.7002 53.5999 82.2002C54.0999 82.7002 54.4999 86.1002 54.4999 86.1002H58.9999C58.9999 86.1002 68.3999 69.1002 70.3999 67.2002C75.0999 62.9002 94.7999 62.2002 105.8 62.2002C116.8 62.3002 136.4 62.9002 141.2 67.2002C143.3 69.1002 152.6 86.1002 152.6 86.1002H157.1C157.1 86.1002 157.6 82.8002 158 82.2002C158.5 81.7002 166.5 81.9002 168.2 83.1002C170 84.3002 171 86.9002 171 87.1002C171 87.2002 171.2 85.9002 170.2 84.2002C169.7 83.3002 168.8 82.4002 167.5 81.9002C166.2 81.4002 158.1 80.9002 157.4 81.5002C156.8 82.1002 156.3 85.3002 156.3 85.3002L152.8 85.5002C152.8 85.5002 143.7 67.6002 141.7 66.4002C134.1 61.5002 117.6 60.9002 105.9 60.7002C94.0999 60.9002 77.5999 61.6002 70.0999 66.4002C67.8999 67.6002 58.7999 85.5002 58.7999 85.5002ZM171.9 108.8C171.4 107 167.5 102.5 166.9 101.5C163.8 97.2002 155.8 98.6002 154.1 90.2002L154.5 93.7002C143.7 101.4 140 104.7 137.8 107.1C137.6 107.3 149.1 97.2002 154.9 94.3002C156 97.8002 164.4 99.5002 166.4 102.3C167.5 103.8 170.9 108.3 171.4 109.3C171.8 110.2 172.2 116.1 172.2 117.1C172.3 116.2 172.7 112 171.9 108.8ZM172.3 117.2V117.1C172.3 117.2 172.3 117.2 172.3 117.2ZM160.2 106.3C157.3 106.8 135.9 110.1 135.3 110.5C134.6 111 140.7 116.5 141.9 117.2C143 117.9 149.1 116.9 150.3 117C151.5 117.2 156.1 119.4 157 119.2C157.9 119 165.3 118 165.6 117.7C166 117.3 165.5 109.1 165.4 108.3C164.5 105.3 162.7 106 160.2 106.3ZM56.6999 94.4002C62.5999 97.3002 73.9999 107.5 73.7999 107.2C71.5999 104.8 67.9999 101.4 57.0999 93.8002L57.4999 90.3002C55.7999 98.7002 47.7999 97.2002 44.6999 101.6C43.9999 102.6 40.0999 107.1 39.6999 108.9C38.8999 112.5 39.3999 117.4 39.3999 117.3C39.3999 117.1 39.7999 110.4 40.1999 109.3C40.6999 108.3 44.0999 103.9 45.1999 102.3C47.0999 99.5002 55.5999 97.8002 56.6999 94.4002ZM51.3999 106.3C48.8999 105.9 46.9999 105.3 46.3999 108.2C46.1999 109.1 45.7999 117.3 46.1999 117.6C46.5999 118 53.8999 119 54.7999 119.1C55.6999 119.3 60.2999 117.1 61.4999 116.9C62.6999 116.7 68.6999 117.7 69.8999 117.1C70.9999 116.4 77.0999 110.8 76.4999 110.4C75.6999 110.1 54.2999 106.8 51.3999 106.3Z" fill="#2A86C9" fill-opacity="0.6"/>
<path d="M52.2 77.5C48.5 74.3 43.5 72.7 38.7 72.8C33.9 72.9 29.1 74.7 25.5 77.9C21.9 81.1 19.6 85.8 19.7 90.7C19.8 93.1 20.4 95.5 21.4 97.6C22.5 99.7 24 101.6 25.9 103.1C27.7 104.6 29.8 105.7 32 106.5C33.3 107 34.7 107.3 36 107.4V107.2C34.6 107 33.3 106.7 32 106.3C29.8 105.5 27.8 104.3 26.1 102.8C22.7 99.8 20.5 95.3 20.6 90.8C20.6 86.3 22.8 81.9 26.2 79C29.6 76.1 34.1 74.5 38.6 74.5C43.1 74.5 47.5 76.1 50.8 79.1C51.1 79.4 51.4 79.7 51.7 79.9H54.4C53.8 79 53 78.2 52.2 77.5ZM82.6 27C82.3 23.4 81.6 19.8 80 16.5C78.4 13.2 76 10.3 73.2 8.1C70.4 5.8 67.1 4.1 63.8 3C60.4 1.8 57 1 53.4 0.6C49.9 0.1 46.4 0 42.8 0C35.8 0.1 28.7 1.1 22 3.7C20.4 4.5 18.7 5.1 17.2 6C16.4 6.5 15.6 6.8 14.9 7.4L12.7 9C12 9.5 11.4 10.2 10.7 10.7L9.7 11.6C9.4 11.9 9.1 12.3 8.8 12.6C8.2 13.3 7.6 13.9 7 14.6L5.5 16.8C3.6 19.8 2.1 23.1 1.3 26.5C0.8 28.2 0.6 30 0.3 31.7C0.1 32.6 0.1 33.5 0.1 34.3L0 37V37.6H0.6L32.9 37.4H33.3L33.4 37C33.8 34.4 34.5 31.6 36.2 29.7C37 28.7 38.2 28 39.5 27.9C40.8 27.8 42.2 27.8 43.3 28.4C44.5 29 45.1 30.2 45.3 31.5C45.5 32.8 45.5 34.2 45 35.4C44 37.9 42.1 39.9 40.2 41.9L37.3 44.8C36.3 45.8 35.3 46.6 34.3 47.6C32.3 49.5 30.4 51.5 28.7 53.6C27 55.8 25.6 58.1 24.6 60.7C23.6 63.3 23.1 66 23.1 68.7V69.1V69.2H23.2L38.9 69.3C44.1 69.3 49.4 69.4 54.6 69.5H54.9L55 69.2C55.5 67.6 56.5 66.2 57.6 64.9C58.7 63.6 60 62.4 61.3 61.3C63.9 59 66.6 56.9 69.3 54.6C71.9 52.3 74.6 50 76.8 47.1C79 44.3 80.8 41 81.8 37.6C82.6 34.2 82.9 30.5 82.6 27ZM79.8 37.1C79 40.3 77.4 43.4 75.3 46.1C73.3 48.8 70.7 51.1 68.1 53.5C65.5 55.8 62.8 58.1 60.3 60.5C59 61.7 57.8 63 56.7 64.4C55.7 65.7 54.7 67.2 54.2 68.8C49.1 68.9 43.9 69 38.8 69H23.2V68.7C23.2 66 23.7 63.3 24.7 60.7C25.7 58.2 27.1 55.8 28.7 53.6C30.4 51.4 32.3 49.5 34.3 47.6C35.3 46.7 36.4 45.8 37.4 44.9L40.4 42.1C42.3 40.2 44.3 38.2 45.4 35.6C45.9 34.3 46 32.8 45.8 31.4C45.7 30.7 45.5 30 45.2 29.4C44.8 28.8 44.3 28.2 43.6 27.9C43 27.5 42.2 27.4 41.5 27.3C40.8 27.2 40.1 27.2 39.4 27.3C38 27.5 36.6 28.2 35.7 29.3C34.7 30.4 34.1 31.7 33.6 33C33.2 34.2 32.9 35.4 32.6 36.7L1.3 36.4L1.4 34.4C1.5 33.5 1.5 32.7 1.6 31.8C1.9 30.1 2.1 28.4 2.6 26.8C3.4 23.5 4.9 20.3 6.7 17.5L8.2 15.4C8.7 14.7 9.3 14.1 9.9 13.5C10.2 13.2 10.5 12.9 10.8 12.6L11.8 11.8C12.5 11.3 13 10.6 13.7 10.1L15.8 8.6C16.5 8.1 17.3 7.7 18 7.3C19.5 6.4 21.1 5.8 22.6 5.1C29.1 2.7 36 1.7 42.9 1.7C46.3 1.7 49.8 1.9 53.2 2.4C56.6 2.8 59.9 3.7 63.2 4.8C69.6 7 75.3 11.3 78.2 17.4C79.7 20.4 80.4 23.7 80.7 27.1C80.9 30.5 80.6 33.9 79.8 37.1Z" fill="#2A86C9" fill-opacity="0.6"/>
</g>
<defs>
<clipPath id="clip0">
<rect width="172.4" height="139" fill="white"/>
</clipPath>
</defs>
</svg>
