<svg width="120" height="120" viewBox="0 0 120 120" fill="none" xmlns="http://www.w3.org/2000/svg">
<g clip-path="url(#clip0)">
<path d="M66.6857 34.1631C65.6571 34.1631 64.8 35.0214 64.8 36.0515V72.2747H68.5714V36.0515C68.5714 35.0214 67.7143 34.1631 66.6857 34.1631ZM3.94286 23.5193H51.2571C52.2857 23.5193 53.1429 22.6609 53.1429 21.6309C53.1429 20.6008 52.2857 19.7425 51.2571 19.7425H1.88571C0.857143 19.7425 0 20.6008 0 21.6309V86.3519C0 87.3819 0.857143 88.2403 1.88571 88.2403H52.6286V84.2918H3.94286V23.5193ZM79.8857 8.41199C79.2 7.7253 77.8286 7.7253 77.1429 8.41199L25.8857 59.7425L13.2 47.0386C12.5143 46.3519 11.1429 46.3519 10.4571 47.0386C9.77143 47.7253 9.77143 49.0987 10.4571 49.7854L24.5143 63.8626C24.8571 64.206 25.3714 64.3777 25.8857 64.3777C26.4 64.3777 26.9143 64.206 27.2571 63.8626L79.8857 11.1588C80.5714 10.4721 80.5714 9.09869 79.8857 8.41199Z" fill="#2A86C9"/>
<path d="M116.4 92.5322C117.429 92.0172 117.6 90.6438 117.429 90.1288C117.257 89.6138 114 89.9571 113.314 90.6438C112.629 91.3305 112.286 92.5322 112.286 92.5322C112.286 92.5322 115.543 93.0472 116.4 92.5322ZM111.086 92.5322C111.086 92.5322 106.971 85.1502 105.429 83.6052C103.886 82.0601 96.3429 80.8584 84.3429 80.8584C72.3429 80.8584 64.8001 82.0601 63.2572 83.6052C61.7143 85.1502 57.6001 92.5322 57.6001 92.5322C57.6001 92.5322 62.2286 92.8756 84.3429 92.8756C106.457 92.8756 111.086 92.5322 111.086 92.5322ZM101.657 106.609C101.657 106.609 110.743 106.438 113.486 105.408C116.229 104.378 116.057 100.773 116.057 100.773C116.057 100.773 112.8 101.631 108.343 101.803C103.886 102.146 102.686 105.064 101.657 106.609ZM100.114 102.489C100.114 102.489 90.6858 103.348 84.3429 103.348C78.0001 103.348 68.5715 102.489 68.5715 102.489C68.5715 102.489 70.9715 109.356 72.3429 110.386C73.7143 111.416 84.3429 111.588 84.3429 111.588C84.3429 111.588 94.9715 111.245 96.3429 110.386C97.7143 109.356 100.114 102.489 100.114 102.489ZM120 98.5408C119.829 96.9957 113.829 93.5623 113.829 93.5623C113.829 93.5623 117.771 97.3391 118.286 98.1975C118.8 99.0558 118.8 107.124 118.8 107.124C118.8 107.124 120.171 100.086 120 98.5408ZM93.4286 115.021L103.886 116.395V118.455C103.886 119.313 104.571 120.172 105.6 120.172H115.714C116.571 120.172 117.429 119.485 117.429 118.455V115.021H104.057H93.4286ZM54.6858 93.5623C54.6858 93.5623 48.6858 96.9957 48.5143 98.5408C48.3429 100.086 49.7143 107.124 49.7143 107.124C49.7143 107.124 49.5429 99.0558 50.2286 98.1975C50.7429 97.3391 54.6858 93.5623 54.6858 93.5623ZM51.2572 115.021V118.455C51.2572 119.313 51.9429 120.172 52.9715 120.172H63.0858C63.9429 120.172 64.8001 119.485 64.8001 118.455V116.567L75.2572 115.193H64.8001H51.2572V115.021ZM52.1143 92.5322C53.1429 93.0472 56.4001 92.5322 56.4001 92.5322C56.4001 92.5322 55.8858 91.3305 55.3715 90.6438C54.6858 89.9571 51.4286 89.6138 51.2572 90.1288C50.9143 90.8155 51.0858 92.0172 52.1143 92.5322ZM52.6286 100.773C52.6286 100.773 52.2858 104.378 55.2001 105.408C57.9429 106.438 67.0286 106.609 67.0286 106.609C66.0001 105.064 64.8001 101.974 60.3429 101.803C55.8858 101.631 52.6286 100.773 52.6286 100.773Z" fill="#A3C7E2"/>
<path d="M115.2 91.5023C116.229 90.9873 116.4 89.7856 116.057 89.2706C115.886 88.7556 112.629 89.0989 112.114 89.7856C111.6 90.4723 111.086 91.5023 111.086 91.5023C111.086 91.5023 114.343 92.0174 115.2 91.5023ZM110.057 91.3307C110.057 91.3307 106.114 84.292 104.572 82.747C103.029 81.2019 95.8287 80.1719 84.1716 80.1719C72.6859 80.1719 65.3145 81.2019 63.7716 82.747C62.2287 84.292 58.2859 91.3307 58.2859 91.3307C58.2859 91.3307 62.743 91.674 84.0002 91.674C105.6 91.674 110.057 91.3307 110.057 91.3307ZM100.972 105.065C100.972 105.065 109.714 104.893 112.457 103.863C115.2 102.833 114.857 99.3993 114.857 99.3993C114.857 99.3993 111.772 100.258 107.486 100.429C103.029 100.601 101.829 103.52 100.972 105.065ZM99.4287 100.944C99.4287 100.944 90.343 101.631 84.1716 101.631C78.0002 101.631 68.9145 100.944 68.9145 100.944C68.9145 100.944 71.143 107.64 72.5145 108.67C73.8859 109.7 84.1716 109.871 84.1716 109.871C84.1716 109.871 94.4573 109.528 95.8287 108.67C97.2002 107.64 99.4287 100.944 99.4287 100.944ZM118.629 97.1676C118.457 95.6225 112.8 92.3607 112.8 92.3607C112.8 92.3607 116.572 95.9659 117.086 96.8242C117.6 97.6826 117.429 105.408 117.429 105.408C117.429 105.408 118.8 98.7126 118.629 97.1676ZM93.0859 113.133L103.2 114.507V116.395C103.2 117.253 103.886 117.94 104.743 117.94H114.514C115.372 117.94 116.057 117.253 116.057 116.395V113.133H103.2H93.0859ZM55.8859 92.3607C55.8859 92.3607 50.2287 95.6225 50.0573 97.1676C49.8859 98.7126 51.2573 105.58 51.2573 105.58C51.2573 105.58 51.0859 97.8543 51.6002 96.9959C52.1145 96.1375 55.8859 92.3607 55.8859 92.3607ZM52.6287 113.133V116.395C52.6287 117.253 53.3145 117.94 54.1716 117.94H63.943C64.8002 117.94 65.4859 117.253 65.4859 116.395V114.507L75.6002 113.133H65.4859H52.6287ZM53.3145 91.5023C54.343 92.0174 57.4287 91.5023 57.4287 91.5023C57.4287 91.5023 56.9145 90.3006 56.4002 89.7856C55.8859 89.0989 52.6287 88.7556 52.4573 89.2706C52.2859 89.7856 52.4573 90.8156 53.3145 91.5023ZM53.8287 99.3993C53.8287 99.3993 53.4859 103.004 56.2287 103.863C58.9716 104.893 67.7145 105.065 67.7145 105.065C66.6859 103.52 65.4859 100.601 61.2002 100.429C56.9145 100.086 53.8287 99.3993 53.8287 99.3993Z" fill="#2A86C9"/>
<path d="M98.057 4.63525H90.6855V12.0172H98.057V4.63525Z" fill="#A3C7E2"/>
<path d="M94.2857 0.171875H86.9143V7.55385H94.2857V0.171875Z" fill="#2A86C9"/>
<path d="M14.2286 110.558H4.80005V120H14.2286V110.558Z" fill="#A3C7E2"/>
<path d="M9.42857 104.721H0V114.163H9.42857V104.721Z" fill="#2A86C9"/>
<path d="M9.08569 3.60547H3.08569V9.61405H9.08569V3.60547Z" fill="#A3C7E2"/>
<path d="M6 0H0V6.00858H6V0Z" fill="#2A86C9"/>
<path d="M81.6401 48.1362H87.6401V42.1276H81.6401V48.1362Z" fill="#A3C7E2"/>
<path d="M84.5549 51.7881H90.5549V45.7795H84.5549V51.7881Z" fill="#2A86C9"/>
<path d="M114.036 54.5549V60.5635H120.036V54.5549H114.036Z" fill="#A3C7E2"/>
<path d="M110.327 57.5368V63.5454H116.327V57.5368H110.327Z" fill="#2A86C9"/>
<path d="M4.97138 24.0345H50.9142C51.9428 24.0345 52.8 23.1762 52.8 22.1461C52.8 21.1161 51.9428 20.2577 50.9142 20.2577H3.08567C2.05709 20.2577 1.19995 21.1161 1.19995 22.1461V84.9787C1.19995 86.0088 2.05709 86.8671 3.08567 86.8671H53.8285V83.0903H4.97138V24.0345ZM65.8285 34.335C64.8 34.335 63.9428 35.1933 63.9428 36.2234V70.7298H67.7142V36.2234C67.7142 35.1933 66.8571 34.335 65.8285 34.335ZM78.6857 9.44227C78 8.75557 76.8 8.75557 76.1142 9.44227L26.4 59.2277L14.0571 46.8672C13.3714 46.1805 12.1714 46.1805 11.4857 46.8672C10.8 47.5538 10.8 48.7556 11.4857 49.4423L25.2 63.1762C25.5428 63.5195 26.0571 63.6912 26.5714 63.6912C27.0857 63.6912 27.6 63.5195 27.9428 63.1762L78.6857 12.0174C79.3714 11.3307 79.3714 10.129 78.6857 9.44227Z" fill="#A3C7E2"/>
</g>
<defs>
<clipPath id="clip0">
<rect width="120" height="120" fill="white"/>
</clipPath>
</defs>
</svg>
