<svg width="120" height="120" viewBox="0 0 120 120" fill="none" xmlns="http://www.w3.org/2000/svg">
<path d="M108.171 40.4573H98.9143L61.2 7.20017C60.5143 6.68588 59.4857 6.68588 58.8 7.20017L23.3143 40.4573H11.8285C10.8 40.4573 10.1143 41.3144 10.1143 42.1716V100.457C10.1143 101.486 10.9714 102.172 11.8285 102.172H108.171C109.2 102.172 109.886 101.486 109.886 100.457V42.1716C109.886 41.143 109.2 40.4573 108.171 40.4573ZM60 10.8002L93.6 40.2859H28.4571L60 10.8002ZM106.457 98.5716H13.5428V43.8859H106.457V98.5716Z" fill="#2A86C9"/>
<path d="M93.4286 64.1142C94.2858 63.4285 94.4572 62.2285 94.2858 61.7142C94.1143 61.1999 90.8572 61.5428 90.1715 62.2285C89.4858 62.9142 89.1429 64.1142 89.1429 64.1142C89.1429 64.1142 92.4 64.6285 93.4286 64.1142ZM87.9429 63.9428C87.9429 63.9428 83.8286 56.5714 82.2858 55.0285C80.7429 53.4856 73.2001 52.2856 61.2001 52.2856C49.2001 52.2856 41.6572 53.4856 40.1143 55.0285C38.5715 56.5714 34.4572 63.9428 34.4572 63.9428C34.4572 63.9428 39.0858 64.2856 61.2001 64.2856C83.3143 64.2856 87.9429 63.9428 87.9429 63.9428ZM78.5143 78.1714C78.5143 78.1714 87.6 77.9999 90.3429 76.9714C93.0858 75.9428 92.9143 72.3428 92.9143 72.3428C92.9143 72.3428 89.6572 73.1999 85.2001 73.3714C80.7429 73.5428 79.5429 76.6285 78.5143 78.1714ZM76.9715 73.8856C76.9715 73.8856 67.5429 74.7428 61.2001 74.7428C54.8572 74.7428 45.4286 73.8856 45.4286 73.8856C45.4286 73.8856 47.8286 80.7428 49.2001 81.7714C50.5715 82.7999 61.2001 82.9714 61.2001 82.9714C61.2001 82.9714 71.8286 82.6285 73.2001 81.7714C74.5715 80.9142 76.9715 73.8856 76.9715 73.8856ZM96.8572 70.1142C96.6858 68.5714 90.6858 65.1428 90.6858 65.1428C90.6858 65.1428 94.6286 68.9142 95.1429 69.7714C95.6572 70.6285 95.6572 78.6856 95.6572 78.6856C95.6572 78.6856 97.0286 71.6571 96.8572 70.1142ZM70.2858 86.5714L80.7429 87.9428V89.8285C80.7429 90.6856 81.4286 91.5428 82.4572 91.5428H92.5715C93.4286 91.5428 94.2858 90.8571 94.2858 89.8285V86.3999H80.9143H70.2858V86.5714ZM31.7143 65.1428C31.7143 65.1428 25.7143 68.5714 25.5429 70.1142C25.3715 71.6571 26.7429 78.6856 26.7429 78.6856C26.7429 78.6856 26.5715 70.6285 27.2572 69.7714C27.6 68.9142 31.7143 65.1428 31.7143 65.1428ZM28.1143 86.5714V89.9999C28.1143 90.8571 28.8 91.7142 29.8286 91.7142H39.9429C40.8 91.7142 41.6572 91.0285 41.6572 89.9999V88.1142L52.1143 86.7428H41.6572H28.1143V86.5714ZM28.9715 64.1142C30 64.6285 33.2572 64.1142 33.2572 64.1142C33.2572 64.1142 32.7429 62.9142 32.2286 62.2285C31.5429 61.5428 28.2858 61.1999 28.1143 61.7142C27.7715 62.2285 27.9429 63.4285 28.9715 64.1142ZM29.4858 72.3428C29.4858 72.3428 29.1429 75.9428 32.0572 76.9714C34.9715 77.9999 43.8858 78.1714 43.8858 78.1714C42.8572 76.6285 41.6572 73.5428 37.2001 73.3714C32.7429 73.1999 29.4858 72.3428 29.4858 72.3428Z" fill="#A3C7E2"/>
<path d="M92.0572 62.9143C93.0858 62.4001 93.2572 61.2001 92.9144 60.6858C92.7429 60.1715 89.4858 60.5143 88.9715 61.2001C88.4572 61.8858 87.9429 62.9143 87.9429 62.9143C87.9429 62.9143 91.2001 63.6001 92.0572 62.9143ZM86.9144 62.9143C86.9144 62.9143 82.9715 55.8858 81.4286 54.3429C79.8858 52.8001 72.6858 51.7715 61.0286 51.7715C49.5429 51.7715 42.1715 52.8001 40.6287 54.3429C39.0858 55.8858 35.1429 62.9143 35.1429 62.9143C35.1429 62.9143 39.6001 63.2572 60.8572 63.2572C82.4572 63.2572 86.9144 62.9143 86.9144 62.9143ZM77.8287 76.6286C77.8287 76.6286 86.5715 76.4572 89.3144 75.4286C92.0572 74.4 91.7144 70.9715 91.7144 70.9715C91.7144 70.9715 88.6287 71.8286 84.3429 72C80.0572 72.1715 78.6858 75.0858 77.8287 76.6286ZM76.2858 72.5143C76.2858 72.5143 67.2001 73.2001 61.0286 73.2001C54.8572 73.2001 45.7715 72.5143 45.7715 72.5143C45.7715 72.5143 48.0001 79.2 49.3715 80.2286C50.7429 81.2572 61.0286 81.4286 61.0286 81.4286C61.0286 81.4286 71.3144 81.0858 72.6858 80.2286C74.0572 79.2 76.2858 72.5143 76.2858 72.5143ZM95.4858 68.7429C95.3144 67.2 89.6572 63.9429 89.6572 63.9429C89.6572 63.9429 93.4286 67.5429 93.9429 68.4001C94.4572 69.2572 94.2858 76.9715 94.2858 76.9715C94.2858 76.9715 95.6572 70.2858 95.4858 68.7429ZM69.9429 84.6858L80.0572 86.0572V87.9429C80.0572 88.8 80.7429 89.4858 81.6001 89.4858H91.3715C92.2286 89.4858 92.9144 88.8 92.9144 87.9429V84.6858H80.0572H69.9429ZM32.7429 63.9429C32.7429 63.9429 27.0858 67.2 26.9144 68.7429C26.7429 70.2858 28.1144 77.1429 28.1144 77.1429C28.1144 77.1429 27.9429 69.4286 28.4572 68.5715C28.9715 67.5429 32.7429 63.9429 32.7429 63.9429ZM29.4858 84.6858V87.9429C29.4858 88.8 30.1715 89.4858 31.0287 89.4858H40.8001C41.6572 89.4858 42.3429 88.8 42.3429 87.9429V86.0572L52.4572 84.6858H42.3429H29.4858ZM30.1715 62.9143C31.2001 63.4286 34.2858 62.9143 34.2858 62.9143C34.2858 62.9143 33.7715 61.7143 33.2572 61.2001C32.7429 60.5143 29.4858 60.1715 29.3144 60.6858C29.1429 61.2001 29.3144 62.4001 30.1715 62.9143ZM30.6858 70.8C30.6858 70.8 30.3429 74.4001 33.0858 75.2572C35.8286 76.2858 44.5715 76.4572 44.5715 76.4572C43.5429 74.9143 42.3429 72.0001 38.0572 71.8286C33.7715 71.6572 30.6858 70.8 30.6858 70.8Z" fill="#2A86C9"/>
<path d="M113.143 4.45703H105.771V11.8285H113.143V4.45703Z" fill="#A3C7E2"/>
<path d="M109.543 0H102.172V7.37143H109.543V0Z" fill="#2A86C9"/>
<path d="M10.8001 112.8H3.6001V120H10.8001V112.8Z" fill="#A3C7E2"/>
<path d="M7.2 108.343H0V115.543H7.2V108.343Z" fill="#2A86C9"/>
<path d="M19.8857 9.6001H13.8857V15.6001H19.8857V9.6001Z" fill="#A3C7E2"/>
<path d="M16.9713 6H10.9713V12H16.9713V6Z" fill="#2A86C9"/>
<path d="M42.9268 110.968H47.8982V105.997H42.9268V110.968Z" fill="#A3C7E2"/>
<path d="M45.356 114.093H50.3274V109.122H45.356V114.093Z" fill="#2A86C9"/>
<path d="M92.2286 19.3711H86.2286V25.3711H92.2286V19.3711Z" fill="#A3C7E2"/>
<path d="M89.3143 15.7715H83.3143V21.7715H89.3143V15.7715Z" fill="#2A86C9"/>
<path d="M113.943 108.228V114.228H119.943V108.228H113.943Z" fill="#A3C7E2"/>
<path d="M110.406 111.204V117.204H116.406V111.204H110.406Z" fill="#2A86C9"/>
<path d="M108 39.6003H98.7429L61.2001 6.51462C60.5143 6.00033 59.4858 6.00033 58.9715 6.51462L23.4858 39.6003H12.0001C10.9715 39.6003 10.2858 40.4575 10.2858 41.3146V99.2575C10.2858 100.286 11.1429 100.972 12.0001 100.972H108C109.029 100.972 109.714 100.286 109.714 99.2575V41.3146C109.714 40.4575 108.857 39.6003 108 39.6003ZM60.0001 10.1146L93.4286 39.6003H28.6286L60.0001 10.1146ZM106.286 97.5432H13.7143V43.0289H106.286V97.5432Z" fill="#A3C7E2"/>
</svg>
