<svg width="24" height="20" viewBox="0 0 24 20" fill="none" xmlns="http://www.w3.org/2000/svg">
<g clip-path="url(#clip0)">
<path d="M18.2715 15.3242C17.9135 14.9205 17.3019 14.8894 16.9141 15.2621L16.8992 15.2776C16.6754 15.1689 16.4219 15.1223 16.1832 15.0913C15.6015 15.0447 15.0794 14.7342 14.7065 14.2838L13.6624 13.0105L16.213 10.2932C16.75 9.71862 16.75 8.78695 16.1832 8.24347C16.1832 8.24347 16.1832 8.24347 16.1683 8.22794L16.1534 8.21241C15.5866 7.66893 14.6916 7.74657 14.1994 8.35216L12.0067 11.023L9.81403 8.36769C9.30688 7.7621 8.42684 7.68446 7.86002 8.22794L7.84511 8.24347C7.84511 8.24347 7.84511 8.24347 7.83019 8.259C7.26338 8.80247 7.24846 9.73415 7.80036 10.3087L13.0508 15.8832C13.4536 16.318 13.7071 16.877 13.6922 17.4826C13.6922 17.7466 13.722 17.995 13.8115 18.2435L13.7966 18.259C13.4088 18.6317 13.379 19.2683 13.737 19.672C14.0949 20.0758 14.7065 20.1068 15.0943 19.7342L15.1092 19.7186C15.9147 20.0758 16.8843 19.936 17.5853 19.2683C18.2715 18.6006 18.4952 17.6068 18.2267 16.7373L18.2416 16.7217C18.6145 16.3646 18.6294 15.7279 18.2715 15.3242ZM16.8246 18.1192C16.392 18.7248 15.512 18.6938 15.1242 18.0416C14.9153 17.6845 14.9302 17.2031 15.1689 16.8615C15.6015 16.2559 16.4815 16.2869 16.8693 16.9391C17.0931 17.3118 17.0632 17.7776 16.8246 18.1192ZM7.57662 0.339741C7.20372 -0.0795139 6.57724 -0.11057 6.17451 0.277629L0.327401 5.86769C-0.0753338 6.25589 -0.105166 6.90806 0.267736 7.32732L7.57662 0.339741ZM5.90602 11.1317C5.27954 10.4174 5.86127 8.80247 7.20372 7.52918C8.54616 6.24036 10.1422 5.79005 10.7687 6.48881L11.3206 5.96086C11.6935 5.60372 11.7233 4.99813 11.3802 4.60993L8.12851 0.929803L8.15835 0.960859L0.834547 7.96396L4.04151 11.613C4.38458 12.0012 4.9663 12.0323 5.3392 11.6751L5.90602 11.1317ZM5.26462 6.87701C4.89172 6.44223 4.92155 5.79005 5.32429 5.38633C5.74194 4.99813 6.36841 5.02918 6.75623 5.44844C7.12914 5.88322 7.0993 6.53539 6.69657 6.93912C6.27892 7.32732 5.63753 7.31179 5.26462 6.87701ZM10.2913 14.2528C10.0079 13.9578 9.56046 13.9733 9.30688 14.2838C8.93398 14.7342 8.397 15.0447 7.83019 15.0913C7.57662 15.1068 7.33796 15.1689 7.11422 15.2776L7.0993 15.2621C6.69657 14.905 6.11484 14.905 5.75686 15.2932C5.36904 15.6969 5.38395 16.3491 5.78669 16.7373L5.8016 16.7528C5.53311 17.6224 5.74194 18.6161 6.443 19.2838C7.12914 19.9515 8.09868 20.0913 8.91907 19.7342L8.93398 19.7497C9.3218 20.1224 9.93336 20.0913 10.2913 19.6876C10.7985 19.6876 11.0371 19.0354 10.6642 18.6938L10.2168 18.259C10.2913 18.0105 10.3361 17.7466 10.3361 17.4981C10.3361 16.8925 10.5747 16.318 10.9775 15.8987C11.2161 15.6348 11.2161 15.2155 10.9775 14.9671L10.2913 14.2528ZM8.87432 18.0571C8.4865 18.7093 7.60645 18.7404 7.17388 18.1348C6.93523 17.7932 6.90539 17.3118 7.12914 16.9546C7.51695 16.3025 8.397 16.2714 8.82957 16.877C9.06823 17.2031 9.09806 17.6845 8.87432 18.0571ZM23.686 5.86769L17.824 0.277629C17.4212 -0.11057 16.7948 -0.0795139 16.4219 0.339741L23.7457 7.34285C24.1036 6.90806 24.0887 6.25589 23.686 5.86769ZM15.87 0.929803L12.6332 4.60993C12.2901 4.99813 12.3199 5.60372 12.6928 5.96086L13.2447 6.48881C13.8712 5.77452 15.4672 6.24036 16.8097 7.52918C18.1521 8.818 18.7338 10.4174 18.1074 11.1317L18.6593 11.6596C19.0322 12.0168 19.6139 11.9857 19.957 11.5975L23.1639 7.94844L15.8401 0.960859L15.87 0.929803ZM17.2572 5.44844C17.6301 5.01365 18.2715 4.99813 18.6891 5.38633C19.1068 5.77452 19.1217 6.44223 18.7488 6.87701C18.3759 7.31179 17.7345 7.32732 17.3168 6.93912C16.8992 6.55092 16.8693 5.88322 17.2572 5.44844Z" fill="#343434"/>
</g>
<defs>
<clipPath id="clip0">
<rect width="24" height="20" fill="white"/>
</clipPath>
</defs>
</svg>
