<svg width="15" height="20" viewBox="0 0 15 20" fill="none" xmlns="http://www.w3.org/2000/svg">
<path d="M7.5 10.8086C6.37036 10.8086 5.45051 11.6992 5.45051 12.793C5.45051 13.3359 5.68451 13.8594 6.09199 14.2344V16.0273C6.09199 16.7812 6.72539 17.3945 7.50403 17.3945C8.28268 17.3945 8.91608 16.7812 8.91608 16.0273V14.2344C9.32356 13.8594 9.55756 13.3359 9.55756 12.793C9.54949 11.6992 8.62964 10.8086 7.5 10.8086ZM8.2262 13.5391C8.02851 13.7188 7.91958 13.9688 7.91958 14.2227V16.0273C7.91958 16.25 7.734 16.4297 7.50403 16.4297C7.27407 16.4297 7.08849 16.25 7.08849 16.0273V14.2227C7.08849 13.9648 6.97552 13.7148 6.78187 13.5391C6.56805 13.3438 6.45105 13.0781 6.45105 12.793C6.45105 12.2305 6.92711 11.7695 7.50807 11.7695C8.08903 11.7695 8.56509 12.2305 8.56509 12.793C8.55702 13.0781 8.44002 13.3438 8.2262 13.5391ZM13.5113 8.19922H12.0226V4.37891C12.0226 1.96484 9.99328 0 7.5 0C5.00672 0 2.97741 1.96484 2.97741 4.37891V8.19922H1.4887C0.669715 8.19922 0 8.84375 0 9.64062V18.5586C0 19.3516 0.669715 20 1.4887 20H13.5113C14.3343 20 15 19.3516 15 18.5586V9.64062C15 8.84375 14.3303 8.19922 13.5113 8.19922ZM3.96988 4.37891C3.96988 2.49609 5.55137 0.960938 7.5 0.960938C9.44459 0.960938 11.0301 2.49219 11.0301 4.37891V8.19922H3.96988V4.37891ZM14.0075 18.5586C14.0075 18.8242 13.7856 19.0391 13.5113 19.0391H1.4887C1.21436 19.0391 0.992469 18.8242 0.992469 18.5586V9.64062C0.992469 9.375 1.21436 9.16016 1.4887 9.16016H13.5113C13.7856 9.16016 14.0075 9.375 14.0075 9.64062V18.5586Z" fill="#2A86C9"/>
</svg>
